/* XPM */
static char *_d676c6e851f43c0a412e9178ab39c51slacrRls44gu9Xfb[] = {
/* columns rows colors chars-per-pixel */
"50 50 211 2 ",
"   c None",
".  c #1B1B34",
"X  c #1E1E36",
"o  c #1F1F3A",
"O  c #211F36",
"+  c #202038",
"@  c #23233B",
"#  c #23233D",
"$  c #23243D",
"%  c #25253D",
"&  c #25263F",
"*  c #27273E",
"=  c #28283F",
"-  c #29283F",
";  c #242440",
":  c #272742",
">  c #2E2E44",
",  c #2F2F45",
"<  c #2F2F46",
"1  c #2A2B49",
"2  c #2F3048",
"3  c #2F304A",
"4  c #2E304D",
"5  c #303148",
"6  c #323248",
"7  c #333348",
"8  c #36364A",
"9  c #36364B",
"0  c #39394D",
"q  c #313151",
"w  c #323452",
"e  c #333557",
"r  c #373851",
"t  c #3B3B50",
"y  c #3E3E51",
"u  c #3A3A56",
"i  c #373B61",
"p  c #393D62",
"a  c #3B3F63",
"s  c #3D4061",
"d  c #3C4063",
"f  c #414154",
"g  c #414155",
"h  c #434457",
"j  c #484555",
"k  c #40405C",
"l  c #41435E",
"z  c #49485A",
"x  c #494C5D",
"c  c #4D4D5E",
"v  c #434560",
"b  c #424461",
"n  c #404365",
"m  c #424566",
"M  c #444867",
"N  c #4A4A62",
"B  c #4B4E60",
"V  c #4D4C61",
"C  c #494A64",
"Z  c #494C69",
"A  c #4B4E6B",
"S  c #4E5163",
"D  c #4D506B",
"F  c #515161",
"G  c #545363",
"H  c #565567",
"J  c #50536B",
"K  c #51536B",
"L  c #52536A",
"P  c #54556B",
"I  c #54566B",
"U  c #57576A",
"Y  c #50536D",
"T  c #58586C",
"R  c #5B5B6C",
"E  c #5F5E6C",
"W  c #545771",
"Q  c #555870",
"!  c #565970",
"~  c #595B71",
"^  c #5C5E73",
"/  c #5D5F73",
"(  c #605E6C",
")  c #5F6073",
"_  c #5D6177",
"`  c #5F6177",
"'  c #5E6178",
"]  c #63606C",
"[  c #6B646B",
"{  c #68636C",
"}  c #646471",
"|  c #656471",
" . c #676673",
".. c #626375",
"X. c #666675",
"o. c #6A6877",
"O. c #696A76",
"+. c #6A6A76",
"@. c #6A6A77",
"#. c #62657A",
"$. c #656779",
"%. c #65677A",
"&. c #686879",
"*. c #6B6B78",
"=. c #686A7B",
"-. c #6B6C78",
";. c #6B6D7B",
":. c #6C6C78",
">. c #6B6C7D",
",. c #6F6F7C",
"<. c #6D6E7F",
"1. c #6D6F7F",
"2. c #716F78",
"3. c #706F7C",
"4. c #6F707C",
"5. c #75737B",
"6. c #71727F",
"7. c #74727E",
"8. c #74737E",
"9. c #72747F",
"0. c #717281",
"q. c #747581",
"w. c #757581",
"e. c #767581",
"r. c #747681",
"t. c #777683",
"y. c #757882",
"u. c #767883",
"i. c #777883",
"p. c #7C7C83",
"a. c #797B87",
"s. c #7A7B86",
"d. c #7B7D87",
"f. c #7D7C86",
"g. c #7C7D87",
"h. c #747988",
"j. c #777D8B",
"k. c #787D8A",
"l. c #787D8B",
"z. c #7B7F8B",
"x. c #7D7D88",
"c. c #7F7E89",
"v. c #7C808B",
"b. c #7C818B",
"n. c #7F818B",
"m. c #7F828B",
"M. c #7A808D",
"N. c #7D828C",
"B. c #7F838C",
"V. c #82838B",
"C. c #85858B",
"Z. c #81858E",
"A. c #808691",
"S. c #838690",
"D. c #858890",
"F. c #878A91",
"G. c #868C96",
"H. c #898A93",
"J. c #8A8A93",
"K. c #8B8B94",
"L. c #898E96",
"P. c #898F96",
"I. c #888E97",
"U. c #8A8E96",
"Y. c #8A8F97",
"T. c #888F98",
"R. c #8D8E98",
"E. c #8A9097",
"W. c #8B9098",
"Q. c #8E9199",
"!. c #8D929A",
"~. c #8F959C",
"^. c #90949B",
"/. c #91939D",
"(. c #90969D",
"). c #96969D",
"_. c #98979E",
"`. c #92989F",
"'. c #98999F",
"]. c #949BA1",
"[. c #9999A0",
"{. c #9E9CA2",
"}. c #9C9EA4",
"|. c #9E9EA4",
" X c #9DA0A5",
".X c #9EA3A8",
"XX c #9FA5AB",
"oX c #A2A7AE",
"OX c #A9A7AC",
"+X c #AAA9AE",
"@X c #A9ACB0",
"#X c #AEAFB2",
"$X c #A9AFB4",
"%X c #B3B0B4",
"&X c #B3B1B4",
"*X c #B6B3B6",
"=X c #B3B4B7",
"-X c #B4B4B7",
";X c #B8B6B9",
":X c #BEBDBF",
">X c #C8C5C6",
",X c #C3C3C8",
"<X c #C1C0CA",
"1X c #C0C2CA",
"2X c #C6C5CF",
"3X c #C7C7D0",
"4X c #CBCCD4",
"5X c #D9D8E1",
"6X c #DFDFE2",
"7X c #EAEBEC",
"8X c white",
/* pixels */
"                                                                                                    ",
"                                                                                                    ",
"                                                                                                    ",
"                                                                                                    ",
"                                                                                                    ",
"                                                                                                    ",
"                                                { E                                                 ",
"                                              ] F.E.2.                                              ",
"                                              E P.].O.E                                             ",
"                                              E <X5Xt.E                                             ",
"                                              E <X5Xt.E                                             ",
"                                          D 1.s.2X5XR.s.D                                           ",
"                                          K 1.v.2X5X/.v.K K                                         ",
"                                          E B.].4X5XoX].E E                                         ",
"                                           .Z.].<X4XXX]. . .                                        ",
"                                  . ; q ) s.E.].].].].].s.s.q q .                                   ",
"                                  . ; q K =.v.P.U.U.P.P.=.=.q q . +                                 ",
"                              . . . ; q v A =.s.s.f.s.s.A A q q . . .                               ",
"                              0 < ; 1 e a M W ..` ` ` ` M M e e ; ; 8 j                             ",
"                  s.s.s.t.E E E V q e i i i i i i i i i i i i i q u E E ( O.f.s.s.                  ",
"                    s.P.Q.|._.V.;.V N M d i i i i i i i i i M M V U V.D.|.).P.Z.s.                  ",
"                    s.]..X>X:X`.B.E T D n i i i i i i i i i A K ( +.]..X>X-X].P.s.                  ",
"                  s.s.t.s.'.|.=X'.1...D n i i i i i i i i i A K 1.g.-X#X'.K.t.y.s.                  ",
"            D R E s.s.E  .s.J.>XOXs.=.D n i i i i i i i i i D A s.J.>X;Xs.3.E O.s.=.( 6.s.          ",
"          E.G.+X&X;X;XP.z.k N 8.=.! A p p i i i i i i i i i a a ! ^ 8.O.k / E.}.;X*X&X X~.5.        ",
"    s.O.( W.].:X>X>X>X].A.q u ( T D M i i i i i i i i i i i i i D K E H q ~ ].+X>X>X>X@X`.;.E t.s.  ",
"          C.v.e.8..XXX].v.+ $ 8 7 2 w i i i m Z $.1.Y Z i i i i 2 2 7 < o S ]./.J.g.8.$.`           ",
"            s. .( ].`.].v.. . : - - 4 i i i M D 0.f.! A i i i i = = * $ . B ].P.s.:.E I D           ",
"                  s.s.E R D v . O = = = z E B.].:X>X.X].( E = = = * . * D I ( O.s.                  ",
"                    s.E R D l . + : = = z E B.].:X>X.X].( ( = = * # . # D I ( O.s.                  ",
"                              . + = = = z E B.].7X8X$X].E E = = - * .                               ",
"                              . + = = = z E B.].7X8X$X].E E = = * * .                               ",
"                              E O.s.2.( y : z E 6X8Xc.E * * E E s.t.E                               ",
"                              ;.0.B.0.T 0 * f G ,X6X2.G * * T E v.g.O.                              ",
"                          D ` ].].].z.D 5 . + = G ( 5 : . . D D ].].].T.D                           ",
"                          Q #.].(.~.h.D t : : * z F > * = = D D ~.(.].P.!                           ",
"                          s.v.].P.s.=.D T ( 8 . . . . . E E D D s.B.].~.s.                          ",
"                          s.s.z.V.      ( ( c f c c h g E E         l.z.s.                          ",
"                          s.0.A           E 1.s.~.].B.s.E (         D ! s.                          ",
"                                          T X.4.W.].y.4.Q T                                         ",
"                                          D T E P.].O.E D D                                         ",
"                                            [ E P.].O.E                                             ",
"                                              E P.].;.E                                             ",
"                                                p.t.                                                ",
"                                                  (                                                 ",
"                                                                                                    ",
"                                                                                                    ",
"                                                                                                    ",
"                                                                                                    ",
"                                                                                                    "
};
