/* XPM */
static char *_33af6babcce449bd3af1aa5cae5be89bdJRDybhqSfFv7TJ[] = {
/* columns rows colors chars-per-pixel */
"50 50 226 2 ",
"   c None",
".  c #1B1B34",
"X  c #1D1C34",
"o  c #1F1E35",
"O  c #1E1E36",
"+  c #202038",
"@  c #222139",
"#  c #21213A",
"$  c #23233B",
"%  c #25253D",
"&  c #25253E",
"*  c #25253F",
"=  c #28283F",
"-  c #242440",
";  c #252643",
":  c #262846",
">  c #2A2A43",
",  c #2C2C44",
"<  c #2D2E47",
"1  c #2B2C4A",
"2  c #2D2D4A",
"3  c #2D2D4B",
"4  c #2F304A",
"5  c #2E304D",
"6  c #313147",
"7  c #333348",
"8  c #2F3153",
"9  c #313151",
"0  c #343450",
"q  c #333557",
"w  c #373851",
"e  c #3B3A50",
"r  c #3E3E51",
"t  c #3A3A56",
"y  c #3B3B56",
"u  c #313558",
"i  c #333659",
"p  c #34375A",
"a  c #35375B",
"s  c #36395D",
"d  c #3D3F59",
"f  c #3C3D5B",
"g  c #373B61",
"h  c #3A3E62",
"j  c #3B3F63",
"k  c #3E4059",
"l  c #3D4164",
"z  c #3E4264",
"x  c #444355",
"c  c #444356",
"v  c #43435C",
"b  c #44465E",
"n  c #49485A",
"m  c #4C4B5E",
"M  c #434560",
"N  c #414364",
"B  c #404365",
"V  c #424566",
"C  c #434667",
"Z  c #474965",
"A  c #444867",
"S  c #4B4E60",
"D  c #4E4E61",
"F  c #4D4D63",
"G  c #4A4C66",
"H  c #4E4F65",
"J  c #4E4F66",
"K  c #444868",
"L  c #494C69",
"P  c #4B4D68",
"I  c #4F5164",
"U  c #4F5065",
"Y  c #4F5068",
"T  c #4D506B",
"R  c #545363",
"E  c #515266",
"W  c #565567",
"Q  c #51536B",
"!  c #54566B",
"~  c #57586D",
"^  c #58586B",
"/  c #58586C",
"(  c #59596C",
")  c #5B5B6C",
"_  c #5F5E6C",
"`  c #565870",
"'  c #565970",
"]  c #5D5D71",
"[  c #5D5E71",
"{  c #5B5F76",
"}  c #5C5F76",
"|  c #63606C",
" . c #646471",
".. c #666573",
"X. c #616377",
"o. c #626476",
"O. c #696977",
"+. c #6A6A76",
"@. c #6A6A77",
"#. c #6B6B78",
"$. c #6A6A79",
"%. c #686A7B",
"&. c #6B6C78",
"*. c #6A6C7A",
"=. c #6B6C7B",
"-. c #6D6D79",
";. c #6E6E7A",
":. c #6B6D7D",
">. c #6C6D7D",
",. c #6F6F7C",
"<. c #716F7A",
"1. c #6F707C",
"2. c #6F707F",
"3. c #6F727E",
"4. c #72717A",
"5. c #71717D",
"6. c #74737E",
"7. c #696E81",
"8. c #6B6D82",
"9. c #6A6C83",
"0. c #6B6D84",
"q. c #6F7181",
"w. c #6F7384",
"e. c #707280",
"r. c #717281",
"t. c #727580",
"y. c #747581",
"u. c #757581",
"i. c #747681",
"p. c #757782",
"a. c #767782",
"s. c #737586",
"d. c #757882",
"f. c #777885",
"g. c #767985",
"h. c #787883",
"j. c #7B7B83",
"k. c #7A7B86",
"l. c #7F7E89",
"z. c #7C7D8B",
"x. c #7C818B",
"c. c #7F808A",
"v. c #7F818B",
"b. c #7F838C",
"n. c #7F838E",
"m. c #7E848D",
"M. c #80838C",
"N. c #80838D",
"B. c #81838D",
"V. c #81828F",
"C. c #80848D",
"Z. c #81858E",
"A. c #838491",
"S. c #838790",
"D. c #888791",
"F. c #848891",
"G. c #878B92",
"H. c #878C94",
"J. c #868C96",
"K. c #878D97",
"L. c #888891",
"P. c #888892",
"I. c #8A8A93",
"U. c #898F96",
"Y. c #8A8E96",
"T. c #8A8F97",
"R. c #898E98",
"E. c #8C8D98",
"W. c #8D8E98",
"Q. c #8D8E9C",
"!. c #8B9098",
"~. c #8D9198",
"^. c #8F959C",
"/. c #93939E",
"(. c #95959E",
"). c #95969E",
"_. c #94969F",
"`. c #949BA1",
"'. c #9A9CA2",
"]. c #999AA4",
"[. c #9AA0A6",
"{. c #9EA3A8",
"}. c #A1A5AB",
"|. c #A1A6AB",
" X c #A1A1AC",
".X c #A2A7AE",
"XX c #A4A7AF",
"oX c #A1A2B2",
"OX c #A8A8B2",
"+X c #A9ACB0",
"@X c #AAACB2",
"#X c #ABABB6",
"$X c #A9ADB4",
"%X c #A9AFB4",
"&X c #AAAFB5",
"*X c #B0AFBA",
"=X c #AFB0B6",
"-X c #B3B0B4",
";X c #B0B3BB",
":X c #B2B2BC",
">X c #B2B3BC",
",X c #B3B3BD",
"<X c #BEBDBF",
"1X c #B6B5C1",
"2X c #B8B9C2",
"3X c #BCBBC5",
"4X c #BFC3C7",
"5X c #C8C5C6",
"6X c #C1C0CA",
"7X c #C6C6C8",
"8X c #C5C5CE",
"9X c #C6C5CF",
"0X c #CBCCD4",
"qX c #CFD0D4",
"wX c #D3D1D1",
"eX c #D1D0D2",
"rX c #D4D7D9",
"tX c #D9D8E1",
"yX c #DFDFE2",
"uX c #E3E4E6",
"iX c #E4E5E7",
"pX c #E9E8E8",
"aX c #E8E8EA",
"sX c #E9EBEC",
"dX c #EAEBEC",
"fX c white",
/* pixels */
"                                                                                                    ",
"                                                                                                    ",
"                                                                                                    ",
"                                                                                                    ",
"                                                                                                    ",
"                                                                                                    ",
"                                                  _                                                 ",
"                                              | G.!.4.                                              ",
"                                              _ U.`.@._                                             ",
"                                            >.k.9XtXW.k.T                                           ",
"                                          T %.k.9XtXW.k.T T                                         ",
"                            e.T           _ b.`.0XtX.X`._ _         T ~ k.                          ",
"                          k.f.9.          _ t.m.#X1XR.m._ _         0.9.k.                          ",
"                          k.W.tX3Xk.%.T ( _ r = = = = = _ _ T T k./.tX9Xk.                          ",
"                          e.A.0X>XW.s.T E R e > 6 7 , > R R T T W.].0X2Xe.                          ",
"                          T { `.;XtXoXT w = 2 9 W _ t 9 = = T T tX0X`.R.T                           ",
"                              C._.>XQ.! k 4 y v %.i.D v 3 5 ! ! >X+Xb.A.                            ",
"                              _ @.k.<._ A h E _ U.`.@._ g g _ _ k.i._                               ",
"                              x D ] ~ T G A o.i.XX;XB.i.Z A T Q ] ( x                               ",
"                              . * 9 q g U _ b.`.0XtX.X`._ _ g g 9 3 .                               ",
"                              . ; a s g J _ b.`.=X;X[.`._ _ s h p 8 . +                             ",
"                  T T _ ) T M . : g g g T _ b.`.`.`.`.`._ _ g g g q . & T ! _ @.k.                  ",
"                  >.%.m.2.2 , $ 1 g g g N Z } 9.m.S.w.9.Z Z g g g p $ * 4 U b.A.U.                  ",
"            k. ._ k.k.`.b.. + = 3 h g g g g A T w.k.' J g g g g g p = * . m `.`.`.i._ ! T           ",
"          ~.^.qXyXiXiXb.>.2 0 R U L C g g g h h C K l h g g g g L L W m 2 J b.+XsXiXrX%XJ.4.        ",
"    k.@._ !.`.sXfXfXfXk.=.9 y _ ~ T A g g g g g g g g g g g g g J T _ W 9 J k.-XfXfXfX6X`.;._ i.    ",
"            { f.l._._. ...=.z.6X Xe.o.L l g g g g g g g g g L L e.A.4X*X%.%. .h._.I.l.M.B.          ",
"            T ( _ k.k._  .k.W.tX,Xk.%.L C g g g g g g g g g T T k.W.tX8Xk.<._ @.k.;._ >.k.          ",
"                    k.`.%XfXdX`.B._ ^ T f 9 p g g g g h 9 9 T T _ @.`.=XfXrX`.U.k.                  ",
"                    k.`.%XfXdX`.b._ ~ T f 9 s g g g g s 9 9 T T _ @.`.$XfXrX`.U.k.                  ",
"                    k.k.i._ _ _ n = = = = = = = = = = = = = > * = 7 _ _ _ @.k.k.k.                  ",
"                    k.      _ _ n = = = = = = = = = = = = = = = = 7 _ _                             ",
"                              X . . + > d T %.k.k.k.k.k.P T > = . . .                               ",
"                                o . + > b ~ e.M.D.I.B.M.' ' > > . .                                 ",
"                                  . ; 9 ] k.Y.`.<X5X{.`.k.k.9 9 .                                   ",
"                                        %.i.H.`.7XwX}.`.i.f.                                        ",
"                                          _ b.`.dXfX$X`._ _                                         ",
"                                          ! f.U.aXfX}.U./ (                                         ",
"                                          T %.k.iXfX_.k.J T                                         ",
"                                            4.5.eXpXD.<.                                            ",
"                                              _ -X5X6._                                             ",
"                                              _ '.%X;._                                             ",
"                                              _ U._.&._                                             ",
"                                                j.d.                                                ",
"                                                  _                                                 ",
"                                                                                                    ",
"                                                                                                    ",
"                                                                                                    ",
"                                                                                                    ",
"                                                                                                    "
};
