/* XPM */
static char *f9154b21959c4c2aa63236510780e5e0CBVyT8BK0d39ublL[] = {
/* columns rows colors chars-per-pixel */
"50 50 227 2 ",
"   c None",
".  c #1B1B34",
"X  c #1E1E36",
"o  c #23233B",
"O  c #25253C",
"+  c #25253D",
"@  c #25253E",
"#  c #25263F",
"$  c #27273E",
"%  c #26273F",
"&  c #28283F",
"*  c #29283F",
"=  c #292940",
"-  c #292942",
";  c #2A2A43",
":  c #2B2B45",
">  c #2B2C46",
",  c #2C2C46",
"<  c #2C2C47",
"1  c #2D2D48",
"2  c #2D2D4A",
"3  c #2F2F4D",
"4  c #2F304A",
"5  c #2E304D",
"6  c #32334B",
"7  c #36364A",
"8  c #37374B",
"9  c #31324C",
"0  c #35364F",
"q  c #303150",
"w  c #313151",
"e  c #313353",
"r  c #323354",
"t  c #333557",
"y  c #373654",
"u  c #373851",
"i  c #3B3B50",
"p  c #3E3E51",
"a  c #3A3A56",
"s  c #343659",
"d  c #34375A",
"f  c #35375B",
"g  c #35385C",
"h  c #36395E",
"j  c #363A5F",
"k  c #3C3D5C",
"l  c #373A60",
"z  c #373B61",
"x  c #3D4163",
"c  c #414053",
"v  c #454251",
"b  c #444356",
"n  c #424259",
"m  c #40405C",
"M  c #48475F",
"N  c #49485A",
"B  c #4A4D5F",
"V  c #4C4C5D",
"C  c #454761",
"Z  c #414364",
"A  c #464862",
"S  c #474965",
"D  c #4A4B62",
"F  c #4B4E60",
"G  c #4D4C61",
"H  c #4D4F63",
"J  c #4C4D67",
"K  c #4F5164",
"L  c #4F5068",
"P  c #4D506B",
"I  c #515061",
"U  c #515161",
"Y  c #515365",
"T  c #565567",
"R  c #50536B",
"E  c #51536B",
"W  c #53556B",
"Q  c #54556B",
"!  c #54566B",
"~  c #57576B",
"^  c #55556C",
"/  c #56576D",
"(  c #58586B",
")  c #5B5D6B",
"_  c #58586C",
"`  c #5A5A6C",
"'  c #5B5B6C",
"]  c #5C5C6C",
"[  c #5F5E6C",
"{  c #5B5C70",
"}  c #5D5D71",
"|  c #5B5F76",
" . c #5C5F76",
".. c #615F6C",
"X. c #5C6077",
"o. c #5D6177",
"O. c #5F6378",
"+. c #65616C",
"@. c #646371",
"#. c #616274",
"$. c #626476",
"%. c #656674",
"&. c #646576",
"*. c #6A6A76",
"=. c #6A6A77",
"-. c #6A6B77",
";. c #616479",
":. c #63657A",
">. c #676779",
",. c #6B6B78",
"<. c #686A7B",
"1. c #6B6C78",
"2. c #6B6C7B",
"3. c #6C6C78",
"4. c #6D6C7A",
"5. c #6A6B7E",
"6. c #6B6D7D",
"7. c #6C6D7D",
"8. c #6F6F7C",
"9. c #6C6D7E",
"0. c #726E76",
"q. c #6E707D",
"w. c #6F727F",
"e. c #73727B",
"r. c #75737A",
"t. c #6E6E80",
"y. c #727281",
"u. c #707480",
"i. c #737681",
"p. c #757481",
"a. c #747581",
"s. c #747681",
"d. c #747781",
"f. c #777683",
"g. c #747784",
"h. c #787784",
"j. c #767985",
"k. c #7E7980",
"l. c #797884",
"z. c #787B86",
"x. c #7A7B86",
"c. c #7F7E89",
"v. c #7F7F8A",
"b. c #787D8C",
"n. c #7C818B",
"m. c #7E818A",
"M. c #7F818B",
"N. c #7F828C",
"B. c #7F838C",
"V. c #7D838F",
"C. c #7E848D",
"Z. c #80828B",
"A. c #80808C",
"S. c #81838D",
"D. c #80848D",
"F. c #80848E",
"G. c #83858F",
"H. c #82868F",
"J. c #85858F",
"K. c #878B95",
"L. c #868A97",
"P. c #878C95",
"I. c #868C96",
"U. c #878D97",
"Y. c #8A8B95",
"T. c #898E96",
"R. c #898F96",
"E. c #8A8E96",
"W. c #898E98",
"Q. c #8B8F98",
"!. c #8D8D98",
"~. c #8D8E98",
"^. c #8B9098",
"/. c #8F959C",
"(. c #90919A",
"). c #95959E",
"_. c #9596A2",
"`. c #949BA1",
"'. c #989BA4",
"]. c #989DA5",
"[. c #999DA5",
"{. c #9DA1A8",
"}. c #9CA2A9",
"|. c #9FA2AB",
" X c #A2A2AD",
".X c #A2A7AE",
"XX c #A4A8AE",
"oX c #A8A7B2",
"OX c #ACABB3",
"+X c #A8A8B4",
"@X c #ABABB6",
"#X c #A9AFB4",
"$X c #ADB1B8",
"%X c #B0B3BB",
"&X c #B1B3BB",
"*X c #B1B5BA",
"=X c #B3B3BD",
"-X c #B3B2BE",
";X c #B2B6BD",
":X c #B5B5BF",
">X c #B6B6BF",
",X c #B6BBBF",
"<X c #B6B5C1",
"1X c #BBBDC5",
"2X c #BFBEC4",
"3X c #C0BFC9",
"4X c #BDC0C7",
"5X c #BFC3C7",
"6X c #C1C0CA",
"7X c #C3C6CA",
"8X c #C3C2CC",
"9X c #C6C5CF",
"0X c #C9C9D2",
"qX c #CDCED3",
"wX c #CBCCD4",
"eX c #D4D7D9",
"rX c #D8D8DD",
"tX c #D9D8E1",
"yX c #DDDFE1",
"uX c #DFDFE1",
"iX c #DFDFE2",
"pX c #E2E3E6",
"aX c #E4E5E7",
"sX c #EAEBEC",
"dX c #F0EFF3",
"fX c #F7F7F9",
"gX c white",
/* pixels */
"                                                                                                    ",
"                                                                                                    ",
"                                                  [                                                 ",
"                                                ..[                                                 ",
"                                              P ' [ E P                                             ",
"                                              ' F.R.%.'                                             ",
"                                              [ R.`.=.[                                             ",
"                                              [ >XwXp.[                                             ",
"                                              ..6XtXp...                                            ",
"                                          P 7.x.9XtX~.x.P                                           ",
"                                          P <.x.9XtX~.x.P P                                         ",
"                                          [ C.`.wXtX.X`.[ [                                         ",
"                                          ' u.C.@X<XW.C.' '                                         ",
"                        [ [ ' P       [ Q P u & & & % = P P [       P E [ [ [                       ",
"                      [ @.h.y.|       U D C u ; ; > ; ; A C U V     | :.p.4.[                       ",
"                      [ h.tXwX`.F.[ c . o % 2 w j z r w = = . . [ 1.`.XXtX+X[                       ",
"                      ' 9.4X1X*X'.p.) 7 9 5 w d j z d r 3 5 7 7 u.F.*X;X4X_.'                       ",
"                      P | `..XtX4X`.B.[ S z z z z z z z z z [ ..`..XtXwX`.b.P                       ",
"                          H.^.4X$X`.B.[ S z z z g j j z z z [ [ `.|.4X%Xn.n.                        ",
"                          [ -.`.`.`.B.[ S z z z w w j z z z [ [ `.`.`.R...                          ",
"                          E { p.u.d.$.S x z d t / } k t z z S S p.p.d.q.Q (                         ",
"                  P P [ ' P E [ [ +.E z z z t w 4.x.k w z z z z [ [ [ ) P Q [ _ P                   ",
"                  7.<.C.e.3 9 p n S x z d t J }  X=Xt.} t t z z S C p i 4 K A.g.<.k.                ",
"            P ' [ x.x.`.n.. X & 5 z z z t w } x.9XtX~.x.w w z z j d % % . B `.R.x.x.x.x.x.          ",
"          P.P.>X3X9X9XwX+X. X & 2 w t w M Q x.(.pXfXXX(.~ T e e r w & o . #.wX0X9XrXaX*X/.r.        ",
"    x.=.[ ^.`.wXtXtXtXtX=X. X & < w w w V [ C.`.sXgX#X`.[ [ w w w 3 & % . >.tXtXtXdXgX4X`.1.[ p.x.  ",
"            n.Y.~..X.X.XK.. . & & ; 2 w y a %.C.(.).F.A.a a w w = = % % . Y .X[.~.J.v.<.O.          ",
"            x.x.x.`.`.`.C.. X = & & < w w w } x.x.x.x.x.w w w w & & & % . F `.R.x.4.[ / P           ",
"                  x.x.[ ) P E [ ..[ N % 2 w w w T [ a w w w & & [ [ [ ' P Q [ / P                   ",
"                    x.[ ' P E [ ..[ N & 2 w w w T [ a w w w & & [ [ [ ' P E [ ' P                   ",
"                          [ =.`.`.`.Z.[ p & & & 5 w > & & % +.[ `.`.`.R...                          ",
"                          [ =.`.`.`.B.[ p & & & 3 w = & & % [ [ `.`.`.R.[                           ",
"                        O.`.#XgXeX`.n.[ p & & & & & & & % & ..[ ).#XgXsX`.V.P                       ",
"                      E :.#X,XsX7XR.p.U 8 % & & & & & & % o I I R.|.sXyX#XK.R                       ",
"                      [ v.gXsX`.C...b . . . o % & % & & . . . . [ -.).#XgX2X[                       ",
"                      ..x.iXqXP.Z.  v & % % % o % O O % % % & %   q.I.}.iXOX[                       ",
"                      [ [ [ ' P       [ ~ P 4 . . . . . P P [ [     P E [ [ [                       ",
"                                        ~ Q K F #.%.Y G Q Q                                         ",
"                                          [ A.`.wXtX.X`.[ [                                         ",
"                                          _ j.R.0XtX[.R.' /                                         ",
"                                          P <.x.9XtX~.x.P P                                         ",
"                                            0.=.8XtXZ.=.                                            ",
"                                              [ 3XtXh...                                            ",
"                                              [ |.=X7.[                                             ",
"                                              [ R.`.=.[                                             ",
"                                              E %.=./ E                                             ",
"                                              P [ [ E P                                             ",
"                                                +.[                                                 ",
"                                                  [                                                 ",
"                                                                                                    "
};
