/* XPM */
static char *_a36ee3c2cd64ce9d88ddd7899d402c5xrtjSsp7Nwv7296j[] = {
/* columns rows colors chars-per-pixel */
"50 50 182 2 ",
"   c None",
".  c #1B1B34",
"X  c #1F1F39",
"o  c #202038",
"O  c #212038",
"+  c #22223D",
"@  c #23243D",
"#  c #25253D",
"$  c #25253F",
"%  c #25263F",
"&  c #28283F",
"*  c #29283F",
"=  c #242440",
"-  c #252643",
";  c #262846",
":  c #2C2B42",
">  c #2D2D43",
",  c #2E2F45",
"<  c #2A2B49",
"1  c #2D2D4A",
"2  c #2D2D4B",
"3  c #313248",
"4  c #33354A",
"5  c #2F3153",
"6  c #313151",
"7  c #333557",
"8  c #313558",
"9  c #35375B",
"0  c #36395D",
"q  c #373B61",
"w  c #51454A",
"e  c #434355",
"r  c #444356",
"t  c #454557",
"y  c #464557",
"u  c #40425C",
"i  c #49485A",
"p  c #4B495A",
"a  c #434560",
"s  c #414364",
"d  c #454865",
"f  c #474965",
"g  c #4A4D60",
"h  c #4D4C61",
"j  c #4E4E60",
"k  c #494B67",
"l  c #4F5068",
"z  c #4D506B",
"x  c #505060",
"c  c #515161",
"v  c #525161",
"b  c #505262",
"n  c #555463",
"m  c #505167",
"M  c #525366",
"N  c #545565",
"B  c #555566",
"V  c #52536B",
"C  c #54566B",
"Z  c #50526E",
"A  c #57586D",
"S  c #58596A",
"D  c #595A6A",
"F  c #5B5B6C",
"G  c #5C5B6C",
"H  c #5F5E6C",
"J  c #525570",
"K  c #5D5D71",
"L  c #5B5F76",
"P  c #5C5E74",
"I  c #675F66",
"U  c #5D606F",
"Y  c #5F6177",
"T  c #62616D",
"R  c #61606F",
"E  c #69636C",
"W  c #636370",
"Q  c #646471",
"!  c #626476",
"~  c #646575",
"^  c #646677",
"/  c #636875",
"(  c #646875",
")  c #676874",
"_  c #646876",
"`  c #6A6976",
"'  c #6A6A76",
"]  c #6A6A77",
"[  c #6A6B77",
"{  c #686A7B",
"}  c #6C6B78",
"|  c #6B6C78",
" . c #696E7A",
".. c #6C6D79",
"X. c #6F6F7C",
"o. c #6D6E7E",
"O. c #73717A",
"+. c #70717D",
"@. c #71717D",
"#. c #70727D",
"$. c #727281",
"%. c #747581",
"&. c #757581",
"*. c #747681",
"=. c #747781",
"-. c #757782",
";. c #767682",
":. c #777683",
">. c #747883",
",. c #767984",
"<. c #777A84",
"1. c #7B7B85",
"2. c #7A7B86",
"3. c #7C7B88",
"4. c #7F838C",
"5. c #80808C",
"6. c #80828C",
"7. c #82828C",
"8. c #80848D",
"9. c #81848E",
"0. c #81858E",
"q. c #83848E",
"w. c #83848F",
"e. c #84868D",
"r. c #838790",
"t. c #848490",
"y. c #848690",
"u. c #848891",
"i. c #858A92",
"p. c #878C94",
"a. c #868D97",
"s. c #8A8A93",
"d. c #8A8B94",
"f. c #898F96",
"g. c #8A8E96",
"h. c #8A8F96",
"j. c #8A8F97",
"k. c #8C8D97",
"l. c #8C8D98",
"z. c #8D8E98",
"x. c #8B9198",
"c. c #8D9299",
"v. c #8F959C",
"b. c #95959E",
"n. c #9499A1",
"m. c #949BA1",
"M. c #9D9CA3",
"N. c #9D9DA8",
"B. c #9E9DA8",
"V. c #9CA2A9",
"C. c #9EA3A8",
"Z. c #9DA1AB",
"A. c #A2A7AE",
"S. c #A9A7AC",
"D. c #A5AAAF",
"F. c #A8A7B2",
"G. c #A9AFB4",
"H. c #B1B4BC",
"J. c #B8B6B9",
"K. c #BBB9BE",
"L. c #BEBDBF",
"P. c #B5B8C0",
"I. c #BBBCC4",
"U. c #C0BFC9",
"Y. c #BDC0C7",
"T. c #C0C2C7",
"R. c #C8C5C6",
"E. c #C1C0CA",
"W. c #C2C1CB",
"Q. c #C3C2CA",
"!. c #C3C2CC",
"~. c #C4C3CD",
"^. c #C6C5CF",
"/. c #CBC9CB",
"(. c #CBCCD4",
"). c #D4D7D9",
"_. c #D6D4DC",
"`. c #D9D8E1",
"'. c #E4E5E7",
"]. c #E9EAEB",
"[. c #EAEBEC",
"{. c white",
/* pixels */
"                                                                                                    ",
"                                                                                                    ",
"                                                                                                    ",
"                                                                                                    ",
"                                                                                                    ",
"                                                                                                    ",
"                                                                                                    ",
"                                                                                                    ",
"                                                                                                    ",
"                                                  H                                                 ",
"                                                E H                                                 ",
"                                              H x.m...                                              ",
"                                            E F m.A...H                                             ",
"                              H H H       . r I U.`.:.H . .       H H                               ",
"                              H W [     w * j } !.`.5.] * :     } _ H                               ",
"                              H :.m. .. y U 5.m.(.`.A.m.H H . . m.x.H                               ",
"                              e b / p - j ] 0.m.(.`.A.m.] ] $ = _ U r                               ",
"                              . . . - 5 K 2.h.m.(.`.A.m.2.2.6 6 . . .                               ",
"                              . X % < 7 A X.i.m.P.Y.V.m.X.X.7 7 = + .                               ",
"                              . - 5 7 0 l H 4.m.m.m.m.m.H H q q 6 1 .                               ",
"                              . - 9 0 q s d ! *.4.u.,.*.d k q q 9 5 . o                             ",
"                  z z H F z a . ; 0 q q q q l T >.2.W I q q q q q 7 . $ l C H _ 2.                  ",
"                  X.{ H T { ^ B M l d q q q s d Z J k d q q q q m m M F { ! K $.h.                  ",
"            2.2.2.2.2.H Q 2.2.2.X.H l q q q q q q q q q q q q q U W 2.2.2.X.I >.m.:.H C l           ",
"          c.v.I.^.W W E.E.^.E.J.M.:.P q q q q q q q q q q q q q :.7.J.K.^.^.I.N.} N.U.V.a.O.        ",
"    2.} H x.m.(.`.H H `.`.`._.R.S.2.Y q q q q q q q q q q q q q 1.s.R./.`._.`.F.H F.`.H.m.] H :.    ",
"            P $.:.:.:.>.3.z.z.s.2.T V q q q q q q q q q q q q q T ..s.s.c.t.:.:.:.5.z.r.5.          ",
"            z F H 2.2.H Q 2.2.2.X.H z q q q q q q q q q q q q q U W 2.2.2.X.I { 2.2.2.2.2.          ",
"                  z z H F z a . X & & & 1 4 h H :.2.! F 6 6 = : & # . $ l C H ] 2.                  ",
"                    z H F l u . o * & & 1 5 h H :.2.W I 6 6 & & & $ . @ z C H } 2.                  ",
"                              . X & & & i H 4.m.L.R.C.m.H H & & & $ .                               ",
"                              . o & & & i H 4.m.L.R.V.m.H H & & * $ .                               ",
"                              . . . X & D 2.p.b.[.{.G.m.2.2.- & . . .                               ",
"                              : > 4 , $ B #.i.V.[.{.G.m.%.%.$ $ 4 3 *                               ",
"                              H :.m._ . y U 6.b.].{.G.m.I H . . m.j.H                               ",
"                              H #.h.>.  p v >.b.].{.A.v.v n     j.0.H                               ",
"                              H H H       . B 2.'.{.b.1.. .     U I H                               ",
"                                            T X.Y.).q.#.                                            ",
"                                              H j.m.[ U                                             ",
"                                                e.4.                                                ",
"                                                  H                                                 ",
"                                                                                                    ",
"                                                                                                    ",
"                                                                                                    ",
"                                                                                                    ",
"                                                                                                    ",
"                                                                                                    ",
"                                                                                                    ",
"                                                                                                    ",
"                                                                                                    "
};
