/* XPM */
static char *_99cc6b65b964ce39b2955d13610618fi1FwrL2kSQcFuhsG[] = {
/* columns rows colors chars-per-pixel */
"50 50 192 2 ",
"   c None",
".  c #443728",
"X  c #5E4D1E",
"o  c #6C4C0D",
"O  c #6B470F",
"+  c #6C510E",
"@  c #72500A",
"#  c #6C4E12",
"$  c #6C4E1C",
"%  c #664F1C",
"&  c #724A1B",
"*  c #714E10",
"=  c #6C5414",
"-  c #6B531A",
";  c #685518",
":  c #715213",
">  c #71541F",
",  c #765C1D",
"<  c #7B5A1F",
"1  c #7F601F",
"2  c #5E4A2A",
"3  c #554834",
"4  c #58513A",
"5  c #674F27",
"6  c #6D4C27",
"7  c #654D2A",
"8  c #784225",
"9  c #6B5224",
"0  c #675128",
"q  c #6A532D",
"w  c #655C2A",
"e  c #725122",
"r  c #7E5C23",
"t  c #725B27",
"y  c #664736",
"u  c #71433E",
"i  c #695736",
"p  c #79622A",
"a  c #524A40",
"s  c #835C1D",
"d  c #916D0C",
"f  c #896718",
"g  c #956C15",
"h  c #936419",
"j  c #936C1B",
"k  c #957119",
"l  c #997811",
"z  c #A17409",
"x  c #A9761D",
"c  c #A57B1C",
"v  c #AD7D1B",
"b  c #A67616",
"n  c #B37819",
"m  c #875A22",
"M  c #8C6320",
"N  c #886626",
"B  c #946E22",
"V  c #996922",
"C  c #997828",
"Z  c #8F633A",
"A  c #AC7622",
"S  c #A07925",
"D  c #C57E20",
"F  c #896F4A",
"G  c #846951",
"H  c #BB840C",
"J  c #BC8907",
"K  c #BC920D",
"L  c #AC8115",
"P  c #BB8515",
"I  c #BA8A13",
"U  c #BB841C",
"Y  c #BF8919",
"T  c #B7851B",
"R  c #B7931B",
"E  c #9D8129",
"W  c #A78829",
"Q  c #BB8520",
"!  c #B88C28",
"~  c #B99625",
"^  c #A1893E",
"/  c #C19A0F",
"(  c #C28B1A",
")  c #C58917",
"_  c #C9921B",
"`  c #C5991B",
"'  c #CB991C",
"]  c #C4901E",
"[  c #D29E1B",
"{  c #C7A617",
"}  c #D2A514",
"|  c #D3AA13",
" . c #D8AD13",
".. c #D4A61D",
"X. c #D3AE1D",
"o. c #D9AB1C",
"O. c #DAA71F",
"+. c #DCB31B",
"@. c #D9B519",
"#. c #E2BB1E",
"$. c #C3812E",
"%. c #CC9B21",
"&. c #C89523",
"*. c #CCA826",
"=. c #DBAC22",
"-. c #D3AC2B",
";. c #DBAD2C",
":. c #D3A422",
">. c #DDBB22",
",. c #DEBC2A",
"<. c #D6B024",
"1. c #CAA938",
"2. c #DFA731",
"3. c #DEBD34",
"4. c #D3BC3C",
"5. c #E1BA24",
"6. c #E5BB2A",
"7. c #E0B321",
"8. c #E7BF32",
"9. c #DAC128",
"0. c #D3C13B",
"q. c #E6C62C",
"w. c #F2D92F",
"e. c #E8C639",
"r. c #ECD537",
"t. c #ECD33A",
"y. c #F2D535",
"u. c #F1D53A",
"i. c #F3DB3A",
"p. c #9B8D60",
"a. c #9B9071",
"s. c #AFA565",
"d. c #CFBE45",
"f. c #D3BD42",
"g. c #C0BB55",
"h. c #C1B774",
"j. c #CFC041",
"k. c #D1C041",
"l. c #D4C55F",
"z. c #F1CD4C",
"x. c #EAD443",
"c. c #EBD74C",
"v. c #F1DD43",
"b. c #F8DD49",
"n. c #F6DB47",
"m. c #F4E144",
"M. c #F9E243",
"N. c #F5E14A",
"B. c #F9E34A",
"V. c #EFE45E",
"C. c #F9E453",
"Z. c #F4E65B",
"A. c #F6E95C",
"S. c #F8EB5A",
"D. c #F8E55E",
"F. c #F9F055",
"G. c #D4C76A",
"H. c #D1C97F",
"J. c #F9E865",
"K. c #F7F069",
"L. c #E6E475",
"P. c #F7EF70",
"I. c #FBEB74",
"U. c #F7E671",
"Y. c #FCF276",
"T. c #FCF37E",
"R. c #F7F87A",
"E. c #9F9780",
"W. c #B8AC80",
"Q. c #C2AD93",
"!. c #D8CB9D",
"~. c #FBEF8D",
"^. c #F4EA86",
"/. c #FBF580",
"(. c #FBF38C",
"). c #F7F085",
"_. c #F7EE97",
"`. c #FAF59C",
"'. c #FDF895",
"]. c #D6CCAE",
"[. c #D8CEA9",
"{. c #D9D2AE",
"}. c #DCCEB1",
"|. c #F8ECAE",
" X c #FBF5B5",
".X c #FEF9B6",
"XX c #F7FDB0",
"oX c #D4D2C0",
"OX c #F2E9D3",
"+X c #FDFBDC",
"@X c #FBFAD5",
"#X c #FDFAE4",
/* pixels */
"                                                                                                    ",
"                                                                                                    ",
"                                                                                                    ",
"                                                                                                    ",
"                                                                                                    ",
"                                                                                                    ",
"                                                                                                    ",
"                                                                                                    ",
"                                                                                                    ",
"                                                                                                    ",
"                                          = > w 9 $ e % 0 i 4                                       ",
"                                      y C ` f.!.F ^ l.G.!.[.a.4                                     ",
"                                    X l / +.e.(.Q.s.g.R.|.@XoXE.e                                   ",
"                                    0 E ~ ` +.u._.h.p.G.~.'.@X].e a                                 ",
"                                    t ; 5 N { 6.n.^.].4 ^.K.XX{.G .                                 ",
"                                3 , *.Z.|.}., ;.u.A.^.@Xt G..X+XOXi                                 ",
"                                p R o.x.P.H.9 -.>.x.R.+X0 G.~. X+X9                                 ",
"                                f ` o.z.F.L.W.C { q.V..X; d.K._.+Xq                                 ",
"                                s Q o.u.S.(. X9 ~ 6.x.T.; 4.S.`.#X0                                 ",
"                                s Q o.w.J.).(.: ! o.e.R.; 4.S.`.+Xq                                 ",
"                                s Q X.y.D.I.T.: v [ 3./.% 4.S._.#X0                                 ",
"                                f Q =.6.u.D.(.= b ' 3.).= 4.S.`.+Xq                                 ",
"                                m Q X.=.q.M.U.= b _ 8.I.9 f.S.`.#Xq                                 ",
"                                r Q o.+.e.b.N.= b ' 8.D.9 d.B.~.+Xq                                 ",
"                                s Q o.+.8.u.N.= b ' ,.C.- 0.M.I..X-                                 ",
"                                s U o.+.<.q.B.o b ' 5.B.- 0.M.Z.'.;                                 ",
"                                m Q o.o.=.>.b.o v %.5.N.$ 0.n.B.T.>                                 ",
"                                < U O. .=.5.n.= x %.>.M.$ 0.B.C.Y.;                                 ",
"                                s &.O.| =.#.e.+ x ' >.N.$ 4.B.B.J.+                                 ",
"                                s Q [ } =.o.6.o x ' >.B.$ 0.M.v.c.+                                 ",
"                                s U ( } =.X.X.+ x ' >.B.$ 0.M.w.3.+                                 ",
"                                s U P } =.+.X.= A ` >.B.$ 0.N.y.<.#                                 ",
"                                s Q U ` ..o.%.> x ' >.B.$ 0.m.r.:.=                                 ",
"                                s Q ( I _ _ Y & x ' >.B.$ f.m.t.-.:                                 ",
"                                s Q ) P Q P K & A ' 5.B.- 4.m.u.;.:                                 ",
"                                s U U P n Q L s n ' 5.t.> 4.v.q.;.*                                 ",
"                                s Q ( U P n s S U %.@.9.9 4.r.>.;.o                                 ",
"                                < B U $.J v 8 ! P [ +.X.e 1.6.+.;.@                                 ",
"                                    V z c k d v H _ :.Y k R X.{ W q                                 ",
"                                    6 O u Z <.) n ' R s .. .X.~ -                                   ",
"                                      { @.} n ) &.f m | 2.) ( C 9                                   ",
"                                      N x ( ( P M j T &._ ) V r                                     ",
"                                        N B g f > r g h d h 1                                       ",
"                                            7             2                                         ",
"                                                                                                    ",
"                                                                                                    ",
"                                                                                                    ",
"                                                                                                    ",
"                                                                                                    ",
"                                                                                                    "
};
