/* XPM */
static char *_222265799a344659c0a2a14f2d0597dMEKMQGfaTAWKIhyh[] = {
/* columns rows colors chars-per-pixel */
"50 50 234 2 ",
"   c None",
".  c #6B4C1E",
"X  c #724F1A",
"o  c #724D1C",
"O  c #7C481A",
"+  c #6B511C",
"@  c #755512",
"#  c #785212",
"$  c #795813",
"%  c #73521D",
"&  c #7B591E",
"*  c #7A6216",
"=  c #5E4D2A",
"-  c #5E5024",
";  c #664822",
":  c #674E23",
">  c #604925",
",  c #674B25",
"<  c #644E24",
"1  c #684821",
"2  c #694E21",
"3  c #6A4D23",
"4  c #6A4F22",
"5  c #6E4D22",
"6  c #6D4E22",
"7  c #6C4F23",
"8  c #6D4E24",
"9  c #654E2B",
"0  c #684B28",
"q  c #694B29",
"w  c #694C28",
"e  c #714A21",
"r  c #704C21",
"t  c #714D21",
"y  c #714D22",
"u  c #615222",
"i  c #665620",
"p  c #635227",
"a  c #695022",
"s  c #6D5120",
"d  c #615429",
"f  c #63502D",
"g  c #705025",
"h  c #745024",
"j  c #775328",
"k  c #6B5535",
"l  c #705E35",
"z  c #77623C",
"x  c #665541",
"c  c #7B734F",
"v  c #865B11",
"b  c #855A1A",
"n  c #815A1F",
"m  c #825B1E",
"M  c #826717",
"N  c #866811",
"B  c #8C6B16",
"V  c #83611E",
"C  c #89681C",
"Z  c #91671D",
"A  c #93691B",
"S  c #916C19",
"D  c #926C19",
"F  c #916C1B",
"G  c #936A1C",
"H  c #926B1C",
"J  c #926A1F",
"K  c #946B1D",
"L  c #966B1D",
"P  c #95691E",
"I  c #926C1D",
"U  c #956C1E",
"Y  c #9B711F",
"T  c #A07115",
"R  c #A27419",
"E  c #A17D1E",
"W  c #A47E1F",
"Q  c #805D21",
"!  c #845D22",
"~  c #876421",
"^  c #826124",
"/  c #866024",
"(  c #846626",
")  c #876627",
"_  c #896322",
"`  c #8A6521",
"'  c #826F24",
"]  c #896926",
"[  c #8E6628",
"{  c #8D662A",
"}  c #916B23",
"|  c #936B23",
" . c #956B22",
".. c #956A24",
"X. c #946C24",
"o. c #956C25",
"O. c #946D25",
"+. c #926729",
"@. c #867725",
"#. c #87772F",
"$. c #8B702B",
"%. c #8E702C",
"&. c #9F7A24",
"*. c #8B7737",
"=. c #8B7830",
"-. c #8C763F",
";. c #8D773F",
":. c #987831",
">. c #91783E",
",. c #A57620",
"<. c #AA7D21",
"1. c #B27E24",
"2. c #8D7741",
"3. c #887941",
"4. c #8A7951",
"5. c #8B7E58",
"6. c #8B7A5C",
"7. c #BA870B",
"8. c #BC890D",
"9. c #B48316",
"0. c #B88412",
"q. c #B88512",
"w. c #BE8C10",
"e. c #BA8318",
"r. c #B88618",
"t. c #BD871F",
"y. c #BE871E",
"u. c #BC9112",
"i. c #978139",
"p. c #AC8C2B",
"a. c #B88620",
"s. c #B19633",
"d. c #B49635",
"f. c #C28C17",
"g. c #C0871A",
"h. c #C18E18",
"j. c #C48E19",
"k. c #C39114",
"l. c #C29015",
"z. c #C69016",
"x. c #C49119",
"c. c #C4901A",
"v. c #C5901A",
"b. c #C5931A",
"n. c #C79519",
"m. c #C4901D",
"M. c #C4921D",
"N. c #CD9C1B",
"B. c #D8B50F",
"V. c #CEAC1B",
"C. c #CFAF1D",
"Z. c #D6A81C",
"A. c #D4AA1D",
"S. c #D2AF1F",
"D. c #D9AC18",
"F. c #DAAF1A",
"G. c #D9A91E",
"H. c #D8AE1C",
"J. c #DBAD1F",
"K. c #DCAF1D",
"L. c #D7B11A",
"P. c #D8B21A",
"I. c #D8B11E",
"U. c #DBB11E",
"Y. c #CE9722",
"T. c #D6A523",
"R. c #D4A226",
"E. c #D7AB27",
"W. c #DBAB21",
"Q. c #D9AC20",
"!. c #DAAE20",
"~. c #D4AC28",
"^. c #D2AC2F",
"/. c #D8AF2A",
"(. c #DEB322",
"). c #DDB226",
"_. c #DBB028",
"`. c #C5A533",
"'. c #D6B033",
"]. c #E1BE26",
"[. c #E5C22D",
"{. c #E3C533",
"}. c #F3D63E",
"|. c #F5D53C",
" X c #B49E4B",
".X c #B29E4F",
"XX c #B49E4E",
"oX c #B59F4F",
"OX c #B6A14B",
"+X c #B6A04D",
"@X c #B2A151",
"#X c #B3A353",
"$X c #B4A151",
"%X c #B5A353",
"&X c #B5A155",
"*X c #B69F61",
"=X c #B6A369",
"-X c #B6A37F",
";X c #F2DD43",
":X c #F6DE41",
">X c #F3D845",
",X c #F9DE41",
"<X c #F8DF4B",
"1X c #F2E047",
"2X c #F5E840",
"3X c #F4E048",
"4X c #F3E44B",
"5X c #F9E148",
"6X c #F5EE5A",
"7X c #F5ED63",
"8X c #FCEF66",
"9X c #F7ED6F",
"0X c #F9F167",
"qX c #FBEE70",
"wX c #F8ED74",
"eX c #F8EE74",
"rX c #FDED74",
"tX c #FFE778",
"yX c #AEA288",
"uX c #B1A382",
"iX c #B7A580",
"pX c #BAA681",
"aX c #B9A384",
"sX c #B4AA8C",
"dX c #FEF083",
"fX c #FAF387",
"gX c #FEF191",
"hX c #FCF3AB",
"jX c #FDF4AE",
"kX c #FAF5C1",
"lX c #FCF6C7",
"zX c #FFFBD7",
"xX c #FFFCD4",
"cX c #FCF7D8",
/* pixels */
"                                                                                                    ",
"                                                                                                    ",
"                                                                                                    ",
"                                                                                                    ",
"                                                                                                    ",
"                                                                                                    ",
"                                                                                                    ",
"                                                                                                    ",
"                                              i * i.l                                               ",
"                                              M '.tX>.                                              ",
"                                          9 I k.E.2XkX-Xk                                           ",
"                                          q  .k.E.2XkXpX>                                           ",
"                                      : :.& P f.E.2XkXiXz yX                                        ",
"                                      $ ^.B Z k.E.2XkXuX5.zXf                                       ",
"                                      # ~.C +.k.E.2XkXsXc xX=                                       ",
"                                      s G.C } k.B.4XhXaX6.cXd                                       ",
"                                      s H.` H M.I.1XfX=X4.lXp                                       ",
"                                      s H.` S j./.;X0X&X3.jX:                                       ",
"                                      s H.` S b._.:X8X&X#.gX;                                       ",
"                                      s H.` S b.(.,XrX*X@.dX1                                       ",
"                                      j R.{ G z.P.3XqX X2.eX:                                       ",
"                                      h n./ G z.P.3XqXoX2.eX0                                       ",
"                                      r 8.n P z.P.3XqXoX-.9Xq                                       ",
"                                      r 7.Q U z.P.3XeX+X*.7X4                                       ",
"                                      r w.! U z.P.3XqXOX=.6X+                                       ",
"                                      X a.m ..z.P.3XeX@X$.5Xa                                       ",
"                                      X g.! ..z.P.3XqX@X%.>X4                                       ",
"                                      % y.n ..z.P.3XqX+X] {.7                                       ",
"                                      X y.m ..z.P.3XqX$XV C.g                                       ",
"                                      X y.m ..z.P.3XqX.X~ V.7                                       ",
"                                      X t.n o.f.).|.5Xs._ S.7                                       ",
"                                      X t.n  .j.Q.].|.d._ S.7                                       ",
"                                      X t.n X.b.Z.L.[.p._ S.7                                       ",
"                                      X y.m o.j.G.F.I.E _ S.7                                       ",
"                                      X y.m ] b.Q.D.K.W _ S.7                                       ",
"                                      O 1.! +.9.w.A.(.,.N `..                                       ",
"                                        ) % U 0.u.R.Q.<.@ @.                                        ",
"                                          4 Y 0.y.Y.N.,.8                                           ",
"                                            ( T e.y.R ^ x                                           ",
"                                            o v e.a.b r                                             ",
"                                                u -                                                 ",
"                                                                                                    ",
"                                                                                                    ",
"                                                                                                    ",
"                                                                                                    ",
"                                                                                                    ",
"                                                                                                    ",
"                                                                                                    ",
"                                                                                                    ",
"                                                                                                    "
};
