/* XPM */
static char *_a8685d7bb0347e9e3bf648f7f359fb3x2Z2NE7CXQF2hPQ6[] = {
/* columns rows colors chars-per-pixel */
"61 50 189 2 ",
"   c None",
".  c #6D3B16",
"X  c #6D3718",
"o  c #673B1C",
"O  c #6C3D19",
"+  c #693713",
"@  c #713C16",
"#  c #713C19",
"$  c #783F1B",
"%  c #6B4016",
"&  c #66441E",
"*  c #69411D",
"=  c #734116",
"-  c #784717",
";  c #774817",
":  c #73431B",
">  c #7A441B",
",  c #734819",
"<  c #7B4B1B",
"1  c #7E531E",
"2  c #5E4C2A",
"3  c #5F4924",
"4  c #5C522B",
"5  c #5B5330",
"6  c #654523",
"7  c #694323",
"8  c #624A26",
"9  c #684628",
"0  c #634A2A",
"q  c #7A4D23",
"w  c #764B22",
"e  c #63502D",
"r  c #7E5620",
"t  c #604F30",
"y  c #824F1C",
"u  c #8D4B1C",
"i  c #83521D",
"p  c #8A551E",
"a  c #835D1F",
"s  c #8D5C1F",
"d  c #9A561F",
"f  c #92511C",
"g  c #855422",
"h  c #895721",
"j  c #855B22",
"k  c #8B5C22",
"l  c #885A2A",
"z  c #925F21",
"x  c #9D5B22",
"c  c #885F31",
"v  c #AB5E24",
"b  c #8D6222",
"n  c #946223",
"m  c #986725",
"M  c #936B24",
"N  c #9C6C25",
"B  c #9C6D2A",
"V  c #9E7026",
"C  c #9F7029",
"Z  c #9F7B2B",
"A  c #8A6432",
"S  c #926C35",
"D  c #97713A",
"F  c #A06D26",
"G  c #BD6C28",
"H  c #B26624",
"J  c #A37327",
"K  c #A57529",
"L  c #A8772A",
"P  c #A27B2A",
"I  c #AC7E2D",
"U  c #B17F2C",
"Y  c #BF7C2E",
"T  c #A87E3E",
"R  c #C26C29",
"E  c #CD7A2C",
"W  c #CA772B",
"Q  c #D57B2E",
"!  c #DD7F2F",
"~  c #DB7F30",
"^  c #E17F30",
"/  c #A37D46",
"(  c #A5842D",
")  c #AE842D",
"_  c #B3832D",
"`  c #BA8A2F",
"'  c #B5892F",
"]  c #BA8C30",
"[  c #B49533",
"{  c #BB9433",
"}  c #BA9E36",
"|  c #D98030",
" . c #D88F33",
".. c #C29333",
"X. c #C69A34",
"o. c #CB9C36",
"O. c #CB9C38",
"+. c #D19F38",
"@. c #DC9835",
"#. c #ED8633",
"$. c #EE8A34",
"%. c #E18933",
"&. c #F08834",
"*. c #F08634",
"=. c #EE9336",
"-. c #EF9F3A",
";. c #F19737",
":. c #F19E39",
">. c #C7A036",
",. c #C0A638",
"<. c #CFA339",
"1. c #C5A939",
"2. c #CAAC3A",
"3. c #D1A438",
"4. c #DBAD3C",
"5. c #D8A83C",
"6. c #C9B03C",
"7. c #DEB33D",
"8. c #DFB93F",
"9. c #D4B93F",
"0. c #EFA43B",
"q. c #F2A53C",
"w. c #F1AB3D",
"e. c #E2B43E",
"r. c #E4B93F",
"t. c #A7854C",
"y. c #B7944E",
"u. c #BEA15C",
"i. c #C99C43",
"p. c #D7BD40",
"a. c #DEBA48",
"s. c #C3A151",
"d. c #D0AF5A",
"f. c #D2AD54",
"g. c #D6B15E",
"h. c #E5BC41",
"j. c #EBBD41",
"k. c #E9BB49",
"l. c #F2B740",
"z. c #F4BC42",
"x. c #CEAF66",
"c. c #C7A967",
"v. c #D0B368",
"b. c #DABA62",
"n. c #DCBF70",
"m. c #D7C142",
"M. c #DAC542",
"N. c #DEC944",
"B. c #E4C343",
"V. c #EDC243",
"C. c #E5CF46",
"Z. c #EDCC45",
"A. c #E9C24C",
"S. c #E4CF48",
"D. c #F4C644",
"F. c #F6C945",
"G. c #F8CB46",
"H. c #F5CC4B",
"J. c #F8CE48",
"K. c #E4D147",
"L. c #ECD147",
"P. c #E7D648",
"I. c #EBD549",
"U. c #EDDC4B",
"Y. c #F6D147",
"T. c #F8D147",
"R. c #F6D549",
"E. c #F8D449",
"W. c #F3DD4B",
"Q. c #F9DD4B",
"!. c #F2CD51",
"~. c #F6D155",
"^. c #F5D35A",
"/. c #F3E44D",
"(. c #FAE44D",
"). c #F6EA4F",
"_. c #FBEA4F",
"`. c #F7EC50",
"'. c #FCEE50",
"]. c #FCF151",
"[. c #DEC06A",
"{. c #EDCB60",
"}. c #F7D662",
"|. c #F4D66E",
" X c #F6D969",
".X c #E2C575",
"XX c #E9CE7A",
"oX c #ECD37D",
"OX c #F6DA74",
/* pixels */
"                                                                                                                          ",
"                                                                                                                          ",
"                                                                                                                          ",
"                                                                                                                          ",
"                                                                                                                          ",
"                                                                                                                          ",
"                                                4 0 6 6 * * & 6 6 0 5                                                     ",
"                                            6 & O # @ @ . . @ @ # # % & 8                                                 ",
"                                        8 O # O . + O , q q q w . O + . O + 8                                             ",
"                                    4 o @ . . : A t.u.v.n.[.b.d.s.T l : O O O * 2                                         ",
"                                  0 O . . > D c.XXOX|.^.!.!.H.H.H.!.A.i.B , X O O 3                                       ",
"                                3 : O O A c.oXOX~.Y.F.V.z.j.z.D.D.F.H.G.V.X.h : @ O 9                                     ",
"                              2 O O : / .XOX^.F.j.3.' L m n m L ` 3.V.D.F.G.B.( = O O 2                                   ",
"                            0 % @ : t.XX XH.V.X.m < O : : > > # % < M X.V.Y.(.U.) , O # e                                 ",
"                            o . O t.XX}.G.7.L - @ u v G E E W G v u @ - L B._.]./.( . @ *                                 ",
"                          6 O O S .X}.F.5.z @ u R ~ #.$.#.#.$.$.#.| G y . M M.(.(.B.n @ . 8                               ",
"                          O . < x.}.H.4.n @ d Q $.&.#.#.#.*.&.#.#.#.#.Q d : b 8.F.D.o.< . O                               ",
"                        0 # # / |.F.j.C # x | #.#.$.=.;.:.q.q.q.0.;.$.$.%.x O C h.G.D.J . # 6                             ",
"                        % O w v.~.D.{ : u Q #.$.=.w.l.z.D.D.D.D.G.D.D.l.w. .f : ..D.D.<.- . %                             ",
"                      0 O # S {.F.j.k $ R #.$.-.l.D.D.G.D.D.G.Q.Q.(.'._.Q.r.W : k h.F.j.m o O 0                           ",
"                      7 . # y.~.G.O.: f %.$.0.D.F.G.G.E.W.Q.(._.].].].'.].(.j.s > o.G.R.[ o . 8                           ",
"                      7 X w f.F.D.I # H $.w.F.Y.R.(.(._.].].].].].].'.'.'.'.(.{ @ ) R.'.m., O *                           ",
"                      * . g a.G.Z.n $ E q.T.(.(.].].].].].].].].'.(.W.R.T.R.W.9.< N W.].K.i O O                           ",
"                      O X l k.T.L.j > @.Q.'.'.'._.].].].].].].(.R.G.G.G.G.D.G.e.y a W.].P.j . O                           ",
"                      O . l A.Q.R.a 1 r.'.].'.'.].].].]._._.(.R.F.F.F.F.F.F.G.e.g a W._.L.k @ *                           ",
"                      * @ j I.'.U.a i K.].'.'.'.]._.].]._./.Y.F.z.F.F.F.F.F.F.7.i a I.Q.B.h O o                           ",
"                      * . i C.].).M < M.]._.'.'._.].]._.(.G.F.F.F.F.F.F.F.F.F.0.< b Z.J.e.y O O                           ",
"                      & X < m.].`.( = 2.].'.'.].].].]._.Y.D.F.F.F.F.F.F.F.z.G...= L D.F.5.> . *                           ",
"                      & O O ,.'.].1.* ( ).]._._._.]._.Q.F.F.F.D.F.F.F.D.F.D.r.F = ..G.G.{ @ O 3                           ",
"                      8 O . P ).].P.j < 9.].].'.].'._.T.F.F.F.F.F.F.F.F.G.G.+.< i e.G.V.N + # 0                           ",
"                        O @ r K.].`.} O Z U.].'.'.].(.G.F.F.F.F.F.D.D.F.G.j.N : _ D.D.4.i . %                             ",
"                        7 + % [ ].].P.M ; [ /.].].].Q.G.F.F.F.F.F.D.G.D.j.U : k 7.G.D.U . O 7                             ",
"                        5 o O j M.].].p.g : [ U.].].(.G.F.F.F.F.F.F.F.j.I = i +.G.G.4.y . O t                             ",
"                          7 @ O ( /.].).>.i : Z M.).(.G.F.F.F.F.F.z.+.F : y X.D.D.j.F O . &                               ",
"                            O O > } ).(.F.X.z # 1 ( 2.8.h.h.r.4.X.K y @ z O.D.G.D._ : . O 4                               ",
"                            6 % # < ,.(.R.D.e.) i : = < k k s y = @ p _ e.D.D.D.] < $ @ 0                                 ",
"                              8 : . < } Z.D.G.V.7.{ P b 1 1 y s N ] 7.D.D.G.V._ ; O . &                                   ",
"                                7 X O * P 7.F.L.W._._.W.K.8.r.r.D.G.G.G.F.4.K $ O O *                                     ",
"                                  7 # . . a ' 8.(.].].(.E.G.F.F.F.F.D.4.] i O . O 7                                       ",
"                                    7 O . . @ 1 ( 6.M.B.r.V.r.r.4.X.K i . X @ O 8                                         ",
"                                        * % O O o : < h z z k i y @ # O O O O 2                                           ",
"                                          2 7 * . . . . X . . . . @ . * 7 0                                               ",
"                                                9 7 7 * * o O * * 7 8                                                     ",
"                                                                                                                          ",
"                                                                                                                          ",
"                                                                                                                          ",
"                                                                                                                          ",
"                                                                                                                          ",
"                                                                                                                          ",
"                                                                                                                          "
};
