/* XPM */
static char *_ec4df2053b34c4388c3a4e06dc8b864Z0HEO4ZwDKwwsq4z[] = {
/* columns rows colors chars-per-pixel */
"50 50 201 2 ",
"   c None",
".  c #7B4F08",
"X  c #77580E",
"o  c #6C4C16",
"O  c #6C4C1E",
"+  c #714E1B",
"@  c #6C5015",
"#  c #6D511D",
"$  c #76571C",
"%  c #6D4E26",
"&  c #6A4B27",
"*  c #714C26",
"=  c #724D2A",
"-  c #6E5121",
";  c #73502A",
":  c #705324",
">  c #805718",
",  c #825D1A",
"<  c #9F6E0E",
"1  c #8E6C1B",
"2  c #956D1B",
"3  c #97731B",
"4  c #A07B0D",
"5  c #AB7A16",
"6  c #A6771B",
"7  c #A5791B",
"8  c #A5781A",
"9  c #BE7E19",
"0  c #8C6F2E",
"q  c #856728",
"w  c #947624",
"e  c #927924",
"r  c #9D762B",
"t  c #8D6A30",
"y  c #A07C20",
"u  c #A57B2A",
"i  c #AC7723",
"p  c #B6810B",
"a  c #B88E0F",
"s  c #AB8A17",
"d  c #B38513",
"f  c #BB8415",
"g  c #B48A14",
"h  c #BA8A13",
"j  c #B4841B",
"k  c #BD851B",
"l  c #B48A1B",
"z  c #BF891E",
"x  c #BB9B15",
"c  c #BC961E",
"v  c #BF9A1D",
"b  c #BD9316",
"n  c #AF8029",
"m  c #A78C28",
"M  c #A78925",
"N  c #BD8721",
"B  c #B38D25",
"V  c #B49423",
"C  c #BC9521",
"Z  c #BA9824",
"A  c #BB9B2C",
"S  c #A58234",
"D  c #AA893D",
"F  c #B49433",
"G  c #B89330",
"H  c #BFA220",
"J  c #B9A230",
"K  c #C48714",
"L  c #C1851A",
"P  c #C38B1C",
"I  c #C18D16",
"U  c #C59A16",
"Y  c #CD9B15",
"T  c #C3931B",
"R  c #CB971D",
"E  c #C3991D",
"W  c #CC9A1B",
"Q  c #C19116",
"!  c #CBA90E",
"~  c #DCAC0F",
"^  c #CEA915",
"/  c #CDA01D",
"(  c #CFAD18",
")  c #DEA210",
"_  c #DAAD15",
"`  c #D4A21D",
"'  c #D5AC1C",
"]  c #DAAD1C",
"[  c #D7A917",
"{  c #D6B11C",
"}  c #DDB11C",
"|  c #DCB61B",
" . c #E3AC1A",
".. c #C39721",
"X. c #C29823",
"o. c #CD9B22",
"O. c #D09820",
"+. c #D19F2A",
"@. c #CDA122",
"#. c #C9AF20",
"$. c #CBA22A",
"%. c #CAAB28",
"&. c #D4A424",
"*. c #D9A721",
"=. c #D3AA21",
"-. c #DBAD22",
";. c #D4AC2A",
":. c #DCAB2B",
">. c #CEBD2E",
",. c #DCB324",
"<. c #DCB92B",
"1. c #C6A230",
"2. c #D5A632",
"3. c #C9B335",
"4. c #D1BE3D",
"5. c #DCBF33",
"6. c #E1BE2F",
"7. c #E7BF3B",
"8. c #E4C52B",
"9. c #E7CB2C",
"0. c #EACA2F",
"q. c #EAC72E",
"w. c #E3C334",
"e. c #E8C031",
"r. c #E4C932",
"t. c #EACC34",
"y. c #E7C53B",
"u. c #EAC53B",
"i. c #ECC938",
"p. c #E7D736",
"a. c #EED639",
"s. c #EFDD3E",
"d. c #EFD234",
"f. c #F2DE3E",
"g. c #ECE23C",
"h. c #F4E33D",
"j. c #F9E33E",
"k. c #B59C57",
"l. c #B7A04F",
"z. c #C7B84C",
"x. c #D2BA43",
"c. c #D2B44B",
"v. c #D2BC5D",
"b. c #D6C146",
"n. c #E9C740",
"m. c #E9CD41",
"M. c #EDDC43",
"N. c #E9D443",
"B. c #F4DB44",
"V. c #F8DF43",
"C. c #F5DB49",
"Z. c #FADE4A",
"A. c #F2D649",
"S. c #EDD958",
"D. c #F0D957",
"F. c #F2DE58",
"G. c #F4E243",
"H. c #F9E343",
"J. c #F4E941",
"K. c #F4E249",
"L. c #F9E54B",
"P. c #F9E84C",
"I. c #F5EB4B",
"U. c #EFE857",
"Y. c #F7E650",
"T. c #F9E652",
"R. c #F1E75F",
"E. c #FAE75B",
"W. c #F6EA5C",
"Q. c #FBEB5A",
"!. c #F8EE56",
"~. c #D6C468",
"^. c #F5EE63",
"/. c #FCED66",
"(. c #F5EE6A",
"). c #FAED69",
"_. c #FBE661",
"`. c #FBF163",
"'. c #FAF36C",
"]. c #F7EE77",
"[. c #FBEC71",
"{. c #FCEF79",
"}. c #F3EF7E",
"|. c #FCF374",
" X c #FDF27C",
".X c #FDF87E",
"XX c #F6EC82",
"oX c #FEF382",
"OX c #F9F48B",
"+X c #FDF590",
"@X c #FCF99C",
"#X c #FAF39A",
"$X c #FEF6A3",
"%X c #F7F3A1",
"&X c #FCF9B8",
"*X c #FFFBC9",
"=X c #FCF9D5",
"-X c #FEFCDB",
";X c #FCF4D0",
":X c #FEFDE2",
">X c #FEFEEC",
/* pixels */
"                                                                                                    ",
"                                                                                                    ",
"                                                                                                    ",
"                                                                                                    ",
"                                                                                                    ",
"                                                                                                    ",
"                                                                                                    ",
"                                                                                                    ",
"                                                                                                    ",
"                                J c.x.x.x.x.x.x.x.x.x.x.b.                                          ",
"                              H 9.8.9.8.q.t.q.r.t.r.q.9.N.r.N.S._./.                                ",
"                          ] { <.e.` v c C T c c C C E v c b A 1.d.a.!.#X                            ",
"                        $._ -.o.z 9 & + : - - o O - = = = = % 1 >.;.p.^.%X                          ",
"                      @.~ ) R 2 @ # b 5.M.f.B.W.(.].}. X(.|. Xv.$ . B N.U.XX                        ",
"                    7 ] _ P < 2 r u 9 <.J.h.j.'.|.]. X X=X;X$XXX~.~.S Z r.P. X                      ",
"                  0 ..' T 0 3 f K K z y.K.K.V.oXoXoX X X-X>X;X@X|.].z.D F j.[.                      ",
"                  C ` Y k & G Y a k k i.g.K.G. XoXoXoX|.*X-X>X*X$XoX|.k.0 p.Q.|.                    ",
"                  C Y a n X C W K k k i.G.G.j.|. XoXoXoX+X&X-X>X-XOX.Xl.q 3.P.'.                    ",
"                  C W 5 $ $.;.W k k k i.G.K.G.E./.{.oXoX'.OX&X-X:XoX{.oXv.X h.`.                    ",
"                  C O.6 O -.{ R z k f i.h.K.j.h.Y.). X X XoX+X@X$X{.oX).x.$ J.(.                    ",
"                  C R 6 ; ] | W k L k y.J.G.B.h.G.Y.).{.oX{.{. X'..X|.^.x.+ J.).                    ",
"                  c W 6 % -.} W k L f e.j.J.K.K.G.H.T._. XoXoX X XoX`.Q.b.o G./.                    ",
"                  C W 6 % -.} W k L d u.j.j.L.K.f.j.G.L.'. XoXoXoX X!.J.4.% j./.                    ",
"                  c W 6 % ] } W k L f u.V.f.H.K.G.h.h.h.W.'. X X X[.I.h.4.& G./.                    ",
"                  c W 7 * -.} W k k k $.r.B.B.h.G.K.K.G.G.Y.E.Q.Q.E.j.K.x.# H.).                    ",
"                  c W 7 - ] ] R f k k d E 7.B.h.h.G.K.K.j.H.H.H.J.h.L.i.A # G.`.                    ",
"                  c W 7 % ] ,.&.Q k k k d R 7.j.J.K.G.G.B.G.B.G.G.G.N.` 5 $ K.`.                    ",
"                    W 7 % } ] -./ Q f z k d I C.Z.G.h.g.G.G.G.K.G.A.%.h 6 % H.Q.                    ",
"                    W 7 % } ' -.,.' p f P N k h g <.C.L.J.J.H.H.H.X.l k i O G.I.                    ",
"                    W 7 % ] [ ' ] } &.T L P L f d P &.o.W / / / W 9 k L y # j.J.                    ",
"                    W 7 % } -.,.}  .-.` I k k k L L 9 L k k k k k L N I l o h.h.                    ",
"                    Y l $ X.=.' -.] ] -./ T P L k L N L L k L k k T P c B e J.a.                    ",
"                     .O.z - x _ -.-.-.-.-.' ] k k k k k L k k k k [ ,.7 2 D.A.8.                    ",
"                    ]  ._ & A { -.=.' ] ] ' ] ] ] -.*.] ] ] ] -.] _ ' r 3 f.| '                     ",
"                    h -._ 6 r s ^ *._ ] [ ] ] ] _ ] ] _ ] ] { _ _ ( 4 F x.f.( s                     ",
"                    s 2.{ Y 8 e M u ] ] ] -.:.] -.-.-.-.] _ _ $.u S M >.f.r.6.                      ",
"                      X.' :.Y < , $ E T T C C c c c c c ..c Z M e w b.h.9.}                         ",
"                        2.-.} U d h * : * * * * = % * % o = = w F.H.T.w.-.                          ",
"                          ^ ,.-.-.:.@.T g   g d g d d d B d U ' _ ! { |                             ",
"                              l ' :.,.' ` / &.` ` ` ` ` o.&.-.:.+.'                                 ",
"                                                                                                    ",
"                                                                                                    ",
"                                                                                                    ",
"                                                                                                    ",
"                                                                                                    ",
"                                                                                                    ",
"                                                                                                    ",
"                                                                                                    ",
"                                                                                                    ",
"                                                                                                    "
};
