/* XPM */
static char *_8db3e4e28a648d0c2368a7851b9b059HmdB1JQEFbT3KCTr[] = {
/* columns rows colors chars-per-pixel */
"50 50 219 2 ",
"   c None",
".  c #6D4D0F",
"X  c #71510F",
"o  c #664A1D",
"O  c #6B4E1E",
"+  c #6A4F13",
"@  c #734A19",
"#  c #6B511C",
"$  c #6A5716",
"%  c #7D5C1C",
"&  c #795517",
"*  c #7D6117",
"=  c #5F4E2D",
"-  c #53442B",
";  c #5E5035",
":  c #654D26",
">  c #6A4D23",
",  c #644C2B",
"<  c #6C4E29",
"1  c #714B25",
"2  c #6A5122",
"3  c #645129",
"4  c #655423",
"5  c #73532B",
"6  c #7A5B25",
"7  c #6B5337",
"8  c #7B4A35",
"9  c #825D1D",
"0  c #895A18",
"q  c #89630F",
"w  c #86631D",
"e  c #85681D",
"r  c #886A1B",
"t  c #886319",
"y  c #936A14",
"u  c #92641D",
"i  c #946B1D",
"p  c #916615",
"a  c #8C7518",
"s  c #93721A",
"d  c #9A771A",
"f  c #936C0B",
"g  c #A67D15",
"h  c #A6761C",
"j  c #A27A1D",
"k  c #AC7C19",
"l  c #B67D1B",
"z  c #815D21",
"x  c #8B5E20",
"c  c #8B6525",
"v  c #886827",
"b  c #946B23",
"n  c #956828",
"m  c #97782A",
"M  c #8B7436",
"N  c #927A33",
"B  c #917C3B",
"V  c #937737",
"C  c #8D6B37",
"Z  c #A67521",
"A  c #A97725",
"S  c #A27D22",
"D  c #AA7B28",
"F  c #A8772B",
"G  c #A26D36",
"H  c #8F7C4E",
"J  c #8E7C58",
"K  c #97811A",
"L  c #B3850C",
"P  c #BC8A0F",
"I  c #BF940A",
"U  c #A9891B",
"Y  c #B68513",
"T  c #BC8516",
"R  c #BB8A14",
"E  c #B6841C",
"W  c #BD841A",
"Q  c #BC8A1B",
"!  c #BC931C",
"~  c #BD9217",
"^  c #94803D",
"/  c #AE8C23",
"(  c #A88627",
")  c #BB8521",
"_  c #B68A27",
"`  c #BB9423",
"'  c #BD9829",
"]  c #AF9931",
"[  c #AB9538",
"{  c #B19A34",
"}  c #B29531",
"|  c #AA9B28",
" . c #BEAA31",
".. c #C38B15",
"X. c #C1841C",
"o. c #C28C1B",
"O. c #C78912",
"+. c #C39217",
"@. c #CA9316",
"#. c #CC9B15",
"$. c #C6941B",
"%. c #C39A1C",
"&. c #CC9B1B",
"*. c #C49716",
"=. c #C68C0C",
"-. c #D7AE0D",
";. c #CDA41B",
":. c #CAA617",
">. c #D4AB14",
",. c #D9AD14",
"<. c #D3A41C",
"1. c #D6AB1C",
"2. c #DAAC1D",
"3. c #DCB21B",
"4. c #D7B517",
"5. c #CFB71A",
"6. c #E0AE19",
"7. c #E1B216",
"8. c #C38C22",
"9. c #C08621",
"0. c #C39521",
"q. c #CD9A23",
"w. c #C69A23",
"e. c #D99F22",
"r. c #CEA621",
"t. c #D2A423",
"y. c #DCA422",
"u. c #D5AB23",
"i. c #DBAC23",
"p. c #DBAB2C",
"a. c #D5AB2B",
"s. c #D3B324",
"d. c #D9B025",
"f. c #D8B72B",
"g. c #CDA834",
"h. c #D9AC31",
"j. c #C6B736",
"k. c #D3BE3E",
"l. c #D7B535",
"z. c #E2AE22",
"x. c #E1BD2C",
"c. c #E4BB35",
"v. c #D1C03C",
"b. c #DBCB2D",
"n. c #EBC72D",
"m. c #E6CA2A",
"M. c #EEDC2F",
"N. c #E5C434",
"B. c #ECCA39",
"V. c #E8C73A",
"C. c #EDD535",
"Z. c #F2DB3D",
"A. c #F4DA34",
"S. c #F4E33C",
"D. c #F0E134",
"F. c #9F8341",
"G. c #AC9950",
"H. c #B49F54",
"J. c #B99B52",
"K. c #B3A255",
"L. c #938868",
"P. c #AE9F72",
"I. c #D4BB43",
"U. c #C7B059",
"Y. c #C2B661",
"T. c #DAC343",
"R. c #D4CA5E",
"E. c #ECC642",
"W. c #EDD945",
"Q. c #F5DF44",
"!. c #F5D849",
"~. c #EDD651",
"^. c #F3DE5C",
"/. c #E8CC57",
"(. c #F4E243",
"). c #F9E344",
"_. c #F4E947",
"`. c #F5E249",
"'. c #F9E24B",
"]. c #F7E94F",
"[. c #F5E452",
"{. c #F6E952",
"}. c #FBE75E",
"|. c #FAE95B",
" X c #F8F15B",
".X c #D6C868",
"XX c #D6CD75",
"oX c #E4D663",
"OX c #E5DA78",
"+X c #F6EA64",
"@X c #FBEE66",
"#X c #FCEF6D",
"$X c #F7EF68",
"%X c #FEF167",
"&X c #FAED7C",
"*X c #FFEA74",
"=X c #FCF274",
"-X c #FCF37B",
";X c #F9F77C",
":X c #B5A080",
">X c #C3BAA2",
",X c #EAD980",
"<X c #E7DF9F",
"1X c #FEEE83",
"2X c #FDF482",
"3X c #FCF38C",
"4X c #F9F584",
"5X c #FCF394",
"6X c #FCF599",
"7X c #E9DFA0",
"8X c #FEFBAC",
"9X c #FEFABE",
"0X c #FBF7B5",
"qX c #FBF9C8",
"wX c #FDFADD",
"eX c #FBF5DA",
"rX c #FCFDE3",
"tX c #FEFDE8",
"yX c #FEFCF2",
/* pixels */
"                                                                                                    ",
"                                                                                                    ",
"                                                                                                    ",
"                                                                                                    ",
"                                                                                                    ",
"                                                                                                    ",
"                                                                                                    ",
"                                                                                                    ",
"                                                                                                    ",
"                                    . . $ $ $ # # # # o $ $ O o 4 o 2 ,                             ",
"                                3 < u.u.B.!.Q.2X2X2X2X2X1X3XH.# : rXwX:X;                           ",
"                              U *.0.1.n.Z.)._.].].].[.{._.-XOXR.XXJ OX<X>X$                         ",
"                            M ~ 1.,.b. .[ [ | ] ] ] ] | m.^.+X@X=XK.K.XX<XP.                        ",
"                          p %.>.r.' j.K & v m ^ B B B ^ ' g.T.~.@X-XG.G.XX9X5                       ",
"                        3 -.d.d.' & 8 G ) ;.!.=X2X3X2X2X5 X U l.S.;X4XH.M 6X5 -                     ",
"                        4 y.,.j 9 ( 4.I p.!.S.{.+X&X&X&X;X4XJ.r l.W.+XH.B ;XeXL.                    ",
"                      r ` 2.m d l ;.+.x.W.`.S.`.@X-X5X9XqX6XOXU.r x.Q./.Y.B tXL.                    ",
"                      r y.4.v n 8.-.W B.(.(.(.(.%X-X3X0XwX9X6XXX: f.A.@XXX# tXH :                   ",
"                      r u./ b h &.&.W B.(.(.S.S.|.=X-X2XrXyX8XoXF.( x.^..X# tXH 3                   ",
"                      r u.O g #.;.) W B.(.).Z.S.[.}.%X=XqXtX0X4X=X& ! /..X3 tXH 3                   ",
"                      r u.4 k 0.r.X.T B.(.(.).(.(.).{.1X3XqXeXqX;X> ` ~..X# tXH 3                   ",
"                      r i.2 A &.t.X.X.E.Q.(.(.`.Q.Z.|.*X;X3X6X5X-X> ! B.T.# 6XB                     ",
"                      r p.> A &.t.T X.y.V.).).Q.Z.S.].+X&X-X1X1X-X# ~ n.k.O -XN                     ",
"                      c q.> A &.;.T l L f.!.(.(.(.S.S.(.$X=X2X2X2X> ! n.k.O -XN                     ",
"                      w Q > A #.<.$.X.T h.!._.(.(.S.S.Z.{.@X#X=X=X# ! n.I.# -XB                     ",
"                      % ) < D #.i.y.T X.T r.(.(.(.`.`.`.).(.'.'.`.> ! n.k.> -XN                     ",
"                      z ) 2 h #.u.2.Q T T Q q.(.(.`.`.(.`.Q.(.).).# ! n.k.O -Xm                     ",
"                      9 E 2 h ;.i.3.q.o.T T o.s.B.'.].).Q.).).C.f.: ! n.k.# &XN                     ",
"                      9 Q 5 h q.d.2.p.<.o...T L a.E.E.V.N.V.E.l.~ O ! n.k.> &XN                     ",
"                      z ) 2 A @.r.2.2.i.&.X.W 8.Q Y R R Q Q ) Q T > ! n.k.# #XN                     ",
"                      9 ) : Z P *.2.,.3.&.T X.l W X.W T T T T @.z.> ~ n.k.#  Xs                     ",
"                      z W < d Q +.2.2.1.1.&...T T W W T O.9.*.<.u.@ w.m.k.O _.a                     ",
"                      9 W ( y k 8.q.i.1.2.<.&.q.o.T W T #.q.#.%.j g g.N.k.+ (.a                     ",
"                    = w 9.t.u c Y ) ;.<.i.d.2.2.#.+.+.o.5.,...Z o 4.c.C.k.: (.a 7                   ",
"                      6 A ..0 n _ L P q.y.i.1.7.,.1.i.z.:.*.) F & u.A.M.j.v C.s 7                   ",
"                      = 6 X.Q i 9 Q Y Q Q *.1.2.@.T W W X.Q b y a.2.A.{ ^ W.3.q 7                   ",
"                        : W T o._ % 0 Z T o.8.8.X.W W W z 6 S %.2.p.D.[ v f.v                       ",
"                          y ) =.@.S U r b i f b b n b b d j ! 2.i.2.w.( U u.4                       ",
"                          : C k =.e.:.k 9 c r w e w r c 6.i.2.1.<.w.m ( s.~                         ",
"                            - v _ 9.X.e.7.,.1.2.3.3.3.3.z.7.3.a.s.. ' p.} O                         ",
"                              , > @ W Y Q Q Q W W X.W W E R i 1 2 s.y @ :                           ",
"                                    w 9 w w t w 9 w w w t t % 2 2 v                                 ",
"                                                                                                    ",
"                                                                                                    ",
"                                                                                                    ",
"                                                                                                    ",
"                                                                                                    ",
"                                                                                                    ",
"                                                                                                    ",
"                                                                                                    "
};
