/* XPM */
static char *_e74c76ec4854d25fb65a1f0ae3e6d13u2gaIyXOr2aqyZFw[] = {
/* columns rows colors chars-per-pixel */
"50 50 125 2 ",
"   c None",
".  c #000000",
"X  c #0C0601",
"o  c #0C0B02",
"O  c #060608",
"+  c #0B0C0C",
"@  c #140B02",
"#  c #190802",
"$  c #131103",
"%  c #191705",
"&  c #0D0E12",
"*  c #121213",
"=  c #1B1513",
"-  c #15191A",
";  c #1D1D1D",
":  c #2D0D03",
">  c #261008",
",  c #3E1306",
"<  c #292607",
"1  c #262309",
"2  c #2A2709",
"3  c #2D290B",
"4  c #312D0B",
"5  c #36320D",
"6  c #39350D",
"7  c #3D380E",
"8  c #222116",
"9  c #1D1E20",
"0  c #222222",
"q  c #2C2C2C",
"w  c #323334",
"e  c #3C3C3C",
"r  c #4A190A",
"t  c #521B0A",
"y  c #581E0C",
"u  c #55291B",
"i  c #503A34",
"p  c #4A440F",
"a  c #4C4611",
"s  c #544D13",
"d  c #575014",
"f  c #5C5515",
"g  c #5D561F",
"h  c #655D17",
"j  c #665E18",
"k  c #685F18",
"l  c #686017",
"z  c #6A6118",
"x  c #746B1A",
"c  c #786F1D",
"v  c #7F751D",
"b  c #49462D",
"n  c #64453C",
"m  c #6C6628",
"M  c #78702C",
"N  c #66623D",
"B  c #3F4141",
"V  c #424243",
"C  c #4C4A41",
"Z  c #464848",
"A  c #4C4C4C",
"S  c #555555",
"D  c #5D5D5D",
"F  c #7A7758",
"G  c #7E7A5E",
"H  c #626262",
"J  c DimGray",
"K  c #7F7C62",
"L  c #7D7D7C",
"P  c #A23715",
"I  c #AE3B17",
"U  c #B23E1A",
"Y  c #B9421D",
"T  c #81761E",
"R  c #D5491C",
"E  c #E44E1F",
"W  c #EB501F",
"Q  c #FB5521",
"!  c #8D8221",
"~  c #9A8E24",
"^  c #9C9024",
"/  c #A69926",
"(  c #AA9D27",
")  c #A2962E",
"_  c #AD9F28",
"`  c #B5A72A",
"'  c #B6A82A",
"]  c #B9AA2B",
"[  c #BFB02C",
"{  c #C3B32D",
"}  c #CBBB2F",
"|  c #C3B430",
" . c #D4C331",
".. c #DCCB33",
"X. c #E5D335",
"o. c #E9D636",
"O. c #ECD936",
"+. c #F0DD37",
"@. c #F1DE38",
"#. c #F6E239",
"$. c #F9E63A",
"%. c #FFEC3B",
"&. c #FFF23C",
"*. c #828282",
"=. c #8A8A82",
"-. c #868788",
";. c #8B8B8B",
":. c #929293",
">. c #939393",
",. c gray58",
"<. c #959595",
"1. c gray59",
"2. c #979797",
"3. c #949495",
"4. c gray60",
"5. c gray61",
"6. c gray62",
"7. c #A09997",
"8. c #A0A0A0",
"9. c gray63",
"0. c #A2A2A3",
"q. c gray64",
"w. c #B4B3B3",
"e. c #B2B2B3",
"r. c #C2C1C1",
/* pixels */
"                                            0 * * 0                                                 ",
"                                            + . X = r.                                              ",
"                                            + # I Y i B                                             ",
"                                            * > E W : O w.                                          ",
"                                              7.u t P U n Z                                         ",
"                                                - X R Q , . 5.                                      ",
"                                            D A + . r y # . e S D S 5.                              ",
"                                            + . . . . . . . . . . . J                               ",
"                                        J H D D D D D D D D D D D D H H 2.                          ",
"                                        . ; 4.9.7.q.9.9.9.9.9.0.9.q.S . S                           ",
"                                        . 0 1.5.9.5.8.5.5.5.8.5.5.9.D . S                           ",
"                                        O 0 1.9.9.9.9.8.9.9.9.9.9.9.S . S                           ",
"                                      D . * S S S S S S S S S S S S q . w *.*.*.                    ",
"              9 . . . . .           . . . . . . . . . . . . . . . . . . . . . . q                   ",
"            =.m h h h h h G       D . . . . . . . . . . . . . . . . . . . . . . ; ;.                ",
"          & % ..%.&.&.%.%.h . . . . . . . . . . . . . . . . . . . . . . . . . . . . ;               ",
"          g h o.%.] ( o.%.~ d 3 . . . . . . . . . . . . . . . . . . . . . . . . . . *               ",
"      + 2 o.%.%.#.6 . ' &.%.%.v . . . . . . . . . . . . . . . . . . . . . . . . . . . . *           ",
"      O 2 O.$.{ ( 1 . T ] X.&.v . . . . . . . . . . . . . . . . . . . . . . . . . . . . *           ",
"      O 2 O.o.1 . . . . . ^ &.T . . . . . . . . . . . . . . . . . . . . . . . . . . . . +           ",
"      O 3 O.O.s 5 o . 2 6 ! } h . . . . . . . . . . . . . . . . . . . . . . . . . . . . +           ",
"      O < O.%.$.o.3 . ( $.z X . . . . . . . . . . . . . . . . . . . . . . . . . . . . . . + +       ",
"      w b |  .%.#.f 3 { %.h . . . . . . . . . . . . . . . . ; q q q ; . . . + q q q q O . . O       ",
"          8 2 ..%.O.O.$.%.h . . . . . . . . . . . . . . . . >.        . . . e         ; . . X       ",
"          * % ..%.%.%.%.%.h . . . . . . . . . . . . . . . .           . . . V         0 . . O       ",
"          * % ..%.%.%.%.%.h . . . . . . . . . . . . . . . .           . . . e         0 . . O       ",
"          * % ..%.%.%.%.%.h . . . . . . . . . . . . . . . .           . . . V         0 . . X       ",
"          * $ ..%.%.%.%.%.h . . . . . . . . . . . . . . . O q.        . . . e         0 . . O       ",
"          8 2 ..%.+.O.$.%.h . . . . . . . . . . . . . . . . 9.        . . . V         0 . . O       ",
"      w b |  .$.#.f 4 { &.l . . . . . . . . . . . . . . . . 9.        . . . e         0 . . X       ",
"      O < O.%.#.o.4 . ( $.j X . . . . . . . . . . . . . . O 4.      *.. . . e         0 . . O       ",
"      O 2 O.O.d 6 o . 2 7 ! { h . . . . . . . . . . . . . . 0 e e e 0 . . . + e e e w O . . .       ",
"      O 2 O.o.1 . . . . . ~ &.T . . . . . . . . . . . . . . . . . . . . . . . . . . . . . O O       ",
"      O 2 O.$.] ( 1 . v ] X.&.T . . . . . . . . . . . . . . . . . . . . . . . . . . . . +           ",
"      O 3 o.%.%.$.5 . ' &.%.%.T . . . . . . . . . . . . . . . . . . . . . . . . . . . . +           ",
"          g l o.%.' / X.%.^ s F 9.H . . . . . . . . . . . . . . . . . . . . . . . . . . +           ",
"          & $ ..&.%.%.%.%.h . L   1.. . . . . . . . . . . . . . . . . . . . . . . . . . &           ",
"            =.m l z z z l G :.    1.. . . . . . . . . . . . . . . . . . . . . . . . + *.            ",
"              ; . . . . . 1.      >.. . . . . . . . . . . . . . . . . . . . . . . . ;               ",
"              1.L *.*.*.*.          *.D . . . . . . . . . . . . . . . . . . . . - L ;.              ",
"                                      e.. . . . . . . . . . . . . . . . . . . . q                   ",
"                                    -.K M f X . . . . . . . . . . . . . 2 c c c M L <.              ",
"                                  1.. a %.} o . . . . . . . . . . . . . d %.%.%. .o -               ",
"                                    . a $.X.z l j j j j j j l h 3 . 3 h ~ %.%.%. .@ -               ",
"                                    . a $.%.%.%.%.%.%.%.%.%.%.%.x . x %.%.%.%.%. .$ ;               ",
"                                    . a $.%.%.%.%.%.%.%.%.%.%.%.x . x %.%.%.$.%. .@ -               ",
"                                    . p %.%.%.&.&.%.%.%.&.%.&.&.x . x &.&.&.&.&. .o -               ",
"                                    Z N ` ` ' ` ' ` ` ` ' ' ' [ s . s ' ' ' ` ] ) b D               ",
"                                        O O . X X . . . . o . . . . . . X X . . q                   ",
"                                        0 8 9 ; 9 ; 0 9 ; 0 ; 9 9 9 0 ; 9 ; 9 ; Z                   "
};
