/* XPM */
static char *result[] = {
/* columns rows colors chars-per-pixel */
"50 50 207 2 ",
"   c #24223E",
".  c #2B223E",
"X  c #232939",
"o  c #34233E",
"O  c #3B243F",
"+  c #42273F",
"@  c #2E1F41",
"#  c #252243",
"$  c #2B2342",
"%  c #262947",
"&  c #292A47",
"*  c #26254C",
"=  c #2A254C",
"-  c #27294B",
";  c #2B2A4C",
":  c #332342",
">  c #3B2442",
",  c #34264C",
"<  c #3B294D",
"1  c #38284A",
"2  c #2F324B",
"3  c #262652",
"4  c #2A2652",
"5  c #252953",
"6  c #2B2A54",
"7  c #272959",
"8  c #2B2B5B",
"9  c #28275A",
"0  c #322C5D",
"q  c #312E56",
"w  c #2C3054",
"e  c #2D325D",
"r  c #323354",
"t  c #34325A",
"y  c #3D395A",
"u  c #39365A",
"i  c #31344C",
"p  c #2C2E62",
"a  c #2C2F69",
"s  c #272E60",
"d  c #342E66",
"f  c #332D69",
"g  c #2D3263",
"h  c #2E3965",
"j  c #2D336B",
"k  c #2D3B6D",
"l  c #353365",
"z  c #35326C",
"x  c #39326C",
"c  c #333A6E",
"v  c #3A3566",
"b  c #2E3470",
"n  c #2F3B73",
"m  c #2F3E7A",
"M  c #3D3472",
"N  c #313B74",
"B  c #3E367C",
"V  c #323E7A",
"C  c #373677",
"Z  c #442642",
"A  c #492643",
"S  c #452845",
"D  c #4C2944",
"F  c #462C48",
"G  c #512741",
"H  c #532944",
"J  c #5C2B45",
"K  c #522C48",
"L  c #5B2B47",
"P  c #4B314C",
"I  c #5C334A",
"U  c #5A3449",
"Y  c #423E5E",
"T  c #5B3A53",
"R  c #553750",
"E  c #652B45",
"W  c #6B2C45",
"Q  c #612D49",
"!  c #722E46",
"~  c #623046",
"^  c #6C3147",
"/  c #65314A",
"(  c #6D334A",
")  c #633C4E",
"_  c #6C3A4E",
"`  c #74334B",
"'  c #7B354B",
"]  c #753A4D",
"[  c #7A3B4D",
"{  c #783047",
"}  c #633E55",
"|  c #6C3550",
" . c #743A51",
".. c #7D3D51",
"X. c #423D65",
"o. c #413B7D",
"O. c #2F437A",
"+. c #334274",
"@. c #35437B",
"#. c #354A7E",
"$. c #43405C",
"%. c #7C4453",
"&. c #42416F",
"*. c #444474",
"=. c #4B4477",
"-. c #46457A",
";. c #4B4778",
":. c #56527A",
">. c #595979",
",. c #544F75",
"<. c #813B4E",
"1. c #833D51",
"2. c #844254",
"3. c #8A4655",
"4. c #8C4956",
"5. c #8D4659",
"6. c #8E4A59",
"7. c #834D58",
"8. c #934D5B",
"9. c #944B5B",
"0. c #86515A",
"q. c #95525E",
"w. c #99515D",
"e. c #964C60",
"r. c #955360",
"t. c #995060",
"y. c #3E3680",
"u. c #403681",
"i. c #443B85",
"p. c #463D8A",
"a. c #493C8D",
"s. c #4A3D91",
"d. c #364682",
"f. c #394684",
"g. c #364A83",
"h. c #3A4B85",
"j. c #364C8B",
"k. c #3B4C8C",
"l. c #3C528D",
"z. c #395589",
"x. c #3C5394",
"c. c #3C5A94",
"v. c #3C5B99",
"b. c #3C5699",
"n. c #3F609C",
"m. c #3F638B",
"M. c #3F63A2",
"N. c #4B4384",
"B. c #4C448C",
"V. c #4D498E",
"C. c #46408B",
"Z. c #554E8B",
"A. c #524A84",
"S. c #5D5688",
"D. c #4E4892",
"F. c #524D93",
"G. c #554E98",
"H. c #415B96",
"J. c #55509A",
"K. c #585599",
"L. c #615D87",
"P. c #625B95",
"I. c #625A9D",
"U. c #42629B",
"Y. c #456A9F",
"T. c #666485",
"R. c #6C679D",
"E. c #5D5BA3",
"W. c #605FA7",
"Q. c #4566A5",
"!. c #446AA4",
"~. c #456CA9",
"^. c #496AA7",
"/. c #4671AD",
"(. c #4A73AC",
"). c #4978A8",
"_. c #4D76B4",
"`. c #4A7AB4",
"'. c #4E7AB8",
"]. c #6160A7",
"[. c #6465AA",
"{. c #666AAE",
"}. c #696CAF",
"|. c #6D67A2",
" X c #726BA3",
".X c #726FAE",
"XX c #6A6EB1",
"oX c #666AB1",
"OX c #6B70B3",
"+X c #7A7BB4",
"@X c #7A77B3",
"#X c #4F80BB",
"$X c #7F80BA",
"%X c #4F84C0",
"&X c #5085C2",
"*X c #5088C5",
"=X c #8585BA",
"-X c #8A89BC",
";X c #938CBB",
":X c #9B97BC",
">X c #A19DC1",
",X c #A5A5C5",
"<X c #A9A6C6",
"1X c #ACABC6",
"2X c #A5A5C8",
"3X c #B0ACC4",
"4X c None",
/* pixels */
"4X4X4X4X4X4X4X4X4X4X4X4X4X4X4X4X4X4X4X4X4X4X4X4X4X4X4X4X4X4X4X4X4X4X4X4X4X4X4X4X4X4X4X4X4X4X4X4X4X4X",
"4X4X4X4X4X4X4X4X4X4X4X4X4X4X4X4X4X4X4X4X4X4X*.*.;.>.:.>.4X4X4X4X4X4X4X4X4X4X4X4X4X4X4X4X4X4X4X4X4X4X",
"4X4X4X4X4X4X4X4X4X4X4X4X4X4X4X4X4X4X4Xi i & K.XX$X,X-XT.& 2 i 4X4X4X4X4X4X4X4X4X4X4X4X4X4X4X4X4X4X4X",
"4X4X4X4X4X4X4X4X4X4X4X4X4X4X4X4X4X4X).`.Y.e N.oX+X,X+XM +.).#Xm.4X4X4X4X4X4X4X4X4X4X4X4X4X4X4X4X4X4X",
"4X4X4X4X4X4X4X4X4X4X4X4X4X& = * & 8 x.M.~.k.v [.$X2XR.e Y.M.M.g.; - * ; & 4X4X4X4X4X4X4X4X4X4X4X4X4X",
"4X4X4X4X4X4X4X4X4X4Xu i h c.v.c.h 6 j.H.x.@.l {.+X2XR.8 g.x.x.@.3 +.c.v.z.8 y r 4X4X4X4X4X4X4X4X4X4X",
"4X4X4X4X4X4X4X4X6 8 8 9 d.`.`./.c 6 k.x.x.V 0 W.+X,XP.6 f.x.x.@.* j.'.`.~.k 6 7 8 4X4X4X4X4X4X4X4X4X",
"4X4X4X4X4X4X4Xe #.`.@.5 z x.x.x.g 7 k.x.x.N 6 G.+X>XA.6 f.x.H.@.3 @.x.x.k.p 8 c.(.c e 4X4X4X4X4X4X4X",
"4X4X4X4X4X4Xh !.'.Q.U.8 8 d.k.k.j 5 V f.d.j 6 i.[. Xo.4 b h.f.j 5 V k.k.C 7 n /.Q.#Xz.w 4X4X4X4X4X4X",
"4X4X4X4X4Xw H.!.v.c.j.a 6 p j j 6 6 a b j f 8 f C.i.9 f f b j p 3 8 j j g 7 j x.b.v.(.#.; 4X4X4X4X4X",
"4X4X4X4X6 g c.x.x.x.V 8 # 4 9 4 # * p j a a 6 f i.o.9 d a a j 8 # * 9 6 4 * a d.b.x.v.z.8 6 4X4X4X4X",
"4X4X4X6 z 8 g #.l.d.8 % $ $ $ # # # ; , 4 5 * 4 o.x @ 4 3 ; ; =   # $ $ $ # * j h.h.+.8 g g 4X4X4X4X",
"4X4X4Xh `.c.5 h j a * # > J J Z # $ H E G . # # ; # # # O J J A $ $ D J H $ # 5 j k g g /.n.- 4X4X4X",
"4X4X4X+.v./.g.6 7 5 $ # A ` ` W : A ! ' ! A ; x $ = x $ J ! ` W O Z ! ' E > # # 7 7 6 n.Q.c.+.4X4X4X",
"4X4X6 c.v.v.v.5 # . : . Q 5.9.` : D 2.8.1.A q a.6 x i.$ L 5.9.` : Z ..t.1.D $ O #   h Q.x.n.#.- 4X4X",
"4X4Xe m k.x.n 4   + H . | t.t. .. D 6.q.5.A ; J.u ;.B.# / q.r.1.: Z 4.w.9.K : H o # 7 d.c.j.z 6 4X4X",
"4X4X6 s z b 8 # Z W H . / w.q.[ : D 4.w.4.+ ; I.Y :.V.# ~ q.q.[ : S 4.q.4.H : W J : * p C g s 8 4X4X",
"4X4X6 5 8 6 * . L ! L $ ( q.q.[ $ D 4.t.4.A = P.Y ,.C.@ ~ 8.q.2.: + 3.w.4.H $ W ` D # 4 7 7 5 w 4X4X",
"4X4Xl a 7 * @ O ` 3.L   ( q.q.] $ D 4.q.3.A =  XY L.Z.@ ~ 8.q.%.: S 4.q.4.D : ( 3.Q o # - s a 6 4X4X",
"4X4X+.`.n.s & H 2.8.L . ^ q.q.[ : D 4.r.4.+ 4  XX.>.S.@ ~ 8.q.<.: S 2.r.4.H : ] 8...> % N (.~.g 4X4X",
"4X& V Q./.h.# H 8.8.L : _ 8.t...: H 8.w.6.A 4  XY T.Z.@ ~ w.q.2.: A 5.t.9.K @ ' w.1.> * U.~.U.g 4X4X",
"4X- C H.b.@.# S 3.6.D # L 9.8.| $ Z 2.w.%.> * P.y :.;.# K 6.8.] : > 1.t.1.A @ Q 8. .: 3 k.H.k.d 4X4X",
"4X% b l.x.C # $ K U o   o U ) >   . D ) D . # 6 = 6 =   o U ) O     A ) P @   O I S   6 f.x.k.s 4X4X",
"4X- j m V j # q z f z z M x f M z z x z x z z x = q z z z x z x x x x z x v o.X.x l ; 3 n V V p 4X4X",
"4X4X8 g s 9 6 Z.W.W.W.W.W.W.W.W.].].W.[.].].W.W.q &.[.].].W.].].W.W.W.@X@X;X;X;X.XE.-.= 7 s g w 4X4X",
"4X4X; * = $ 6 E.OXXXOXXXXXXXXXXXXXXXXXXX}.}.}.oXr *.XXOXXXXXOXXXXXXXXX=X;X<X3X3X=XoXV.$ = * 3 ; 4X4X",
"4X; n v.n.k 9 G.oXXXXXXXOXXXXXXXXXXXXXXXXXXXXXoXr ;.OXOXXXXXXXXXXXOXXX-X-X<X3X<X$X].C.5 h.n.c.g 4X4X",
"4X& #.`._.f.8 i.J.G.G.G.J.J.J.J.J.J.J.J.J.J.F.G.8 v J.J.J.J.J.J.J.G.G.K.I.|.|. XK.D.B 8 H.'.^.h 4X4X",
"4X; n l.l.N = x u.u.u.u.u.y.y.B u.u.u.u.o.y.B B = 8 y.y.y.u.u.o.u.u.y.o.o.B y.B y.B p 6 f.l.j.e 4X4X",
"4X* b x.b.n * # , , = 4 = < < , 4 = , < , = * ; # * 3 @ 4 < < , 3 = , < , = 3 , < , # 3 h.x.j.g 4X4X",
"4X* j d.g.z # > E E O   + W E G . > E E E : @ x 6 d d @ Z E E G . o J W E O . A W H . = V f.@.p 4X4X",
"4X= p j a 7 # D ! <.G @ E <.<.E : A { 1.! Z 4 o.4 d o.@ G <.1.W : A ! 1.! A : E ' W O * s a a 8 4X4X",
"4X4X6 * 4 # # H 4.4.L $ ~ 8.q.` : A 3.t.2.Z ; P.Y ,.A.@ Q 4.q.[ o Z <.r.2.H $ ` 8.[ > # - 3 * w 4X4X",
"4X2 g #.g.8 # H 6.q.J # ( q.q.] $ D 5.w.4.A 4 R.Y L.Z.# ~ 8.w.%.: Z 4.w.6.H $ [ q.2.> # c g.+.e 4X4X",
"4X* g.%X%Xj.# H 6.q.L @ ^ q.q.] $ D 6.t.4.Z 4 G.t =.N.# Q 8.t.1.: > 4.w.6.D $ [ q.2.> 5 !.%X'.j 4X4X",
"4X$ b c.x.V # H 8.8.I $ _ w.q...: D 9.w.3.D 4 G.t =.i.@ ) 8.w.2.> Z 5.w.9.K @  .w.2.> 6 f.b.k.e 4X4X",
"4X- N l.x.N # > _  .A   A 2.7.K @ O _ 0._ : $ M q l d   A %.0.L $ : _ 0._ O . G 7.L $ 5 g.x.k.p 4X4X",
"4X% c x.x.N * $ q < @ 3 = < < , = = , < , 4 = 6 & $ 4 = = , < , 4 4 < < , = 4 = < , # * f.b.k.g 4X4X",
"4X& j f.j.z ; B F.V.V.V.V.V.V.V.D.D.V.V.V.V.V.V.6 v D.G.V.V.B.V.V.Z.V.F.F.P.P.P.F.V.l = V k.d.8 4X4X",
"4X- p j a 8 0 E.XXoXXXXX}.XXXXXX}.XX}.}.XXoXXX{.0 =.XXXXoXXX}.XX}.oXoX=X-X2X<X1X+XoXV.4 p a j 8 4X4X",
"4X4X6 * 4 $ 6 J.XXXXXX}.XX}..XOXXXXXXXOX}.}..X}.q -.XXXX}.OX.X}.}.}.}.=X=X<X1X1X=XoXB.# # ; 3 r 4X4X",
"4X2 h +.+.8 6 B.].[.[.[.[.[.[.[.[.[.[.[.[.[.[.].q -.{.{.[.[.[.[.[.[.[.+X+X:X>X:X@XK.i.* h +.c e 4X4X",
"4X= g.&X&Xh.4 o.p.p.a.a.a.p.p.p.a.a.i.p.p.a.s.a.4 d a.s.p.p.p.a.a.a.a.p.a.B.B.B.p.i.x 5 Q.*X'.h 4X4X",
"4X& n x.x.V * 6 d f d d d f f d f f f d f l d d = 6 d l d f f d d d f f f d d d f f 4 = j.b.l.8 4X4X",
"4X& g N n 8 # $ A D $ # : D H O # . Z G Z @ @ 4 = q =   : D + > $ # S G Z . # : G Z # # h n N 6 4X4X",
"4X4X6 * * @ # A ! W G : J W ^ J , A W ` E Z 4 o.; d M @ H W { W > Z W ( W A : E ! Q : @ * * * q 4X4X",
"4X4Xg @.h.s # Z <.1.D & H 7.5.W $ Z [ 8.' > 4 o.6 v M @ H 3.9.^ : > ' 8.[ S $ Q 5.` : % k h.N 6 4X4X",
"4X- z U.U.g # @ T } :   1 R %.F   $ T } R . # u q t 7 # : T } P # . R } T $   F } P $ * +.!.l.8 4X4X",
"X # 6 3 5 * # # #             #           #         $   #     # X # #         #   # # # ; 3 6 *   4X",
"4X4X4X4X4X4X4X4X4X4X4X4X4X4X4X4X4X4X4X4X4X4X4X4X4X4X4X4X4X4X4X4X4X4X4X4X4X4X4X4X4X4X4X4X4X4X4X4X4X4X"
};
