/* XPM */
static char *result[] = {
/* columns rows colors chars-per-pixel */
"50 50 24 1 ",
"  c #150F0B",
". c #16110D",
"X c #1A130F",
"o c #171410",
"O c #1B1611",
"+ c #1E1915",
"@ c #1F1B18",
"# c #221B16",
"$ c #241E19",
"% c #281F1A",
"& c #26211D",
"* c #2B221D",
"= c #30241F",
"- c #272320",
"; c #2C2521",
": c #2E2925",
"> c #2F2B28",
", c #322722",
"< c #322924",
"1 c #352D29",
"2 c #382F2B",
"3 c #36302B",
"4 c #39312D",
"5 c #3B3431",
/* pixels */
".&#@O@+,,,,==<3&554*&O#&#OXOO>=<*X@+@+*X#$@+@O.@#<",
"-111<1&<,,=<*;,&1==#4<<11<&1*1<=*;11<1<$42<<<;<1&<",
"-,,,,,##@+#&#;,$1=<#4=<==:*<&&:&&;<,,=,#4,,,,*:,#&",
";,,,,,&1<344<;&,1<<==3<<==&:&1<=*$&&&*=#2,,,,&<,&<",
",,%,,,&<&<<====+OXOO2=<=<<&<&==<*&*#>;<#2,%=<*<<&<",
"&,<,,,%<&>=<==<&554*4===<=#&X&&&$1<&1<<#2<1,,%$$#%",
"-,,,,,&<&>;:=-=&1=<#OXXXXX+>3<<1>;<#1==&2,,,,%*<11",
"&,,,*,+&&**&&;=&<==%544233:<=<<=**<&1<=#2,,,==1<,,",
"$,,,1<&<<<=<;;<&<<=#5====<&<=<=<*X+O+OOX<,,,1*>,*,",
"*<,,=<#====<=XX+2=<#4<=*=<&====<;;31232&2,,,,%*,,,",
"&,,,<=&<<<<=;13*3==*4=<3<=&<<<<=**<*=<=#4,,,,%,,,,",
"&,;,==%<=<=<;*<+X*XX3==<<<&<===<,*;<<=*$1,,,,%,<,,",
"+$&;+&$<<==<===&443*<<===<&:<==<;;;,,,<#&%:@#@:<,,",
"&,<<&<$&==&&&;<&<==#=&=**&#&**&=$;<,,,<#2,<-,--%%*",
"1;<,$<#;1<#:;;<&<=<&::<+:*&=*+=3;;,,,,,;2,,%:%%,;#",
"&<&,#$#1<=&<*O+@&+#.3=<&3:*<<&3=;O$%#o@O2*,%$#1,,-",
"*=<<&1=<==&<=<<3<43&<=<&==&==#1==;311*1&2<<*:;1<=*",
"*:<=&<:=<=#3=<=<===#3<<&<<&*<&1=*;<==&=&1==&<%-%<&",
"*:=<&=&<=<&1===*=<=#;&*+=*&3=#4==<<==*<#4<=*,&:1<&",
"&:<=&=&<<<&3*:<<<=*#::#:::&==&4<*<<<<&=&3==*<&:,<&",
"#OX&#Oo#&=#+O-:<=<<#3<*<<<O+&*#+O;;=<<=##X$%#XO@+*",
"3<*13<&1=<<3=:<==<==3<*===&3<<11<;<<<*<#1&41<*1<11",
"*<=:=<*<*==:==<=<=<#3=*<<<&<*<==;<=<=*<#3$1<<%<,*=",
"3=:=<=<=3<=*=X+OXO&.3====<<:3=<**=<:<<=#3&3=,,<,1<",
"=<=:==*1<<=3==11*4<&1=*=<=*<<=<<=X&XOXXX1%2,,*<,=<",
"<=O#&#&:==<==3=<&<=#&&#&#*&<<==<*;44434&1%##&+<,=<",
"=<*3<3OXXXOOX=:=&==&<:1133XOXXOOX;<<<<=#4$22<,XXXX",
"<=*===&333331==:&==&4==<,<&343431;===<<#1$2*,&1341",
"=:*<<<*<<=<<==<=&==&1<====&<=<=<<1==<=,$2$<1<*<,==",
"<<&=<=&<=*=<=OOO&XX OXOO&X&<=*<=*;<<,<,$2%<,=*,,<&",
"+&*<=<=<=1<**:333&5*54=544<<<3<=*;<=,,,##+2,<=3=<2",
"<<*=<=&<<=<:==<==&<&1:*<==*<==<==*<,<=,#4&2,=&<<==",
"<<#=*&&<<<===1=&=*3#2=&<==*<==<==*=<==<&1&*:&&:===",
"==*:<<#&*&&&&=<1=#O.=*&&&&+&*&&*&*<=<<=&1&4<=*&**&",
"==*:==&:<>&:===<=&3%:::::;$:<3#>:=<=<==&4&<==*&:1#",
"&&+&##&<<=&<:=<==#2#1<=<<<&<::*====<===#<&2==*:<<#",
"&<1133&==:===*::=$2#<<%,;=&<=<*:*oO#+.X XXX&XX:<=#",
":==<==&:<:*=*+O#&X$.2<<,<=&<<=*:=:134&1&54454=:==#",
"*===<=&&&&&&&:4&541&2,,,<<&&**&=$;;<:&=&4*<==&&&&+",
"&<:<=<#:&=::===&1<=#3,,==<+:=+=>::;*=&<=1===*&&:;+",
"-,,,,;%<&<,,;;,$<,,#&%%$$$&<,#2,=;<<=X##4=<<<=1==*",
"-,,,,<,<&<%,=;,,1,<#131;;1;<,#2,=;=<<*1%3<====<<=&",
"&,,,,,%<&1<,*;,#$#OX2,,%;<$&<#1,==<=<&<$##+++X=&<&",
"$%%%*%$<&<<,,1;$544&2,,&<,&2<#2,=;<=<*=#54435<:1:*",
"<:-$1>&>%1,,**<$1===2,,&;,&<,#2,=ooo&XX 4<==<*:<=*",
",,;-,,+#+%$&$;,%<=<#2,,=<<@@#*+o+:<:442&3====*X#+=",
",,;;,:#1:111<&,$<<=#1,,&<,&1<1,::-===<==4=<<=&<12<",
",*;&,,%,,,,,,##@1=<*2,,&<,;<,<**===:<<=#4<<<=*1<=<",
",<*;,,%<,,,<;-1&1,,#2,,*<,&<*,*%&::3==<&4=<=<=<<*=",
",<,;<,<<,,,,,;,+X$X 2,,*1,&<<<;$:**ooO. 3==<=&<<<<"
};
