/* XPM */
static char *_2f8232ae8384f76d76e33d22ee04cf9I27LpZfdrOQ64Ls0[] = {
/* columns rows colors chars-per-pixel */
"50 50 188 2 ",
"   c #6B552B",
".  c #715826",
"X  c #665A3F",
"o  c #765D30",
"O  c #796438",
"+  c #59564B",
"@  c #4C515B",
"#  c #575A5C",
"$  c #444D54",
"%  c #655D45",
"&  c #5E605A",
"*  c #78694B",
"=  c #6A6456",
"-  c #766850",
";  c #7B7158",
":  c #686048",
">  c #4F5760",
",  c #595D63",
"<  c #525A66",
"1  c #5D636C",
"2  c #5A6066",
"3  c #5C6570",
"4  c #61666C",
"5  c #64696C",
"6  c #6B6D6C",
"7  c #676765",
"8  c #797563",
"9  c #7C776D",
"0  c #616771",
"q  c #656B73",
"w  c #6A6E74",
"e  c #6A6F79",
"r  c #6C7075",
"t  c #6D727A",
"y  c #727574",
"u  c #71757C",
"i  c #75797D",
"p  c #7C7D7D",
"a  c #787B75",
"s  c #846829",
"d  c #987C2F",
"f  c #876D31",
"g  c #8D7539",
"h  c #947935",
"j  c #867446",
"k  c #927E4E",
"l  c #847B63",
"z  c #867E65",
"x  c #807B79",
"c  c #7E827C",
"v  c #A2843F",
"b  c #928459",
"n  c #998144",
"m  c #A18640",
"M  c #B79745",
"N  c #AB9956",
"B  c #B19C5A",
"V  c #B8A35F",
"C  c #85816D",
"Z  c #9A8D63",
"A  c #958A6C",
"S  c #82827E",
"D  c #878578",
"F  c #9D9472",
"G  c #94927D",
"H  c #A49163",
"J  c #A59A75",
"K  c #BDAB6C",
"L  c #B6A463",
"P  c #AFA274",
"I  c #C1A350",
"U  c #D4B75E",
"Y  c #D6BA62",
"T  c #C7B776",
"R  c #D8C070",
"E  c #717681",
"W  c #757A82",
"Q  c #797D83",
"!  c #7D8185",
"~  c #7D8189",
"^  c #778087",
"/  c #828585",
"(  c #868985",
")  c #8B8D85",
"_  c #82858A",
"`  c #85898B",
"'  c #8B8D8B",
"]  c #908E8D",
"[  c #8D918C",
"{  c #94958D",
"}  c #9B9788",
"|  c #868A91",
" . c #8B8E92",
".. c #8E9293",
"X. c #8D9299",
"o. c #929594",
"O. c #969993",
"+. c #9B9C94",
"@. c #90929A",
"#. c #969A9B",
"$. c #9B9D9B",
"%. c #989793",
"&. c #9EA196",
"*. c #9EA19C",
"=. c #A7A184",
"-. c #A3A295",
";. c #A3A49C",
":. c #A6A89E",
">. c #A9AA9F",
",. c #B3B09D",
"<. c #B1A795",
"1. c #9C9EA0",
"2. c #9DA2A3",
"3. c #A3A5A2",
"4. c #A8A7A3",
"5. c #A6A9A2",
"6. c #ABADA4",
"7. c #A5A9AB",
"8. c #ABADAA",
"9. c #B2AFA4",
"0. c #B1AEAB",
"q. c #ADB1A6",
"w. c #AEB1AA",
"e. c #B1B3A7",
"r. c #B3B4AC",
"t. c #B6B9AF",
"y. c #B9BBAF",
"u. c #B8B3A7",
"i. c #AEB2B2",
"p. c #B4B5B2",
"a. c #B9B7B1",
"s. c #B6B9B1",
"d. c #BBBCB4",
"f. c #B6BAB8",
"g. c #BCBEB9",
"h. c #C2BCAE",
"j. c #C2BEB4",
"k. c #C2BFBA",
"l. c #BEC0B6",
"z. c #BFC0B9",
"x. c #C4C2B5",
"c. c #C9C4B6",
"v. c #C2C3BB",
"b. c #C9C6BB",
"n. c #CDC9BE",
"m. c #CAC8BB",
"M. c #D3CDBF",
"N. c #D9D1BF",
"B. c #BDC1C1",
"V. c #C4C5C1",
"C. c #CACAC2",
"Z. c #CBCDCB",
"A. c #C4C9C3",
"S. c #D2CEC4",
"D. c #D1CDC8",
"F. c #CED1CC",
"G. c #D6D1C4",
"H. c #DAD4C4",
"J. c #D3D2CA",
"K. c #DAD6CA",
"L. c #DDD9CB",
"P. c #DFD8C7",
"I. c #CFD1D2",
"U. c #D0D4D2",
"Y. c #D5D9D7",
"T. c #DCDAD4",
"R. c #DFDFDA",
"E. c #E2DCCC",
"W. c #E0D9C5",
"Q. c #E3DED2",
"!. c #E6E0CE",
"~. c #E9E3CF",
"^. c #E6E1D3",
"/. c #EAE4D5",
"(. c #EEE9D6",
"). c #E5E2D9",
"_. c #ECE6DA",
"`. c #EEE9DC",
"'. c #F1EAD6",
"]. c #F1EBDD",
"[. c #F6F1DC",
"{. c #EDEAE1",
"}. c #F3EDE2",
"|. c #F6F1E3",
" X c #FAF3E4",
".X c #FBF5E9",
"XX c #FEFAEB",
"oX c #FFFDF3",
/* pixels */
"  9.U.Z.I.I.Y.Z.7.7.I.<.h o $.p.w.i.i.p.f.g.f.i.Z s z R.T.T.T.T.T.T.T.Q.e.h o 3.i.f.f.i.w.i.i.i.5.j ",
"+..X}. X X_.Q.b.n._.E._.9 p } ) O.{ +.;.w.r.6.5.%.= J.'._.].`.`.].]._.(._.9 p r.r.w.6.w.w.6.w.&.' [ ",
"#.}._.).S.&.k.Q.'.^.^.'.` ..-.O.+.+.+.d.v.v.d.:.#.^ ^.Q.Q.`._._._._._.E.^.W / 8.s.w.q.r.r.r.5.&.+.2.",
"] G.;.;.C.{.[./.E.E.~._. .` +.O.6.e.5.l.z.z.l.e.O.i Q.Q./.}.].`.].]._.(.^.w i e.z.r.w.w.:.:.&.{ +.O.",
"9.N.k._.}.].`.`._.^.~.^.` / &.&.l.x.z.z.z.z.l.l.3.u Q.Q.Q.`.{.`.].`.].L.J.i ! l.l.s.8.w.w.q.5.&.+...",
";.j.j.`.`.`.{.{.].'.^.H._ o.+.&.l.z.x.g.x.l.y.d.4., n./.Q./._./._.(.(.H.v.W ( v.s.d.w.w.q.w.q.&.O.*.",
"4.S.G.`.{.`.].`.`._.E.H.` $.+.6.z.z.z.v.z.l.t.l.3.e S._.E.Q././././.(.P.E.y / v.t.d.l.d.w.q.q.*.+.3.",
"4.W./.`.`.`.`._.^./.^.!.` ..:.z.z.z.z.g.g.a.y.l.4.> ] Q.'.(./././.^./.E.W.^ ! v.y.t.l.v.z.l.6.w.&.*.",
"3.H.E._._._.(././.~.~.^._ o.z.z.z.z.z.z.d.y.y.l.$.1 [ ( j.L.(._.'.(./.E.E./ _ b.r.v.s.:.w.w.w.w.6.3.",
"4.E.E./.(._.Q.^.E./.~.E._ X.q.6.d.z.z.z.t.t.t.t.$.Q '.H.j.x.K.y.e.E./.K.P.` ` z.l.*.5 $.r.2.$.3.O.o.",
"4.].W.].[.].E.!.(.(.[._.t #.s.g.v.v.v.v.v.x.l.y.$.e Q.]. X.X}.`.Q.J.^./.E.Q Q I.:.# ) v.C.A.d.w.*...",
"F n.H.j.d.n.c.c.S.K.d.x Z G 7.8.8.8.r.8.$.*.w.2.} A +.c.c.b.C.Z.J.F.s.v.a.J z 1.c u / ..8.5.8.8.5.-.",
"h = E 0 , t t e e u 1 ; U f 0 e r e e 3 1 1 e 5 V M + 3 4 3 0 0 3 q q 3 ; Y h # q q 5 q e e q e 6 N ",
"X 0.g.f.g.f.p.r.p.8.w.:.O ; Q.Q.).).R.^.Q.E.Q.J.A   -.A.g.s.f.V.B.F.z.i.w.O - T.).).).).).).).^.K.F ",
"@.k.a.d.a.y.y.d.d.t.+.;.t 7..X`.].].(.]._./.E.!.0.5 A.k.g.d.t.r.s.l.l.r.z.u ...X_.(./.(.`.]._.`.!.m.",
"_ h.a.a.d.d.a.t.t.;.:.t.t $. X_._._._._.`._.E.!.p.# 4.g.d.g.g.d.y.d.s.w.z.E Q [._._._._._.{.}._.P.G.",
"^ d.l.t.s.r.w.w.8.q.e.t.e %.|.(.].`.`.`.]._.Q.~.t.0 *.5.k.g.g.d.d.y.d.>.w.i i ]._.`.].{.}.}.}._.E.J.",
"..8.;.5.q.w.w.r.a.a.e.5.e 1.H.W._.].`.}.].).E.E.;.0 4.%.t.g.j.g.g.d.d.6.$.u ` S.P.`.`.`.}.}.{.Q.^.m.",
"! +.&.q.s.z.z.v.g.t.0.;., $.H.E.`.].`.{._./.E.~...4 4.&.a.x.g.g.g.d.x.;.{ w ! G.Q.}.}.`.}.}.{././.r.",
"! +.;.s.z.z.z.z.d.r.4.$.0 3.E.E.}.{.`.].}./.E.^. .q ;.;.z.d.g.d.g.g.x.e.:.q ( E.E.}.`.`.}.}.}._.M.:.",
"` +.e.v.z.l.z.v.g.e.:.;.0 4.E.(.{.`._._.'.}._.c.@ 1 &.[ A.a.d.d.l.g.g.g.k.w ] E./.`.{.].}.}.}.u.h.8.",
"..+.t.v.z.v.z.s.>.) { r.i 5.E./._._.(.^.(.S.-.p X.r :.r e.d.y.d.d.j.d.d.d.u ] E./._.{._.{.|.K.h.H.S.",
"..;.p.v.z.s.r.5.} ' { t.W 8.P.E./.(.^._.P.j.S.[.v.0 w.) ) v.t.t.y.g.g.g.V.e %.Q.).`.}.|.}._.K.H.H.G.",
"D 6.a.r.3.5.r.8.*.s.e.3.A } L.(.'._.'.'.(._.'.^.-.l :.e.*.;.y.t.e.d.v.g.o.8 ) E.}.`._.K.k.h.H.G.H.9.",
"m 7 E 4 1 u u t e 6 0 z Y g r ! p ^ Q ^ W i i 6 K I : q 4 @ 0 w q e E 3 + Y k 7 W e 1 , , 1 1 4 7 L ",
"  -.V.v.V.v.V.V.V.V.C.8.O - 2.%.#.#.*.*.2.2.2.2.b . %.B.V.Z.V.g.k.k.p.g.u.j O 1.2.7.7.5.2.2.2.$.1.b ",
"/ E.~.'.'.'.'.'.'.'.'.).i $.d.6.q.6.>.q.e.e.q.l.*.r Q.L. X|.].}.Q.Q.E.n.S.x / v.q.d.v.e.;.+.+.} [ o.",
"#.E.N.E.~.^.E.E.E.E.~.K.u 3.a.8.q.6.:.:.:.:.;.>.o.E H.S.}._.`._.E.E.E.J.E.` ` t.5.l.l.d.:.O.+.+.O.2.",
"o.E.H.E.(././.^.^.^.'.K.0 3.p.r.s.r.w.q.q.q.6.q.` 5 T./._.{.]._./._.Q.Q.E.p / 8.w.z.l.v.w.>.;.+.;.O.",
"' ~.H.Q._.].`.'./.^.W.S.t 3.a.r.d.z.g.w.q.3.[ O.X.u /.{._.}._.}._.}./.E.Q.u ` q.y.v.z.z.z.z.g.e.6.[ ",
"$ c.Q.].}._.}._././.S.v.t ' d.w.s.z.z.z.w.s.w.O.u e _.`._.}.}._.{.].).E./.o.( d.a.d.z.z.z.v.z.r.w.3.",
"> x y y K..X_.}./.(.W.H.r  .d.s.z.z.z.z.p.e.t.>./ w `._._.`._.}.].`.].Q.).$./ l.t.d.l.z.z.z.l.a.w.w.",
"W v.x.) 7 K.}._._._.W.H.E ! +.{ &.z.l.z.l.q.:.&.' r ).XX|.`._.].{.{.}._._.o.` v.a.d.l.l.z.z.z.v.d.w.",
"~ ^.'. XC.k. X{.]._.E.H.Q Q ) x c s.B.z.t.6.6.&...q O.O.S.oX{.{.].`.]._.}.' _ v.y.y.s.z.l.v.f.s.w.3.",
"$.}.E.P.(.(./._._.`.E.G.! / ) D ! &.s.t.i.i.6.&.{ ^ H.y.;.c.^.`.`.`._.Q.L.~ ` d.r.l.y.s.z.w.y ! / ! ",
"@. X|.'.(.].[.|.S.a.S.L.Q ! { { [ o.&.c c &.w.*.o.3 T.XX_.L./.}..X.X|..X.X) W b.v.v.l.m.C.O.*.z.d.i.",
"9 2.s.r.r.a.s.t.g.q # O.J C p y r ^ [ ) ' ! #.*.=.Z ! 4.;.%.%.;.8.0.w.i.-.T b e ! w 1 u 1 2 ~ c W / ",
"v + 3 1 0 0 q q e < < l U f # 1 2 q q q q t 3 5 V M % W W i W ~ ~ Q Q W D M f x | ` ..| X.| t X.i N ",
". +.V.v.v.U.Y.B.*.5.f.8.O z T.T.).{.{.).).^.^.).J   3.Z.V.A.Z.F.Z.I.A.s.f.= } .X|.XX.X.X).Z.).oX{.H ",
"` g.k.v.g.+.O.O.*.w.5.l.W V.[./.|.].).(./.(.).[.A.t z.d.d.d.y.e.s.s.y.t.d.W v.}.)./.!.~.x.)..X{..Xk.",
"i s.;.$.O.' ;.>.5.e.l.z.~ v.|._./.~././././.).[.8.# 4.v.g.g.g.d.y.d.d.d.V.Q k. X/./._._._.|.`.}.}.3.",
" .O.( #.w.d.6.5.e.l.s.z._ v.|.^./././././._./.!.t.i *.e.x.d.g.x.d.d.y.y.v.Q d.|._.(.`.].`./._.{.W.k.",
"X.[ ;.b.v.g.s.6.t.d.t.w./ k._.^.[.`.^./._.(.L.H.k.Q 6.8.a.z.g.d.g.d.a.8.5.Q a._._._.{.{.`.{.`.P.P.v.",
"..) { g.g.d.z.r.r.l.e.;.Q e.(.^.n.l.K.`.).(.H.L.j.i 5.6.a.l.g.l.d.l.t.+.;.W 0./._.(.`.`.{.`.`.K.H.b.",
"o.+.q.z.d.l.l.w.8.z.r.6.y ' h.+.d.E._././._.P.N.j.i 4.0.l.g.g.d.l.g.e.;.>.i t.]._.].].`.`.`.}.^.W.k.",
"..&.t.z.d.d.s.6.6.r.a.e.e 0.Q.E.}._./././._._.E.j.i e.y.d.d.y.g.g.g.q.>.8.i a.].`.`.{.`.(.`.(._.E.k.",
"..+.;.t.d.t.d.w.6.6.e.0.p e.(._././././.(.{._.^.j.i 8.a.s.d.d.a.l.g.w.6.5.i t.].`.`.`.`._./._._.^.k.",
"o.:.;.e.d.y.t.5.6.6.8.r.Q a.].Q././.!./.K._.^.(.j.W q.t.t.y.y.t.e.t.6.5.w.E p..X`.`.`._././._.^.Q.b.",
"[ q.-.e.l.d.q.&.q.w.e.7.6 +.(.(.'.(.E.'.H.E.].|.x.y e.g.d.x.d.6.&.8.q.e.5.6 ' _.|.}.'.^.(.^.).^.'.d.",
"k ' #.` ' *.o.[ o.2.` & K * 6 q.0.4.4.4.$.( r.5.=.B C $...' $.' ` [ $./ # K * , $.;.%.#.&.' x ;.+.P "
};
