/* XPM */
static char *result[] = {
/* columns rows colors chars-per-pixel */
"50 50 184 2 ",
"   c #231F3F",
".  c #25213E",
"X  c #2A233D",
"o  c #33233F",
"O  c #3C243E",
"+  c #46263F",
"@  c #48253F",
"#  c #5F293E",
"$  c #252241",
"%  c #2B2443",
"&  c #262A45",
"*  c #2C2D46",
"=  c #26254B",
"-  c #29264B",
";  c #252A49",
":  c #2A2A4C",
">  c #352443",
",  c #392442",
"<  c #312845",
"1  c #3C2A45",
"2  c #34264A",
"3  c #332A4B",
"4  c #2D324D",
"5  c #32344D",
"6  c #262752",
"7  c #2A2753",
"8  c #272953",
"9  c #2A2A54",
"0  c #2B2C5C",
"q  c #272C5B",
"w  c #382751",
"e  c #322C54",
"r  c #392B54",
"t  c #322C5C",
"y  c #352650",
"u  c #2C3154",
"i  c #2C335C",
"p  c #27335F",
"a  c #333453",
"s  c #363A55",
"d  c #2C2E63",
"f  c #2E2F6A",
"g  c #332D63",
"h  c #382D61",
"j  c #352F69",
"k  c #2C3264",
"l  c #2D346A",
"z  c #2E3B6C",
"x  c #273165",
"c  c #333162",
"v  c #393267",
"b  c #31356C",
"n  c #3C356B",
"m  c #31396D",
"M  c #2F3D72",
"N  c #3B3474",
"B  c #323C74",
"V  c #3D3972",
"C  c #3E377C",
"Z  c #333E79",
"A  c #343771",
"S  c #452642",
"D  c #4A2643",
"F  c #432944",
"G  c #4D2943",
"H  c #44274A",
"J  c #44294A",
"K  c #4F2C49",
"L  c #5D2943",
"P  c #572C41",
"I  c #483246",
"U  c #4C324C",
"Y  c #43304A",
"T  c #5A374F",
"R  c #5E374B",
"E  c #4F3251",
"W  c #513351",
"Q  c #652B45",
"!  c #692A43",
"~  c #732E45",
"^  c #732E48",
"/  c #6F364B",
"(  c #74344A",
")  c #7B374C",
"_  c #7B384B",
"`  c #733147",
"'  c #643C52",
"]  c #6A3E52",
"[  c #443E76",
"{  c #453B7F",
"}  c #36414A",
"|  c #3E4455",
" . c #2F416C",
".. c #34476B",
"X. c #334174",
"o. c #364D73",
"O. c #34437C",
"+. c #344A7C",
"@. c #3A4B7D",
"#. c #404055",
"$. c #40455B",
"%. c #6C4054",
"&. c #754355",
"*. c #704358",
"=. c #4A427E",
"-. c #555070",
";. c #5E6079",
":. c #854A5A",
">. c #8B4B5E",
",. c #934D5B",
"<. c #97515F",
"1. c #98525D",
"2. c #965061",
"3. c #995361",
"4. c #443B83",
"5. c #463C89",
"6. c #453A87",
"7. c #354582",
"8. c #364B82",
"9. c #394B85",
"0. c #3A4D8C",
"q. c #384581",
"w. c #37558A",
"e. c #3B538B",
"r. c #375185",
"t. c #3B4F91",
"y. c #3C5393",
"u. c #3C5894",
"i. c #3C5A9A",
"p. c #47418B",
"a. c #4F498E",
"s. c #4C458F",
"d. c #544F84",
"f. c #4F5481",
"g. c #545188",
"h. c #4E4A95",
"j. c #4D4792",
"k. c #425C95",
"l. c #415B9B",
"z. c #5F5696",
"x. c #555499",
"c. c #5C559D",
"v. c #5B5A97",
"b. c #645F95",
"n. c #42649E",
"m. c #656495",
"M. c #6D689F",
"N. c #706F9B",
"B. c #5757A1",
"V. c #5D5AA3",
"C. c #605CA7",
"Z. c #605FA9",
"A. c #4464A3",
"S. c #4568A4",
"D. c #486CA5",
"F. c #4567A9",
"G. c #476DAB",
"H. c #496CAC",
"J. c #4972AB",
"K. c #4773AD",
"L. c #4974B1",
"P. c #4D7BB6",
"I. c #4E7DBA",
"U. c #6467A7",
"Y. c #6B69A3",
"T. c #6364AB",
"R. c #6669AE",
"E. c #6B69AB",
"W. c #726BA2",
"Q. c #7370A4",
"!. c #696CB2",
"~. c #6E71B4",
"^. c #7B7CB6",
"/. c #7A7BB8",
"(. c #4F81BD",
"). c #5183BE",
"_. c #5184C2",
"`. c #8581A4",
"'. c #8584B5",
"]. c #8A8ABE",
"[. c #9592BE",
"{. c #A6A4C6",
"}. c #A6A5C8",
"|. c None",
/* pixels */
"|.|.|.|.|.|.|.|.|.|.|.|.|.|.|.|.|.|.|.|.|.|.|.; & * * |.|.|.|.|.|.|.|.|.|.|.|.|.|.|.|.|.|.|.|.|.|.|.",
"|.|.|.|.|.|.|.|.|.|.|.|.|.|.|.|.|.|.|.|.|.|.f.v.m.`.N.;.|.|.|.|.|.|.|.|.|.|.|.|.|.|.|.|.|.|.|.|.|.|.",
"|.|.|.|.|.|.|.|.|.|.|.|.|.|.|.|.|.|.|.o...& g.!.^.{.'.-.: o.o.|.|.|.|.|.|.|.|.|.|.|.|.|.|.|.|.|.|.|.",
"|.|.|.|.|.|.|.|.|.|.|.|.|.|.|.|.|.|.n.).(.+.V R.^.{.Y.k k.).).@.|.|.|.|.|.|.|.|.|.|.|.|.|.|.|.|.|.|.",
"|.|.|.|.|.|.|.|.|.|.|.|.|.9 9 0 7 - 7.y.i.e.c U.^.{.m.k A.u.y.z = 0 8 9 u } |.|.|.|.|.|.|.|.|.|.|.|.",
"|.|.|.|.|.|.|.|.|.|.9 4 i A.I.I.e.9 7.u.y.7.c T./.{.m.0 w.y.u.l 0 S.P.I.r.4 i ; |.|.|.|.|.|.|.|.|.|.",
"|.|.|.|.|.|.|.|.= m M 6 d u.A.A.O.8 7.y.u.7.9 x./.{.d.q t.y.y.A 8 u.F.A.9.0 d X.i |.|.|.|.|.|.|.|.|.",
"|.|.|.|.|.|.|.a 8.K.K.z 0 7.t.k.Z 8 O.y.y.Z 9 h.^.[.p.q 9.u.t.l 9 9.y.t.B 6 8.P.A.X.s |.|.|.|.|.|.|.",
"|.|.|.|.|.|.4 r.P.A.A.O.0 f O.O.A 7 l Z Z f 7 [ c.b.j d l O.Z d t Z O.Z d 0 k.i.L.J. .5 |.|.|.|.|.|.",
"|.|.|.|.|.9 X.J.k.y.t.Z 9 7 0 d 0 6 d x d f d j 6.4.7 f f d f 0 - 0 d d 8 q 7.y.k.A.n.k |.|.|.|.|.|.",
"|.|.|.|.; 9 k 0.y.y.q.x - $ - 7 $ $ d d d d 0 g 6.C 7 d d f d 6 . & = - $ 8 l t.t.k.+.0 9 |.|.|.|.|.",
"|.|.|.|.k +.0 l 9.9.l =   $ $ $ $ $ $ $ $ = $ = g t   7 = $ $ $ % . . . . $ q M q.Z 0 l +.u |.|.|.|.",
"|.|.|.|.X.P.e.0 d x 8 $ $ $ $ $ $ $ $ $ $ $ $ . $ $ $ $   $   $ $ $ $ $ $ $ $ 0 f d x S.J.q |.|.|.|.",
"|.|.|.u k.u.G.@.6 8 $ . $ $ $ $ $ $ $ $ $ $ $ $ $ $ $ $ $ $ $ $ $ $ $ $ $ $   = 7 9 k.F.k.9.|.|.|.|.",
"|.|.|.0 u.y.i.q.$ $ , O $ $ $ $ $ $ $ $ $ $ $ $ $ $ $ $ $ $ $ $ $ $ $ $ $   S o   6 e.u.i.8.9 |.|.|.",
"|.|.|.d A 0.7.d - , Q L X $ $ $ $ $ $ $ $ $ $ $ $ $ $ $ $ $ $ $ $ $ $ $   , Q P > - b 0.7.b q |.|.|.",
"|.|.s q 0 l j 6 < &.` L , $ $ $ $ $ $ $ $ . $ $ $ $ $ $ . $ $ $ $ $ $ $ % , ! ) ] & 9 b k 0 9 |.|.|.",
"|.|.| 9 8 8 = $ I ,.` Q D > $ . $ $ $ $ $ $ $ $ $ $ $ $ $ $ $ $ $ $ $ $ S D ! ) >.X $ 7 9 9 u |.|.|.",
"|.|.& k l k - % ] 1.~ L D , $ $ $ $ $ $ $ $ $ $ $ $ $ $ $ $ $ $ $ $ $ $ S + ! ) ,.T $ 6 k m k |.|.|.",
"|.|.= e._.n.0 > :.,.~ L S , $ $ $ $ $ $ $ $ $ $ $ $ $ $ $ $ $ $ $ $ $ $ S S ! _ 3.] $ A K.(.B |.|.|.",
"|.|.- O.i.H.B % :.,.~ # S , $ $ $ $ $ $ $ $ $ $ $ $ $ $ $ $ $ . $ $ $ $ S S Q ) 1.] = e.A.i.x |.|.|.",
"|.|.; Z y.y.k < :.,.~ # S > $ $ $ $ $ $ $ $ $ $ . $ $ $ $ $ $ $ $ $ $ $ + + ! ) 1.] % Z y.t.k |.|.|.",
"|.|.; Z y.e.k % Y U S G D , $ $ $ $ $ $ $ $ $ $ $ $ $ $ $ $ $ $ $ $ $ $ S S D J U F & Z t.0.x |.|.|.",
"|.|.; x m m q 2 [ { n % F >   $ $ $ $ $ $ $ $ $ $ $ $ $ $ $ $ $ $ $ $ $ S , 2 [ =.n & k M A k |.|.|.",
"|.|.5 0 0 0 = n '.[.Q.t F , $ $ $ $ $ $ $ $ . $ $ $ $ $ . $ $ $ $ $ $ $ + 2 [ '.[.W.7 6 0 0 0 |.|.|.",
"|.|.#.9 9 8   [ !.~.C.N H , $ $ $ $ $ $ $ $ $ $ $ $ $ $ $ $ $ $ . $ $ $ S r 5.R.~.V.y = 7 6 a |.|.|.",
"|.|.; 8.K.D.i c B.!.V.N H , $ $ . $ $ $ $ $ $ $ $ $ $ $ $ $ $ $ $ $ $ $ S r 5.T.R.h.7 +.J.H.z |.|.|.",
"|.|.- 9.G.F.l h 5.h.5.g S , $ $ $ $ $ $ $ $ $ $ $ $ $ $ $ $ $ $ $ $ $ $ S 2 n s.j.4.t 9.D.D.A |.|.|.",
"|.|.= Z u.t.b - N N g $ S , $ $ $ $ $ $ $ $ $ $ $ $ $ $ $ $ $ . $ $ $ $ D o % N N g = Z t.t.l |.|.|.",
"|.|.= Z y.y.k $ J E F D G , $ $ $ $ $ $ $ $ $ $ $ $ $ $ $ $ $ $ $ $ $ $ S S D H E J $ O.y.y.l |.|.|.",
"|.|.- z 7.Z 0 > :.,.~ L D , $ $ $ $ $ $ $ $ $ . $ $ $ $ $ . $ $ $ $ $ $ S D ! ) 2.' $ m 7.Z x |.|.|.",
"|.|.- x x d = 2 :.,.~ # D , . $ $ $ $ $ $ $ $ $ $ $ $ $ $ % $ $ $ $ . $ S + ! ) 2.] $ q x x i |.|.|.",
"|.|.| - = = $ % :.,.~ # S , . $ $ $ $ $ $ $ $ $ $ $ $ $ $ $ . $ $ . $ $ S + Q _ 1.]   $ = 6 : |.|.|.",
"|.|.; B w.9.q > :.,.~ L S , $ $ $ $ $ $ $ $ $ . $ $ $ $ $ $ % $ $ $ $ $ S S ! _ 1.] $ z w.9.c |.|.|.",
"|.|.; w.).P.z % :.,.! Q + > $ $ $ . $ $ $ $ $ $ $ $ $ $ $ $ $ $ $ $ $ $ + S ! ) 1.' $ e.(.P.M |.|.|.",
"|.|.- X.y.y.k > :.,.~ # + , $ $ $ $ $ $ $ $ $ $ $ $ $ $ $ $ $ $ $ $ $ $ S + ! ) <.] & Z y.y.k |.|.|.",
"|.|.= Z y.y.k * &.:.Q L + , $ $ $ $ $ $ $ $ $ $ $ $ $ $ $ $ $ $ $ $ $ $ + + Q / >.R $ Z y.t.l |.|.|.",
"|.|.- Z y.t.k $ r r 2 S S , $ $ $ $ $ $ $ $ $ $ $ . $ $ $ $ $ $ $ $ $ $ D , , y a : $ O.y.y.k |.|.|.",
"|.|.; z 7.7.d e m.M.d.- O , $ $ $ $ . $ $ $ $ $ $ $ $ $ $ . $ $ $ $ . $ S o e b.Y.d.- A 7.7.k |.|.|.",
"|.|.* d d d 6 n ^.].E.b S o $ $ $ $ $ $ $ $ $ $ $ $ $ $ $ $ $ $ $ $ $ $ S 2 4.'.].Y.7 0 d g 0 |.|.|.",
"|.|.| 9 ; = $ v U.R.B.C H ,   $ $ $ $ $ $ $ $ $ $ $ $ $ . $ $ $ $ $ $ $ D r 5.T.R.c.9 = = = a |.|.|.",
"|.|.u z +.X.8 b h.T.c.n H , $ $ $ $ $ $ $ $ $ . $ $ $ $ % $ $ $ $ $ $ $ S w 4.C.T.p.9 i O.X.i |.|.|.",
"|.|.= e._.I.m t 4.5.4.6 , , $ $ $ $ $ . $ % $ $ $ $ $ $ $ $ $ $ $ $ $ $ S o g 4.4.{ 7 w._.(.B |.|.|.",
"|.|.- Z y.y.k % t h t > S , $ $ $ $ $ $ $ . $ $ $ $ . $ $ $ $ $ $ $ $ $ D , 2 t g 9 % Z y.y.b |.|.|.",
"|.|.- b Z A : % ' ] P L S , $ $ $ $ $ $ $ $ $ $ $ $ $ $ $ $ $ $ $ $ $ $ S S L R *.W $ i z B d |.|.|.",
"|.|.$.; - 7 $ < >.2.~ L > $ $ $ $ $ $ $ . $ $ $ $ $ $ . $ $ $ $ $ $ $ $ % , ! ) 3.] $ $ 6 - a |.|.|.",
"|.|.* z r.O.8 % :.,.Q O   $ $ $ $ $ $ $ $ $ $ $ $ $ $ $ $ $ $ $ $ $ $ $ $ X @ ) 3.%.$ k 9.+.p |.|.|.",
"|.|.- M A.u.q % T ' S $ $ $ $ $ $ $ $ $ $ $ $ $ $ $ $ $ $ $ $ $ $ $ $ $ $ $   K ' U $ b A.u.d * |.|.",
"|.|.& = 6 8 $ $ . $ $ $ $ $ $ . $ $ $ . $ $ . $ $ . $ $ . $ $ .   $ $ . $ $ $ $ . . $ = 6 6 = $ |.|.",
"|.|.|.|.|.|.|.|.|.|.|.|.|.|.|.|.|.|.|.|.|.|.|.|.|.|.|.|.|.|.|.|.|.|.|.|.|.|.|.|.|.|.|.|.|.|.|.|.|.|."
};
