/* XPM */
static char *_284611225764856c21902c325604f32xTbLT8cSiUgzLGc7[] = {
/* columns rows colors chars-per-pixel */
"50 50 69 1 ",
"  c None",
". c black",
"X c #140811",
"o c #160812",
"O c #160813",
"+ c #190915",
"@ c #1A0A15",
"# c #1A0A16",
"$ c #1A0B16",
"% c #170A19",
"& c #230D1D",
"* c #1F1030",
"= c #260F25",
"- c #290F22",
"; c #2B1024",
": c #2C1024",
"> c #2D1125",
", c #2E1126",
"< c #33132A",
"1 c #221134",
"2 c #27133B",
"3 c #3D1732",
"4 c #3E1733",
"5 c #3E1734",
"6 c #3F1734",
"7 c #401835",
"8 c #421836",
"9 c #4C1C3F",
"0 c #341741",
"q c #34194C",
"w c #3E1B49",
"e c #3F1F60",
"r c #511E43",
"t c #54204B",
"y c #572253",
"u c #59245A",
"i c #4A3B5E",
"p c #5C2662",
"a c #562978",
"s c #623562",
"d c #622A72",
"f c #642C79",
"g c #5B4F67",
"h c #5B5E63",
"j c #684461",
"k c #5F6367",
"l c #5E2F8F",
"z c #672E81",
"x c #652E85",
"c c #6A3089",
"v c #6D3291",
"b c #643198",
"n c #7236A0",
"m c #7538A8",
"M c #783AB0",
"N c #7A3CB7",
"B c #7D3EBF",
"V c #8045BF",
"C c #895CBF",
"Z c #8F6BBE",
"A c #9579BE",
"S c #967ABE",
"D c #83888E",
"F c #978F9F",
"G c #9981BE",
"H c #9C88BE",
"J c #A297BE",
"K c #A59FBD",
"L c #AEB5BD",
/* pixels */
"                                                  ",
"                                                  ",
"                                                  ",
"                                                  ",
"                                                  ",
"                                                  ",
"                                                  ",
"                                                  ",
"                                                  ",
"                                                  ",
"                                                  ",
"                                                  ",
"                                                  ",
"                                                  ",
"                      ......                      ",
"                      >--e0>                      ",
"                   ..orrrBzr...                   ",
"                  @538rdnBMnla5@                  ",
"                 @&rrtpvBBBBBmp=@                 ",
"                .5rrrpBBBBBBBBBp5.                ",
"               >59rrcmBBBBZJJGBmx3@               ",
"              .-rrrrnBBBBCHLLKCVmp%.              ",
"              .-rrrrnBBBBLLLLLLCBB1.              ",
"              >3rryzMBBBBLLLLLLCBBw>              ",
"             .rrrrpBBBBBBLLLLLLCBBpr.             ",
"             .rrrrpBBBBBBBSLLJBBBBBB.             ",
"             .rrrrpBBBBBBBCSSZBBBBBB.             ",
"             .rrrrpBBBBBBBBBBBBBBBBB.             ",
"             .rrrrpBBBBBBBBBBBBBBBBB.             ",
"             .rrrrunNBBBBBBBBBBBBBmn.             ",
"             .rrrrrrnBBBBBBBBBBBBBpr.             ",
"             .ndrrrrnBBBBBBBBBBBBBpr.             ",
"             .BzrrrrnBBBBBBBBBBBBBpr.             ",
"             .BzrrrrnBBBBBBBBBBBBBpr.             ",
"             .BzrrrrufBBBBBBBBBBmprr.             ",
"             .BzrrrrrpBBBBBBBBBBnrrr.             ",
"              .eBprrrrrzBBBBBBBprrX.              ",
"              .iSsrrrrrpzBBBzzzyrrO.              ",
"              .kLjrrrrrrrBBBrrrrrr#.              ",
"                .DFrrrrrrrrrrrrr5.                ",
"                 hgzzdrrrrrrrrr<>                 ",
"                  1BBnrrrrrrrrrO                  ",
"                   1*qnnnrrroXo                   ",
"                    .2bll338.                     ",
"                      ......                      ",
"                                                  ",
"                                                  ",
"                                                  ",
"                                                  ",
"                                                  "
};
