/* XPM */
static char *result[] = {
/* columns rows colors chars-per-pixel */
"50 50 59 1 ",
"  c black",
". c #010101",
"X c #020202",
"o c #160812",
"O c #280F21",
"+ c #290F22",
"@ c #2A1023",
"# c #2A1123",
"$ c #2B1024",
"% c #2B1124",
"& c #2C1024",
"* c #2C1124",
"= c #2E1331",
"- c #3D1732",
"; c #303234",
": c #401835",
"> c #421836",
", c #471A3B",
"< c #341741",
"1 c #3F1F60",
"2 c #4A1E4E",
"3 c #511E43",
"4 c #54204B",
"5 c #57274B",
"6 c #572253",
"7 c #59245A",
"8 c #432166",
"9 c #442268",
"0 c #5C2662",
"q c #5F2E61",
"w c #572669",
"e c #622A72",
"r c #642C79",
"t c #684462",
"y c #694562",
"u c #655064",
"i c #5D6165",
"p c #5E2F8F",
"a c #672E80",
"s c #672E81",
"d c #603484",
"f c #6A3089",
"g c #633197",
"h c #6D3291",
"j c #7236A0",
"k c #7538A8",
"l c #7A3CB7",
"z c #7D3EBF",
"x c #834DBF",
"c c #8654BF",
"v c #895CBF",
"b c #8F6BBE",
"n c #9272BE",
"m c #967ABE",
"M c #9981BE",
"N c #A297BE",
"B c #A59FBD",
"V c #AEB5BD",
"C c None",
/* pixels */
"CCCCCCCCCCCCCCCCCCCCCCCCCCCCCCCCCCCCCCCCCCCCCCCCCC",
"CCCCCCCCCCCCCCCCCCCCCCCCCCCCCCCCCCCCCCCCCCCCCCCCCC",
"CCCCCCCCCCCCCCCCCCCCCCCCCCCCCCCCCCCCCCCCCCCCCCCCCC",
"CCCCCCCCCCCCCCCCCCCCCCCCCCCCCCCCCCCCCCCCCCCCCCCCCC",
"CCCCCCCCCCCCCCCCCCCCCCCCCCCCCCCCCCCCCCCCCCCCCCCCCC",
"CCCCCCCCCCCCCCCCCCCCCCCCCCCCCCCCCCCCCCCCCCCCCCCCCC",
"CCCCCCCCCCCCCCCCCCCCCCCCCCCCCCCCCCCCCCCCCCCCCCCCCC",
"CCCCCCCCCCCCCCCCCCCCCCCCCCCCCCCCCCCCCCCCCCCCCCCCCC",
"CCCCCCCCCCCCCCCCCCCCCCCCCCCCCCCCCCCCCCCCCCCCCCCCCC",
"CCCCCCCCCCCCCCCCCCCCCCCCCCCCCCCCCCCCCCCCCCCCCCCCCC",
"CCCCCCCCCCCCCCCCCCCCCCCCCCCCCCCCCCCCCCCCCCCCCCCCCC",
"CCCCCCCCCCCCCCCCCCCCC        CCCCCCCCCCCCCCCCCCCCC",
"CCCCCCCCCCCCCCCCCCCC%++++111+%CCCCCCCCCCCCCCCCCCCC",
"CCCCCCCCCCCCCCCCCX  -3333zzz3-  .CCCCCCCCCCCCCCCCC",
"CCCCCCCCCCCCCCCC :3330zzzzzzzzz0: CCCCCCCCCCCCCCCC",
"CCCCCCCCCCCCCCCO$,33ehzzzzzzzzzhw@CCCCCCCCCCCCCCCC",
"CCCCCCCCCCCCCC $3333jzzzzzzzzzzzj3o CCCCCCCCCCCCCC",
"CCCCCCCCCCCCC.:,337jlzzzzzzzNNNclj2:.CCCCCCCCCCCCC",
"CCCCCCCCCCCCC 33330zzzzzzzxvVVVnczr0 CCCCCCCCCCCCC",
"CCCCCCCCCCCCC 33330zzzzzzzmVVVVVNzzz CCCCCCCCCCCCC",
"CCCCCCCCCCCC*-333fkzzzzzzzmVVVVVNzzz-%CCCCCCCCCCCC",
"CCCCCCCCCCC +3333jzzzzzzzzbNVVVBMzzz0= CCCCCCCCCCC",
"CCCCCCCCCCC +3333jzzzzzzzzzzVVVvzzzzz1 CCCCCCCCCCC",
"CCCCCCCCCCC +3333jzzzzzzzzzzmmmxzzzzz1 CCCCCCCCCCC",
"CCCCCCCCCCC +3333jzzzzzzzzzzzzzzzzzzz1 CCCCCCCCCCC",
"CCCCCCCCCCC +333330zzzzzzzzzzzzzzzzz3+ CCCCCCCCCCC",
"CCCCCCCCCCC <s33330zzzzzzzzzzzzzzzzz3+ CCCCCCCCCCC",
"CCCCCCCCCCC 1z33330zzzzzzzzzzzzzzzzz3+ CCCCCCCCCCC",
"CCCCCCCCCCC 1z333333jzzzzzzzzzzzzz033+ CCCCCCCCCCC",
"CCCCCCCCCCCC8p063333fkzzzzzzzzzzlj73-#CCCCCCCCCCCC",
"CCCCCCCCCCCCC za333330zzzzzzzzzzj333 CCCCCCCCCCCCC",
"CCCCCCCCCCCCC Cq333334000zzzzk007333 CCCCCCCCCCCCC",
"CCCCCCCCCCCCCCCuy53333333jjjjf3333>:.CCCCCCCCCCCCC",
"CCCCCCCCCCCCCC iVt3333333333333333o CCCCCCCCCCCCCC",
"CCCCCCCCCCCCCCCC;djj733333333333>oCCCCCCCCCCCCCCCC",
"CCCCCCCCCCCCCCCC gzz033333333333: CCCCCCCCCCCCCCCC",
"CCCCCCCCCCCCCCCCC.  pzzs33333-  .CCCCCCCCCCCCCCCCC",
"CCCCCCCCCCCCCCCCCCCC911<+++++&CCCCCCCCCCCCCCCCCCCC",
"CCCCCCCCCCCCCCCCCCCCC        CCCCCCCCCCCCCCCCCCCCC",
"CCCCCCCCCCCCCCCCCCCCCCCCCCCCCCCCCCCCCCCCCCCCCCCCCC",
"CCCCCCCCCCCCCCCCCCCCCCCCCCCCCCCCCCCCCCCCCCCCCCCCCC",
"CCCCCCCCCCCCCCCCCCCCCCCCCCCCCCCCCCCCCCCCCCCCCCCCCC",
"CCCCCCCCCCCCCCCCCCCCCCCCCCCCCCCCCCCCCCCCCCCCCCCCCC",
"CCCCCCCCCCCCCCCCCCCCCCCCCCCCCCCCCCCCCCCCCCCCCCCCCC",
"CCCCCCCCCCCCCCCCCCCCCCCCCCCCCCCCCCCCCCCCCCCCCCCCCC",
"CCCCCCCCCCCCCCCCCCCCCCCCCCCCCCCCCCCCCCCCCCCCCCCCCC",
"CCCCCCCCCCCCCCCCCCCCCCCCCCCCCCCCCCCCCCCCCCCCCCCCCC",
"CCCCCCCCCCCCCCCCCCCCCCCCCCCCCCCCCCCCCCCCCCCCCCCCCC",
"CCCCCCCCCCCCCCCCCCCCCCCCCCCCCCCCCCCCCCCCCCCCCCCCCC",
"CCCCCCCCCCCCCCCCCCCCCCCCCCCCCCCCCCCCCCCCCCCCCCCCCC"
};
