/* XPM */
static char *result[] = {
/* columns rows colors chars-per-pixel */
"50 50 63 1 ",
"  c black",
". c #140811",
"X c #160812",
"o c #160813",
"O c #190915",
"+ c #1A0A15",
"@ c #170A19",
"# c #230D1D",
"$ c #1F1030",
"% c #260F25",
"& c #290F22",
"* c #2C1024",
"= c #2D1126",
"- c #2E1126",
"; c #33132A",
": c #221134",
"> c #27133B",
", c #3D1732",
"< c #3E1734",
"1 c #3F1734",
"2 c #411836",
"3 c #421836",
"4 c #4C1C3F",
"5 c #341741",
"6 c #34194C",
"7 c #3E1B49",
"8 c #3F1F60",
"9 c #511E43",
"0 c #54204B",
"q c #572253",
"w c #59245A",
"e c #4A3C5E",
"r c #5C2662",
"t c #562978",
"y c #623562",
"u c #622A72",
"i c #642C79",
"p c #5B4F67",
"a c #5B5E63",
"s c #684461",
"d c #5E6266",
"f c #5E2F8F",
"g c #672E81",
"h c #652E85",
"j c #6A3089",
"k c #6D3291",
"l c #643198",
"z c #7236A0",
"x c #7538A8",
"c c #783AB0",
"v c #7A3CB7",
"b c #7D3EBF",
"n c #8045BF",
"m c #895CBF",
"M c #8F6BBE",
"N c #9579BE",
"B c #967ABE",
"V c #83888E",
"C c #978F9F",
"Z c #9C88BE",
"A c #A297BE",
"S c #AEB5BD",
"D c None",
/* pixels */
"DDDDDDDDDDDDDDDDDDDDDDDDDDDDDDDDDDDDDDDDDDDDDDDDDD",
"DDDDDDDDDDDDDDDDDDDDDDDDDDDDDDDDDDDDDDDDDDDDDDDDDD",
"DDDDDDDDDDDDDDDDDDDDDDDDDDDDDDDDDDDDDDDDDDDDDDDDDD",
"DDDDDDDDDDDDDDDDDDDDDDDDDDDDDDDDDDDDDDDDDDDDDDDDDD",
"DDDDDDDDDDDDDDDDDDDDDDDDDDDDDDDDDDDDDDDDDDDDDDDDDD",
"DDDDDDDDDDDDDDDDDDDDDDDDDDDDDDDDDDDDDDDDDDDDDDDDDD",
"DDDDDDDDDDDDDDDDDDDDDDDDDDDDDDDDDDDDDDDDDDDDDDDDDD",
"DDDDDDDDDDDDDDDDDDDDDDDDDDDDDDDDDDDDDDDDDDDDDDDDDD",
"DDDDDDDDDDDDDDDDDDDDDDDDDDDDDDDDDDDDDDDDDDDDDDDDDD",
"DDDDDDDDDDDDDDDDDDDDDDDDDDDDDDDDDDDDDDDDDDDDDDDDDD",
"DDDDDDDDDDDDDDDDDDDDDDDDDDDDDDDDDDDDDDDDDDDDDDDDDD",
"DDDDDDDDDDDDDDDDDDDDDDDDDDDDDDDDDDDDDDDDDDDDDDDDDD",
"DDDDDDDDDDDDDDDDDDDDDDDDDDDDDDDDDDDDDDDDDDDDDDDDDD",
"DDDDDDDDDDDDDDDDDDDDDDDDDDDDDDDDDDDDDDDDDDDDDDDDDD",
"DDDDDDDDDDDDDDDDDDDDDD      DDDDDDDDDDDDDDDDDDDDDD",
"DDDDDDDDDDDDDDDDDDDDDD-&&85=DDDDDDDDDDDDDDDDDDDDDD",
"DDDDDDDDDDDDDDDDDDD  X999bg9   DDDDDDDDDDDDDDDDDDD",
"DDDDDDDDDDDDDDDDDD+1,39uzbczft1ODDDDDDDDDDDDDDDDDD",
"DDDDDDDDDDDDDDDDD+#990rkbbbbbxr%+DDDDDDDDDDDDDDDDD",
"DDDDDDDDDDDDDDDD <999rbbbbbbbbbr1 DDDDDDDDDDDDDDDD",
"DDDDDDDDDDDDDDD*1499jxbbbbbbbbbxh1ODDDDDDDDDDDDDDD",
"DDDDDDDDDDDDDD &9999zbbbbbbbmmmnxr@ DDDDDDDDDDDDDD",
"DDDDDDDDDDDDDD &9999zbbbbbbbSSSmbb$ DDDDDDDDDDDDDD",
"DDDDDDDDDDDDDD-,99qgcbbbbbmBSSSZMb7-DDDDDDDDDDDDDD",
"DDDDDDDDDDDDD 9999rbbbbbbbBSSSSSAbr9 DDDDDDDDDDDDD",
"DDDDDDDDDDDDD 9999rbbbbbbbBSSSSSAbbb DDDDDDDDDDDDD",
"DDDDDDDDDDDDD 9999rbbbbbbbmBSSSZMbbb DDDDDDDDDDDDD",
"DDDDDDDDDDDDD 9999rbbbbbbbbbSSSmbbbb DDDDDDDDDDDDD",
"DDDDDDDDDDDDD 9999rbbbbbbbbbbbbbbbbb DDDDDDDDDDDDD",
"DDDDDDDDDDDDD 9999wzvbbbbbbbbbbbbbxz DDDDDDDDDDDDD",
"DDDDDDDDDDDDD 999999zbbbbbbbbbbbbbr9 DDDDDDDDDDDDD",
"DDDDDDDDDDDDD zu9999zbbbbbbbbbbbbbr9 DDDDDDDDDDDDD",
"DDDDDDDDDDDDD bg9999zbbbbbbbbbbbbbr9 DDDDDDDDDDDDD",
"DDDDDDDDDDDDD bg9999zbbbbbbbbbbbbbr9 DDDDDDDDDDDDD",
"DDDDDDDDDDDDD bg9999wibbbbbbbbbbxr09 DDDDDDDDDDDDD",
"DDDDDDDDDDDDD bg99999rbbbbbbbbbbz999 DDDDDDDDDDDDD",
"DDDDDDDDDDDDDD 8br99999gbbbbbbbr99. DDDDDDDDDDDDDD",
"DDDDDDDDDDDDDD eNy99999rgbbbgggq99. DDDDDDDDDDDDDD",
"DDDDDDDDDDDDDD dSs9999999bbb999999O DDDDDDDDDDDDDD",
"DDDDDDDDDDDDDDDD VC9999999999999, DDDDDDDDDDDDDDDD",
"DDDDDDDDDDDDDDDDDapggu999999999;*DDDDDDDDDDDDDDDDD",
"DDDDDDDDDDDDDDDDDD:bbz999999999oDDDDDDDDDDDDDDDDDD",
"DDDDDDDDDDDDDDDDDDD:$6zzz999..XDDDDDDDDDDDDDDDDDDD",
"DDDDDDDDDDDDDDDDDDDD >lff,,2 DDDDDDDDDDDDDDDDDDDDD",
"DDDDDDDDDDDDDDDDDDDDDD      DDDDDDDDDDDDDDDDDDDDDD",
"DDDDDDDDDDDDDDDDDDDDDDDDDDDDDDDDDDDDDDDDDDDDDDDDDD",
"DDDDDDDDDDDDDDDDDDDDDDDDDDDDDDDDDDDDDDDDDDDDDDDDDD",
"DDDDDDDDDDDDDDDDDDDDDDDDDDDDDDDDDDDDDDDDDDDDDDDDDD",
"DDDDDDDDDDDDDDDDDDDDDDDDDDDDDDDDDDDDDDDDDDDDDDDDDD",
"DDDDDDDDDDDDDDDDDDDDDDDDDDDDDDDDDDDDDDDDDDDDDDDDDD"
};
