/* XPM */
static char *ff7a2932c4b745aab822ea0ac592bb4cMZh9kr6INspivT5z[] = {
/* columns rows colors chars-per-pixel */
"50 50 203 2 ",
"   c None",
".  c gray5",
"X  c #0E0E0E",
"o  c #0F0F0E",
"O  c gray6",
"+  c #101010",
"@  c #101011",
"#  c #111011",
"$  c #111111",
"%  c #111112",
"&  c gray7",
"*  c #131313",
"=  c #131314",
"-  c gray8",
";  c #151515",
":  c #151516",
">  c #161616",
",  c #171716",
"<  c gray9",
"1  c #181718",
"2  c #181818",
"3  c #191919",
"4  c gray10",
"5  c #1B1A1B",
"6  c #1B1B1B",
"7  c #1B1B1E",
"8  c gray11",
"9  c #1C1C1D",
"0  c #1D1C1D",
"q  c #1D1D1D",
"w  c #1D1E1D",
"e  c #1C1C1E",
"r  c #1D1D1E",
"t  c #1E1D1E",
"y  c #1E1E1E",
"u  c #1F1E1F",
"i  c gray12",
"p  c #1D1D20",
"a  c #1E1E20",
"s  c #1E1E21",
"d  c #1F1F21",
"f  c #201F20",
"g  c #202020",
"h  c #202021",
"j  c #212021",
"k  c gray13",
"l  c #212122",
"z  c #202023",
"x  c #212123",
"c  c #222222",
"v  c #222223",
"b  c #232223",
"n  c #232323",
"m  c #222224",
"M  c #232324",
"N  c #232326",
"B  c #242324",
"V  c #242425",
"C  c #252525",
"Z  c #242426",
"A  c #252526",
"S  c #242427",
"D  c #252527",
"F  c #262526",
"G  c gray15",
"H  c #272727",
"J  c #242428",
"K  c #252528",
"L  c #262629",
"P  c #26262A",
"I  c #27272A",
"U  c #27272B",
"Y  c #282828",
"T  c gray16",
"R  c #2A2A2A",
"E  c gray17",
"W  c #28282C",
"Q  c #29292C",
"!  c #28282D",
"~  c #2A2A2C",
"^  c #2B2B2C",
"/  c #2B2B2D",
"(  c #29292E",
")  c #29292F",
"_  c #2A2A2E",
"`  c #2A2A2F",
"'  c #2B2B2F",
"]  c #2C2C2C",
"[  c #2D2D2D",
"{  c #2B2B30",
"}  c #2C2C30",
"|  c #2D2D30",
" . c #2C2C31",
".. c #2D2D31",
"X. c #2D2D33",
"o. c #2E2E32",
"O. c #2E2E33",
"+. c #2F2F33",
"@. c #2E2E34",
"#. c #2F2F34",
"$. c #313131",
"%. c #323232",
"&. c gray20",
"*. c #303034",
"=. c #303035",
"-. c #303036",
";. c #313137",
":. c #323236",
">. c #343434",
",. c #313138",
"<. c #323238",
"1. c #333338",
"2. c #323239",
"3. c #333339",
"4. c #34343A",
"5. c #34343B",
"6. c #35353B",
"7. c #36363A",
"8. c #383738",
"9. c #393939",
"0. c #39393A",
"q. c #38383B",
"w. c #39393B",
"e. c #39393C",
"r. c #3A3A3D",
"t. c #3D3B3D",
"y. c #3E3E3E",
"u. c gray25",
"i. c #414140",
"p. c #414141",
"a. c #434143",
"s. c gray26",
"d. c #434342",
"f. c #434343",
"g. c #434345",
"h. c #454546",
"j. c #464647",
"k. c #484848",
"l. c #494949",
"z. c #49494B",
"x. c #4A494A",
"c. c gray29",
"v. c #4B4B4B",
"b. c #4C4C4C",
"n. c #4C4C4D",
"m. c gray30",
"M. c #4D4D4E",
"N. c #4E4E4E",
"B. c #504F50",
"V. c #505050",
"C. c gray32",
"Z. c #555555",
"A. c #555556",
"S. c #565556",
"D. c #565656",
"F. c gray34",
"G. c #575758",
"H. c #585758",
"J. c #595759",
"K. c #585858",
"L. c #5A5A5A",
"P. c #5B5B5C",
"I. c #5D5B5D",
"U. c gray36",
"Y. c #5D5D5D",
"T. c #5E5C5E",
"R. c #5F5D5F",
"E. c #5F5F5F",
"W. c #605F60",
"Q. c gray38",
"!. c #626062",
"~. c #636163",
"^. c #626262",
"/. c #636362",
"(. c gray39",
"). c #666466",
"_. c #696769",
"`. c #716F71",
"'. c #727072",
"]. c #747274",
"[. c #939193",
"{. c #949294",
"}. c #9D9A9D",
"|. c #A09DA0",
" X c #A7A5A7",
".X c #A7A6A7",
"XX c #A8A7A8",
"oX c #A9A6A9",
"OX c #AAA8AA",
"+X c #ACA9AC",
"@X c gray68",
"#X c #AFADAF",
"$X c #B0AEB0",
"%X c #B1AEB1",
"&X c #B6B3B6",
"*X c #C0BFC0",
"=X c #C1C0C1",
"-X c #C2C0C2",
";X c #C5C4C5",
":X c #C6C6C6",
">X c #C8C7C8",
",X c #C8C8C8",
"<X c #CDCDCD",
/* pixels */
"                                                                                                    ",
"                                                                                                    ",
"                                                                                                    ",
"                                            k k k k k k                                             ",
"                                          k k f y y y y y                                           ",
"                                        k k k k y y y y y 2                                         ",
"                                      k k k k k F F F F F 2 #                                       ",
"                                      k k y f a._.'.].`.).t.1                                       ",
"                                      k y y k T.|.%X&X&X}.H.y                                       ",
"                                    k f y y k Q.+X-X<X&X.XT.y                                       ",
"                                  k y 2 2 y k ~.#X:X<X:X+XT.f                                       ",
"                                k k y < < 8 y Q.OX-X,X*XXXT.f                                       ",
"                                k k     8 y i D.{.XX#XXX[.H.y                                       ",
"                                          i i %.x.V.V.V.x.8.                                        ",
"                                        k k k i y 8 y y y 2                                         ",
"                                      k k k k y 8 2 2 y 2 2 #                                       ",
"                                    k k k k i 2 < < , 2 g y 2 *                                     ",
"                                    k k k i 2 < < k T [ %.T i 2 #                                   ",
"                                  k k k i 2 # O 8 9.k.c.l.9.T i < X                                 ",
"                                  k k k 8 * O # i i.Z.U.L.m.9.F < X                                 ",
"                                k k k k 2 # O y &.m.Y.(.Q.D.a.H # X                                 ",
"                                k k k k 2 # y &.m.U.(.(.Q.F.d.H < X X                               ",
"                                k k k y 2 2 &.x.Y.Q.(.(.Q.F.d.Y < X X                               ",
"                                k k y 2 < 8 y.D.Q.(.(.(.Q.G.f.Y < X X                               ",
"                                g c i = $ 8 i.F.Q.(.(.(.Q.F.d.H # X X                               ",
"                                c g 8 = * i d.F.Q.(.(.(.Q.F.d.Y < X X                               ",
"                                g g 8 , 8 >.m.U.(.(.(.(.Q.F.f.Y < X X                               ",
"                                c g 8 2 Y l.U.(.(.(.(.(.Q.G.f.Y < X X                               ",
"                                g g 8 2 [ m.Y.(.(.(.(.(.Q.F.d.Y - X .                               ",
"                                c g 8 2 ^ c.Y.(.(.(.(.(.Q.F.f.Y < X .                               ",
"                                c g i , ^ m.Y.(.(.(.(.(.Q.F.f.Y < X X                               ",
"                                g g 8 2 ^ m.Y.(.(.(.(.Q.E.Z.d.Y < X X                               ",
"                                k k y < [ x.Y.Q.(.Q.Q.Q.L.V.a.Y < X .                               ",
"                                k y y < [ x.G.Y.Y.P.P.D.z.f.9.V = O X                               ",
"                                k k y : T f.M.M.M.M.m.h.q.*. .z < X X                               ",
"                                  s 9 < F 9.r.r.r.q.q.6.<.<. .g < X X                               ",
"                                    y < s #.*.*.../ ! X.<.<.{ N < . X                               ",
"                                    y < 8 { <.<.#.U U { -.-./ g = X X                               ",
"                                    y : p ! <.<.{ J U ) #.-.{ N < X                                 ",
"                                    8 : s { <.#.U k V / #.<.#.N < X                                 ",
"                                    y < s *.5...V k F { <.6.*.V < O                                 ",
"                                      = z <.<. .N k N T <.6.#.k < X                                 ",
"                                      # s #.<.#.V k N / <.<. .N 2                                   ",
"                                      # 8 ! -.<.        <...T N                                     ",
"                                        s J /  .        ..U N                                       ",
"                                          F J J         / F s                                       ",
"                                          T k y         ^ V y                                       ",
"                                        T U k 2         T F 2                                       ",
"                                        Y c y           E c y                                       ",
"                                      [ F i 8           T F y 2                                     "
};
