/* XPM */
static char *result[] = {
/* columns rows colors chars-per-pixel */
"50 50 62 1 ",
"  c black",
". c #020202",
"X c #140811",
"o c #160812",
"O c #1A0B16",
"+ c #1A0C20",
"@ c #1F1030",
"# c #280F21",
"$ c #290F22",
"% c #271121",
"& c #2A1023",
"* c #2B1024",
"= c #2B1124",
"- c #2C1024",
"; c #38152E",
": c #2E1331",
"> c #26133A",
", c #3D1732",
"< c #3E1733",
"1 c #2F3133",
"2 c #401835",
"3 c #421836",
"4 c #471A3B",
"5 c #4C1C3F",
"6 c #341741",
"7 c #391B50",
"8 c #391D57",
"9 c #3F1F60",
"0 c #511E43",
"q c #57274B",
"w c #572253",
"e c #59245A",
"r c #5C2662",
"t c #572669",
"y c #5C286D",
"u c #542A7F",
"i c #622A72",
"p c #662D7E",
"a c #5D445A",
"s c #684462",
"d c #694663",
"f c #5E6266",
"g c #5E2F8F",
"h c #672E81",
"j c #603484",
"k c #6A3089",
"l c #603093",
"z c #6D3291",
"x c #7236A0",
"c c #7538A8",
"v c #783AB0",
"b c #7D3EBF",
"n c #8045BF",
"m c #895CBF",
"M c #8F6BBE",
"N c #967ABE",
"B c #9981BE",
"V c #9C88BE",
"C c #A297BE",
"Z c #A59FBD",
"A c #AEB5BD",
"S c None",
/* pixels */
"SSSSSSSSSSSSSSSSSSSSSSSSSSSSSSSSSSSSSSSSSSSSSSSSSS",
"SSSSSSSSSSSSSSSSSSSSSSSSSSSSSSSSSSSSSSSSSSSSSSSSSS",
"SSSSSSSSSSSSSSSSSSSSSSSSSSSSSSSSSSSSSSSSSSSSSSSSSS",
"SSSSSSSSSSSSSSSSSSSSSSSSSSSSSSSSSSSSSSSSSSSSSSSSSS",
"SSSSSSSSSSSSSSSSSSSSSSSSSSSSSSSSSSSSSSSSSSSSSSSSSS",
"SSSSSSSSSSSSSSSSSSSSSSSSSSSSSSSSSSSSSSSSSSSSSSSSSS",
"SSSSSSSSSSSSSSSSSSSSSSSSSSSSSSSSSSSSSSSSSSSSSSSSSS",
"SSSSSSSSSSSSSSSSSSSSSSSSSSSSSSSSSSSSSSSSSSSSSSSSSS",
"SSSSSSSSSSSSSSSSSSSSS        SSSSSSSSSSSSSSSSSSSSS",
"SSSSSSSSSSSSSSSSSSSS;,,,,ggg,;SSSSSSSSSSSSSSSSSSSS",
"SSSSSSSSSSSSSSSSS.  ,0000bbb0,  .SSSSSSSSSSSSSSSSS",
"SSSSSSSSSSSSSSSS 2000rbbbbbbbbbr2 SSSSSSSSSSSSSSSS",
"SSSSSSSSSSSSSSS#*400izbbbbbbbbbzt&SSSSSSSSSSSSSSSS",
"SSSSSSSSSSSSSS $0000xbbbbbbbbbbbx0X SSSSSSSSSSSSSS",
"SSSSSSSSSSSSS 0000rbbbbbbbbbAAAmbbr0 SSSSSSSSSSSSS",
"SSSSSSSSSSSSS 0000rbbbbbbbmNAAAVMbzh SSSSSSSSSSSSS",
"SSSSSSSSSSSSS 0000rbbbbbbbNAAAAACbbb SSSSSSSSSSSSS",
"SSSSSSSSSSSS-,000kcbbbbbbbNAAAAACbbb,=SSSSSSSSSSSS",
"SSSSSSSSSSS $0000xbbbbbbbbMCAAAZBbbbr: SSSSSSSSSSS",
"SSSSSSSSSSS $0000xbbbbbbbbbbAAAmbbbbb9 SSSSSSSSSSS",
"SSSSSSSSSSS $0000xbbbbbbbbbbmmmnbbbbb9 SSSSSSSSSSS",
"SSSSSSSSSSS $0000kcbbbbbbbbbbbbbbbbbx7 SSSSSSSSSSS",
"SSSSSSSSSSS $00000rbbbbbbbbbbbbbbbbb0$ SSSSSSSSSSS",
"SSSSSSSSSSS 6h0000rbbbbbbbbbbbbbbbbb0$ SSSSSSSSSSS",
"SSSSSSSSSSS 9b0000rbbbbbbbbbbbbbbbbb0$ SSSSSSSSSSS",
"SSSSSSSSSSS 9b000000xbbbbbbbbbbbbbr00$ SSSSSSSSSSS",
"SSSSSSSSSSSS89hr0000izbbbbbbbbbbvhw0$%SSSSSSSSSSSS",
"SSSSSSSSSSSSS bp00000rbbbbbbbbbbx000 SSSSSSSSSSSSS",
"SSSSSSSSSSSSS SS000000000bbbbx000000 SSSSSSSSSSSSS",
"SSSSSSSSSSSSSSSadq0000000xxxxk000032.SSSSSSSSSSSSS",
"SSSSSSSSSSSSSS fAs0000000000000000o SSSSSSSSSSSSSS",
"SSSSSSSSSSSSSSSS1jxxe000000000003oSSSSSSSSSSSSSSSS",
"SSSSSSSSSSSSSSSSSuggyrrw000005,,;SSSSSSSSSSSSSSSSS",
"SSSSSSSSSSSSSSSSSS  lbbh00000<  SSSSSSSSSSSSSSSSSS",
"SSSSSSSSSSSSSSSSSSSS>@@+XXXXXOSSSSSSSSSSSSSSSSSSSS",
"SSSSSSSSSSSSSSSSSSSSS        SSSSSSSSSSSSSSSSSSSSS",
"SSSSSSSSSSSSSSSSSSSSSSSSSSSSSSSSSSSSSSSSSSSSSSSSSS",
"SSSSSSSSSSSSSSSSSSSSSSSSSSSSSSSSSSSSSSSSSSSSSSSSSS",
"SSSSSSSSSSSSSSSSSSSSSSSSSSSSSSSSSSSSSSSSSSSSSSSSSS",
"SSSSSSSSSSSSSSSSSSSSSSSSSSSSSSSSSSSSSSSSSSSSSSSSSS",
"SSSSSSSSSSSSSSSSSSSSSSSSSSSSSSSSSSSSSSSSSSSSSSSSSS",
"SSSSSSSSSSSSSSSSSSSSSSSSSSSSSSSSSSSSSSSSSSSSSSSSSS",
"SSSSSSSSSSSSSSSSSSSSSSSSSSSSSSSSSSSSSSSSSSSSSSSSSS",
"SSSSSSSSSSSSSSSSSSSSSSSSSSSSSSSSSSSSSSSSSSSSSSSSSS",
"SSSSSSSSSSSSSSSSSSSSSSSSSSSSSSSSSSSSSSSSSSSSSSSSSS",
"SSSSSSSSSSSSSSSSSSSSSSSSSSSSSSSSSSSSSSSSSSSSSSSSSS",
"SSSSSSSSSSSSSSSSSSSSSSSSSSSSSSSSSSSSSSSSSSSSSSSSSS",
"SSSSSSSSSSSSSSSSSSSSSSSSSSSSSSSSSSSSSSSSSSSSSSSSSS",
"SSSSSSSSSSSSSSSSSSSSSSSSSSSSSSSSSSSSSSSSSSSSSSSSSS",
"SSSSSSSSSSSSSSSSSSSSSSSSSSSSSSSSSSSSSSSSSSSSSSSSSS"
};
