/* XPM */
static char *result[] = {
/* columns rows colors chars-per-pixel */
"50 50 58 1 ",
"  c black",
". c #140811",
"X c #180914",
"o c #190915",
"O c #190A15",
"+ c #1F1030",
"@ c #280F21",
"# c #290F22",
"$ c #271021",
"% c #2B1023",
"& c #2B1024",
"* c #2D1125",
"= c #2E1126",
"- c #38152E",
"; c #2E1331",
": c #27133C",
"> c #391630",
", c #3D1732",
"< c #3E1734",
"1 c #3F1734",
"2 c #381739",
"3 c #421836",
"4 c #4C1C3F",
"5 c #391B50",
"6 c #3F1F60",
"7 c #451D4A",
"8 c #511E43",
"9 c #54204B",
"0 c #572253",
"q c #59245A",
"w c #4D2361",
"e c #46236B",
"r c #5C2662",
"t c #632F6E",
"y c #663E6D",
"u c #622A72",
"i c #642C79",
"p c #595D61",
"a c #684462",
"s c #552A82",
"d c #5D2C84",
"f c #5E2F8F",
"g c #672E81",
"h c #613094",
"j c #6D3291",
"k c #6D349C",
"l c #7236A0",
"z c #783AB0",
"x c #7D3EBF",
"c c #834DBF",
"v c #8654BF",
"b c #895CBF",
"n c #9272BE",
"m c #967ABE",
"M c #868B91",
"N c #A297BE",
"B c #AEB5BD",
"V c None",
/* pixels */
"VVVVVVVVVVVVVVVVVVVVVVVVVVVVVVVVVVVVVVVVVVVVVVVVVV",
"VVVVVVVVVVVVVVVVVVVVVVVVVVVVVVVVVVVVVVVVVVVVVVVVVV",
"VVVVVVVVVVVVVVVVVVVVVVVVVVVVVVVVVVVVVVVVVVVVVVVVVV",
"VVVVVVVVVVVVVVVVVVVVVVVVVVVVVVVVVVVVVVVVVVVVVVVVVV",
"VVVVVVVVVVVVVVVVVVVVVVVVVVVVVVVVVVVVVVVVVVVVVVVVVV",
"VVVVVVVVVVVVVVVVVVVVVVVVVVVVVVVVVVVVVVVVVVVVVVVVVV",
"VVVVVVVVVVVVVVVVVVVVV        VVVVVVVVVVVVVVVVVVVVV",
"VVVVVVVVVVVVVVVVVVVVO....+++.XVVVVVVVVVVVVVVVVVVVV",
"VVVVVVVVVVVVVVVVVV  <8888xxx8<  VVVVVVVVVVVVVVVVVV",
"VVVVVVVVVVVVVVVVV-,,4qlllxxxlkf7>VVVVVVVVVVVVVVVVV",
"VVVVVVVVVVVVVVVV ,888rxxxxxxxxxr, VVVVVVVVVVVVVVVV",
"VVVVVVVVVVVVVV =8888lxxxxxxxxxxxl8o VVVVVVVVVVVVVV",
"VVVVVVVVVVVVVV=,880gzxxxxxxxmmmczg2*VVVVVVVVVVVVVV",
"VVVVVVVVVVVVV 8888rxxxxxxxxxBBBbxxr8 VVVVVVVVVVVVV",
"VVVVVVVVVVVVV 8888rxxxxxxxmBBBBBNxxx VVVVVVVVVVVVV",
"VVVVVVVVVVVV@#888ujxxxxxxxmBBBBBNxxx#$VVVVVVVVVVVV",
"VVVVVVVVVVV &8888lxxxxxxxxmBBBBBNxxx8% VVVVVVVVVVV",
"VVVVVVVVVVV #8888lxxxxxxxxcbBBBnvxxxl5 VVVVVVVVVVV",
"VVVVVVVVVVV #8888lxxxxxxxxxxNNNvxxxxx6 VVVVVVVVVVV",
"VVVVVVVVVVV #8888lxxxxxxxxxxxxxxxxxxx6 VVVVVVVVVVV",
"VVVVVVVVVVV #8888qixxxxxxxxxxxxxxxxxr; VVVVVVVVVVV",
"VVVVVVVVVVV ;r8888rxxxxxxxxxxxxxxxxx8# VVVVVVVVVVV",
"VVVVVVVVVVV 6x8888rxxxxxxxxxxxxxxxxx8# VVVVVVVVVVV",
"VVVVVVVVVVV 6x88880gzxxxxxxxxxxxxxjg8# VVVVVVVVVVV",
"VVVVVVVVVVV ex888888lxxxxxxxxxxxxxr88* VVVVVVVVVVV",
"VVVVVVVVVVVVV xg88888rxxxxxxxxxxl888 VVVVVVVVVVVVV",
"VVVVVVVVVVVVV Vt888880gggxxxxzggu888 VVVVVVVVVVVVV",
"VVVVVVVVVVVVV VV888888888xxxxl888888 VVVVVVVVVVVVV",
"VVVVVVVVVVVVVV pBa8888888888888888. VVVVVVVVVVVVVV",
"VVVVVVVVVVVVVVVpMyrr98888888888841oVVVVVVVVVVVVVVV",
"VVVVVVVVVVVVVVVV hxxr888888888881 VVVVVVVVVVVVVVVV",
"VVVVVVVVVVVVVVVVV:++dllu888883..oVVVVVVVVVVVVVVVVV",
"VVVVVVVVVVVVVVVVVV  sffw,,,,,-  VVVVVVVVVVVVVVVVVV",
"VVVVVVVVVVVVVVVVVVVVV        VVVVVVVVVVVVVVVVVVVVV",
"VVVVVVVVVVVVVVVVVVVVVVVVVVVVVVVVVVVVVVVVVVVVVVVVVV",
"VVVVVVVVVVVVVVVVVVVVVVVVVVVVVVVVVVVVVVVVVVVVVVVVVV",
"VVVVVVVVVVVVVVVVVVVVVVVVVVVVVVVVVVVVVVVVVVVVVVVVVV",
"VVVVVVVVVVVVVVVVVVVVVVVVVVVVVVVVVVVVVVVVVVVVVVVVVV",
"VVVVVVVVVVVVVVVVVVVVVVVVVVVVVVVVVVVVVVVVVVVVVVVVVV",
"VVVVVVVVVVVVVVVVVVVVVVVVVVVVVVVVVVVVVVVVVVVVVVVVVV",
"VVVVVVVVVVVVVVVVVVVVVVVVVVVVVVVVVVVVVVVVVVVVVVVVVV",
"VVVVVVVVVVVVVVVVVVVVVVVVVVVVVVVVVVVVVVVVVVVVVVVVVV",
"VVVVVVVVVVVVVVVVVVVVVVVVVVVVVVVVVVVVVVVVVVVVVVVVVV",
"VVVVVVVVVVVVVVVVVVVVVVVVVVVVVVVVVVVVVVVVVVVVVVVVVV",
"VVVVVVVVVVVVVVVVVVVVVVVVVVVVVVVVVVVVVVVVVVVVVVVVVV",
"VVVVVVVVVVVVVVVVVVVVVVVVVVVVVVVVVVVVVVVVVVVVVVVVVV",
"VVVVVVVVVVVVVVVVVVVVVVVVVVVVVVVVVVVVVVVVVVVVVVVVVV",
"VVVVVVVVVVVVVVVVVVVVVVVVVVVVVVVVVVVVVVVVVVVVVVVVVV",
"VVVVVVVVVVVVVVVVVVVVVVVVVVVVVVVVVVVVVVVVVVVVVVVVVV",
"VVVVVVVVVVVVVVVVVVVVVVVVVVVVVVVVVVVVVVVVVVVVVVVVVV"
};
