/* XPM */
static char *result[] = {
/* columns rows colors chars-per-pixel */
"50 50 123 2 ",
"   c #4B222E",
".  c #5C232E",
"X  c #4F2531",
"o  c #4F2B35",
"O  c #552534",
"+  c #5A2535",
"@  c #5B2936",
"#  c #572639",
"$  c #5A2639",
"%  c #542A39",
"&  c #5B293A",
"*  c #58303C",
"=  c #632A2F",
"-  c #692D2F",
";  c #622633",
":  c #642B35",
">  c #6A2D36",
",  c #642C3A",
"<  c #6A2D3A",
"1  c #702F35",
"2  c #6B3237",
"3  c #663039",
"4  c #6C323C",
"5  c #713632",
"6  c #72353E",
"7  c #79373B",
"8  c #75393E",
"9  c #79393C",
"0  c #7C413C",
"q  c #5F3342",
"w  c #5D3842",
"e  c #6D3442",
"r  c #6A3943",
"t  c #663D49",
"y  c #683E4A",
"u  c #723642",
"i  c #783740",
"p  c #753A43",
"a  c #7B3C44",
"s  c #753B49",
"d  c #7C3E49",
"f  c #7D4146",
"g  c #7D424A",
"h  c #7F4C4E",
"j  c #704551",
"k  c #754B57",
"l  c #7E555A",
"z  c #814136",
"x  c #8D453E",
"c  c #813E45",
"v  c #823E49",
"b  c #844445",
"n  c #8A4546",
"m  c #854946",
"M  c #8C4944",
"N  c #85444B",
"B  c #8A454A",
"V  c #86494B",
"C  c #8A4B4B",
"Z  c #924B45",
"A  c #984D47",
"S  c #934D49",
"D  c #8E504C",
"F  c #965146",
"G  c #9B5245",
"H  c #94534B",
"J  c #99544B",
"K  c #95594E",
"L  c #9C5B4D",
"P  c #824D52",
"I  c #8B4E54",
"U  c #834F5A",
"Y  c #8C5452",
"T  c #895659",
"R  c #965651",
"E  c #9C5651",
"W  c #935A53",
"Q  c #9C5B52",
"!  c #925E5F",
"~  c #9A5E59",
"^  c #A25B4C",
"/  c #A35D52",
"(  c #9F624B",
")  c #9D625A",
"_  c #A4624D",
"`  c #AA634E",
"'  c #A56155",
"]  c #A96454",
"[  c #AE6A55",
"{  c #A56259",
"}  c #AC665A",
"|  c #A36858",
" . c #AB695A",
".. c #B06751",
"X. c #B36B56",
"o. c #B86F57",
"O. c #B46D5A",
"+. c #AF705C",
"@. c #BD7557",
"#. c #BD7955",
"$. c #B5725C",
"%. c #BB745B",
"&. c #B67C5B",
"*. c #BD795C",
"=. c #8C5B60",
"-. c #966563",
";. c #9D6063",
":. c #A06861",
">. c #AB6E62",
",. c #AA7065",
"<. c #B37262",
"1. c #BC7562",
"2. c #BC7963",
"3. c #C07A57",
"4. c #C0765A",
"5. c #C1795C",
"6. c #C17B62",
"7. c #BC8065",
"8. c #BC8069",
"9. c #BE8775",
"0. c #C1876D",
"q. c #C5947A",
"w. c None",
/* pixels */
"w.w.w.w.w.w.w.w.w.w.w.w.w.w.w.w.w.w.w.w.w.w.w.w.w.w.w.w.w.w.w.w.w.w.w.w.w.w.w.w.w.w.w.w.w.w.w.w.w.w.",
"w.w.w.w.w.w.w.w.w.w.w.w.w.w.w.w.w.w.w.w.w.w.w.w.w.w.w.w.w.w.w.w.w.w.w.w.w.w.w.w.w.w.w.w.w.w.w.w.w.w.",
"w.w.w.w.w.w.w.w.w.w.w.w.w.w.w.w.w.w.w.w.w.w.w.w.w.w.w.w.w.w.w.w.w.w.w.w.w.w.w.w.w.w.w.w.w.w.w.w.w.w.",
"w.w.w.w.w.w.w.w.w.w.w.w.w.w.w.w.w.w.w.w.w.w.w.w.w.w.V B -.w.w.w.w.w.w.w.w.w.w.w.w.w.w.w.w.w.w.w.w.w.",
"w.w.w.w.w.w.w.w.w.w.w.w.w.w.w.w.w.w.w.w.w.w.w.w.! b B n Q >.w.w.w.w.w.w.w.w.w.w.w.w.w.w.w.w.w.w.w.w.",
"w.w.w.w.w.w.w.w.w.w.w.w.w.w.w.w.w.w.w.w.w.w.w.I M H A F O.*.9.w.w.w.w.w.w.w.w.w.w.w.w.w.w.w.w.w.w.w.",
"w.w.w.w.w.w.w.w.w.w.w.w.w.w.w.w.w.w.w.w.w.w.m B Q *.%.%.6.*.} Y w.w.w.w.w.w.w.w.w.w.w.w.w.w.w.w.w.w.",
"w.w.w.w.w.w.w.w.w.w.w.w.w.w.w.w.w.w.w.w.w.) O.$.%.5.4...A A C I =.w.w.w.w.w.w.w.w.w.w.w.w.w.w.w.w.w.",
"w.w.w.w.w.w.w.w.w.w.w.w.w.w.w.w.w.w.w.w.w.X./ L L ^ ^ A B B n B B w.w.w.w.w.w.w.w.w.w.w.w.w.w.w.w.w.",
"w.w.w.w.w.w.w.w.w.w.w.w.w.w.w.w.w.w.w.w.2.%.A M n n b B B n B B b l w.w.w.w.w.w.w.w.w.w.w.w.w.w.w.w.",
"w.w.w.w.w.w.w.w.w.w.w.w.w.w.w.w.w.w.w.w.2.[ n n x b N B v n n B f O w.w.w.w.w.w.w.w.w.w.w.w.w.w.w.w.",
"w.w.w.w.w.w.w.w.w.w.w.w.w.w.w.w.w.w.w.w.w.2.J n n n N p > n n 6 @ + w.w.w.w.w.w.w.w.w.w.w.w.w.w.w.w.",
"w.w.w.w.w.w.w.w.w.w.w.w.w.w.w.w.w.w.w.w.w.8 / } n B b ; . v B u $ + w.w.w.w.w.w.w.w.w.w.w.w.w.w.w.w.",
"w.w.w.w.w.w.w.w.w.w.w.w.w.w.w.w.w.w.w.w.w.+ p R c 9 N < + v B 4 $ O w.w.w.w.w.w.w.w.w.w.w.w.w.w.w.w.",
"w.w.w.w.w.w.w.w.w.w.w.w.w.w.w.w.w.w.w.w.w.+ + s 6 7 B u ; n B e & O w.w.w.w.w.w.w.w.w.w.w.w.w.w.w.w.",
"w.w.w.w.w.w.w.w.w.w.w.w.w.w.w.w.w.w.w.w.w.+ + + $ u B i + B v 4 O O w.w.w.w.w.w.w.w.w.w.w.w.w.w.w.w.",
"w.w.w.w.w.w.w.w.w.w.w.w.w.w.w.w.w.w.w.w.w.+ + @ & s v i ; B B e O O o w.w.w.w.w.w.w.w.w.w.w.w.w.w.w.",
"w.w.w.w.w.w.w.w.w.w.w.w.w.w.w.w.w.w.w.w.P g : . . = B B v n 7 + # # X w.w.w.w.w.w.w.w.w.w.w.w.w.w.w.",
"w.w.w.w.w.w.w.w.w.w.w.w.w.w.w.w.w.w.w.w.C S / L L E / B c B u + # + O w.w.w.w.w.w.w.w.w.w.w.w.w.w.w.",
"w.w.w.w.w.w.w.w.w.w.w.w.w.w.w.w.w.w.D K J / 5.%.*.*.} S n N < $ $ $ O w.w.w.w.w.w.w.w.w.w.w.w.w.w.w.",
"w.w.w.w.w.w.w.w.w.w.w.w.w.w.w.w.w.U Q *.*.%.%.$.$.$.Z E H d ; + + + O w.w.w.w.w.w.w.w.w.w.w.w.w.w.w.",
"w.w.w.w.w.w.w.w.w.w.w.w.w.w.w.w.w.; V *.3.[ M M M x M n B a + & @ + $ w.w.w.w.w.w.w.w.w.w.w.w.w.w.w.",
"w.w.w.w.w.w.w.w.w.w.w.w.w.w.w.w.j + : Q $.Z B b B n b B < ; + + + 4 f T w.w.w.w.w.w.w.w.w.w.w.w.w.w.",
"w.w.w.w.w.w.w.w.w.w.w.w.w.w.w.w.y & + b E B M n n B N N , + # $ 4 a J ,.w.w.w.w.w.w.w.w.w.w.w.w.w.w.",
"w.w.w.w.w.w.w.w.w.w.w.w.w.w.w.w.O + + + > v B S B B n 4 @ O $ : M F o.O.W w.w.w.w.w.w.w.w.w.w.w.w.w.",
"w.w.w.w.w.w.w.w.w.w.w.w.w.w.w.  @ $ $ + u + ~ <.n n d + + $ + 9 H %.2.Z n b w.w.w.w.w.w.w.w.w.w.w.w.",
"w.w.w.w.w.w.w.w.w.w.w.w.w.w.w.O $ O e N , & + c B B ; + $ @ 4  .1._ M n n B m g w.w.w.w.w.w.w.w.w.w.",
"w.w.w.w.w.w.w.w.w.w.w.w.w.w.w.4 + # u B , $ + < a i + + & 4 L $.L H n n B B N : w.w.w.w.w.w.w.w.w.w.",
"w.w.w.w.w.w.w.w.w.q.2.*.*.1.E v : + a d & + + + a 9 + + ; K 5.[ n B B B B a e O w.w.w.w.w.w.w.w.w.w.",
"w.w.w.w.w.w.w.w.w.*.%.X.X.X.S B 6 < B < + $ + < M f + 3 7 %.4.^ n S n B N : $ O w.w.w.w.w.w.w.w.w.w.",
"w.w.w.w.w.w.w.w.0.4./ M M n B n B B N e + + + g C 2 @ D 5.%.%.%.M ^ S n 6 + $ O w.w.w.w.w.w.w.w.w.w.",
"w.w.w.w.w.w.w.w.*.o.S B B b B B B B i & + O + N B 2 2 <.5.X.` 4.} Z M a + # + o w.w.w.w.w.w.w.w.w.w.",
"w.w.w.w.w.w.w.7.#.X.B B B B n B B C 8 + O , p C E / : 9 z X.$.%.G n B , + . O X w.w.w.w.w.w.w.w.w.w.",
"w.w.w.w.w.w.w.] ] Q B B n n n B n N 4 + O : S L X.%.0 $ . C H Q M V a + + O + # w.w.w.w.w.w.w.w.w.w.",
"w.w.w.w.w.w.) n b B B B B b c v g s + + O + Y *.4.4.{ $ + + + 4 f f : + + + + 2 ) -.w.w.w.w.w.w.w.w.",
"w.w.w.w.w.h b B B V N B B 2 + . . + + + + + . +.*.*.b @ + + + O O . + O + O + ) H f p w.w.w.w.w.w.w.",
"w.w.w.w.w.I N u : > 7 B d ; $ $ O $ $ @ + $ + 9 ] S 1 e + e + + O . + + . + 5 K S B N W w.w.w.w.w.w.",
"w.w.w.w.w.e e , + : b B < & $ + + + @ . + & $ : H 7 p u a a 4 u 0 J J K R J ( X.S n n ] 8.w.w.w.w.w.",
"w.w.w.w.k + + + + a B s + + ; V C V C n b u 6 4 6 , u p N u a K ] 5.5.%.] %.#.5./ / J / ' C w.w.w.w.",
"w.w.w.w.+ + + O : B b : + : 5 6.6.6.5.%.<.B N g + + : b g e g { 5.3.@.] x %.3.%.4.6./ M B b Y w.w.w.",
"w.w.w.& O # # # a B 7 + > { 1.*.4.4.6./ n n > g $ O + + . . = = 2.*.F M ^ 4.6.^ x c n N B 6 + w.w.w.",
"w.w.w.w O # # e N B B n  .*.J Z Z Z B B B v a : + + . b <.O.E 4 2 - b Q 5.*.Z B A v B N @ & w.w.w.w.",
"w.w.w.& + + $ , v B c / #._ Z B n n n N 6 > d a 4 + >  .4.X.S d $ @ 3 4 L Q B B n c < < $ # r w.w.w.",
"w.w.w O + O & u N B n / o.A M C N B N a @ : d N 3 + C / / ^ v u $ O O $ p a u d 7 < + + # $ r w.w.w.",
"w.w.y O $ + < N B n n n [ M n C n n N 4 $ < b N + . :.M n M 4 ; + + , : ; & , < . + + O $ + p w.w.w.",
"w.w.& $ $ & N B n n n n <.R b B N N p + & < B v + @ 4 N B p + & $ @ ;.n 6 $ + & + # . + + . | &.w.w.",
"w.* # # , v B B n n u > 6 , , , , , + + , d B b + + + : g : + & , g C B u $ # $ # $ + + , b J *.8.w.",
"w.+ & s v B B B 7 < , + + $ $ + $ $ $ $ & u B b + + $ $ , & $ $ @ : b d , $ # + # # + + d b ] #.' w.",
"# , 4 N C B v g , ; $ $ $ $ $ $ $ $ $ & & u B d , + $ $ $ $ $ $ $ + s u + $ $ $ & & + : C x $.5.^ V ",
"w.w.w.w.w.w.w.w.w.w.w.w.w.w.w.w.w.w.w.w.w.w.w.w.w.w.w.w.w.w.w.w.w.w.w.w.w.w.w.w.w.w.w.w.w.w.w.w.Q w."
};
