/* XPM */
static char *result[] = {
/* columns rows colors chars-per-pixel */
"50 94 182 2 ",
"   c #60281C",
".  c #4C1C2D",
"X  c #421B2B",
"o  c #531E26",
"O  c #5A1E26",
"+  c #551F2B",
"@  c #591F29",
"#  c #4D1E31",
"$  c #511F30",
"%  c #47212D",
"&  c #572025",
"*  c #5B2225",
"=  c #56222E",
"-  c #5B232D",
";  c #4E2031",
":  c #4F2A35",
">  c #562534",
",  c #5A2535",
"<  c #552935",
"1  c #5B2935",
"2  c #572539",
"3  c #5A2539",
"4  c #552939",
"5  c #5B2939",
"6  c #5B303E",
"7  c #612227",
"8  c #662C27",
"9  c #63252C",
"0  c #622A2D",
"q  c #692E2D",
"w  c #612533",
"e  c #692735",
"r  c #642934",
"t  c #6A2C34",
"y  c #642B3A",
"u  c #6A2D3A",
"i  c #702E36",
"p  c #653334",
"a  c #6D3135",
"s  c #65313C",
"d  c #6D323D",
"f  c #713336",
"g  c #783B37",
"h  c #72343D",
"j  c #78353C",
"k  c #75393D",
"l  c #7B3B3B",
"z  c #733A37",
"x  c #7E423C",
"c  c #573740",
"v  c #573B42",
"b  c #593941",
"n  c #6C3441",
"m  c #623B43",
"M  c #723642",
"N  c #7A3642",
"B  c #743A43",
"V  c #7B3C44",
"C  c #743B48",
"Z  c #7C3E49",
"A  c #734145",
"S  c #7C4345",
"D  c #7D424B",
"F  c #7D4A4F",
"G  c #6F4651",
"H  c #694953",
"J  c #7D4452",
"K  c #843F3A",
"L  c #844137",
"P  c #85423D",
"I  c #8B443C",
"U  c #8B493D",
"Y  c #904439",
"T  c #924B3D",
"R  c #813F44",
"E  c #813F48",
"W  c #854445",
"Q  c #8A4544",
"!  c #864845",
"~  c #8C4945",
"^  c #85444B",
"/  c #8A454A",
"(  c #85494C",
")  c #8A494C",
"_  c #924C43",
"`  c #994E47",
"'  c #91474B",
"]  c #924C4A",
"[  c #955345",
"{  c #9B5545",
"}  c #94534B",
"|  c #9C544D",
" . c #9C5B4C",
".. c #854651",
"X. c #8B4650",
"o. c #854952",
"O. c #8A4B52",
"+. c #815156",
"@. c #8B5353",
"#. c #875D54",
"$. c #8E5951",
"%. c #8C535C",
"&. c #945452",
"*. c #9C5B54",
"=. c #9B5E5C",
"-. c #955C56",
";. c #A15747",
":. c #A15C46",
">. c #A0564A",
",. c #A25B4C",
"<. c #A15651",
"1. c #A35C52",
"2. c #A05F58",
"3. c #9C6056",
"4. c #9E615B",
"5. c #A4634D",
"6. c #AB644C",
"7. c #A46254",
"8. c #AB6454",
"9. c #AC6A55",
"0. c #A3635B",
"q. c #AE6B5B",
"w. c #B46C54",
"e. c #B36D5B",
"r. c #B86D5B",
"t. c #B16655",
"y. c #AE735C",
"u. c #B67256",
"i. c #BB7456",
"p. c #BE7A55",
"a. c #B4725B",
"s. c #BC755C",
"d. c #B57B5C",
"f. c #BE7A5B",
"g. c #B47A56",
"h. c #855C65",
"j. c #886262",
"k. c #96717B",
"l. c #A16462",
"z. c #A86263",
"x. c #AA6B62",
"c. c #A76B66",
"v. c #B46C63",
"b. c #AE7062",
"n. c #AF766B",
"m. c #B57164",
"M. c #BB7562",
"N. c #B77D65",
"B. c #BD7B63",
"V. c #B3736C",
"C. c #B7796E",
"Z. c #BD7B6B",
"A. c #AC7B72",
"S. c #B47772",
"D. c #BD7E73",
"F. c #C17757",
"G. c #C17A56",
"H. c #C1765A",
"J. c #C17A5C",
"K. c #C07660",
"L. c #C27C64",
"P. c #C37C6A",
"I. c #C37F73",
"U. c #B98363",
"Y. c #BD8572",
"T. c #BC847E",
"R. c #B48475",
"E. c #C2816C",
"W. c #C58071",
"Q. c #997984",
"!. c #9C8288",
"~. c #A98382",
"^. c #BE8081",
"/. c #B98B8B",
"(. c #B59297",
"). c #BF9C99",
"_. c #C18E85",
"`. c #CB9A84",
"'. c #D2A292",
"]. c #E0B39F",
"[. c #E8BBA1",
"{. c None",
/* pixels */
"{.{.{.{.{.{.{.{.{.{.{.{.{.{.{.{.{.{.{.{.{.{.{.{.{.{.{.{.{.{.{.{.{.{.{.{.{.{.{.{.{.{.{.{.{.{.{.{.{.{.",
"{.{.{.{.{.{.{.{.{.{.{.{.{.{.{.{.{.{.{.{.{.{.{.{.{.{.{.{.{.{.{.{.{.{.{.{.{.{.{.{.{.{.{.{.{.{.{.{.{.{.",
"{.{.{.{.{.{.{.{.{.{.{.{.{.{.{.{.{.{.{.{.{.{.{.{.{.{.{.{.{.{.{.{.{.{.{.{.{.{.{.{.{.{.{.{.{.{.{.{.{.{.",
"{.{.{.{.{.{.{.{.{.{.{.{.{.{.{.{.{.{.{.{.{.{.{.{.{.{.{.{.{.{.{.{.{.{.{.{.{.{.{.{.{.{.{.{.{.{.{.{.{.{.",
"{.{.{.{.{.{.{.{.{.{.{.{.{.{.{.{.{.{.{.{.{.{.{.{.{.{.{.{.{.{.{.{.{.{.{.{.{.{.{.{.{.{.{.{.{.{.{.{.{.{.",
"{.{.{.{.{.{.{.{.{.{.{.{.{.{.{.{.{.{.{.{.{.{.{.{.{.{.F ( {.{.{.{.{.{.{.{.{.{.{.{.{.{.{.{.{.{.{.{.{.{.",
"{.{.{.{.{.{.{.{.{.{.{.{.{.{.{.{.{.{.{.{.{.{.{.{.{.{.O.) ~.{.{.{.{.{.{.{.{.{.{.{.{.{.{.{.{.{.{.{.{.{.",
"{.{.{.{.{.{.{.{.{.{.{.{.{.{.{.{.{.{.{.{.{.{.{.{.{.B ^ Q k A {.{.{.{.{.{.{.{.{.{.{.{.{.{.{.{.{.{.{.{.",
"{.{.{.{.{.{.{.{.{.{.{.{.{.{.{.{.{.{.{.{.{.{.{.{./.X./ Q 1.=.{.{.{.{.{.{.{.{.{.{.{.{.{.{.{.{.{.{.{.{.",
"{.{.{.{.{.{.{.{.{.{.{.{.{.{.{.{.{.{.{.{.{.{.{.{.S ^ Q W m.L.{.{.{.{.{.{.{.{.{.{.{.{.{.{.{.{.{.{.{.{.",
"{.{.{.{.{.{.{.{.{.{.{.{.{.{.{.{.{.{.{.{.{.{.{.D Q ! U U s.G.'.{.{.{.{.{.{.{.{.{.{.{.{.{.{.{.{.{.{.{.",
"{.{.{.{.{.{.{.{.{.{.{.{.{.{.{.{.{.{.{.{.{.{.{./ | u.r.s.s.i.x.{.{.{.{.{.{.{.{.{.{.{.{.{.{.{.{.{.{.{.",
"{.{.{.{.{.{.{.{.{.{.{.{.{.{.{.{.{.{.{.{.{.{.K / { f.J.G.L.K.1.E {.{.{.{.{.{.{.{.{.{.{.{.{.{.{.{.{.{.",
"{.{.{.{.{.{.{.{.{.{.{.{.{.{.{.{.{.{.{.{.{.T.6.8.6.G.G.w.8.1.| / {.{.{.{.{.{.{.{.{.{.{.{.{.{.{.{.{.{.",
"{.{.{.{.{.{.{.{.{.{.{.{.{.{.{.{.{.{.{.{.{._ L.P.L.J.J.w.K K W ) S {.{.{.{.{.{.{.{.{.{.{.{.{.{.{.{.{.",
"{.{.{.{.{.{.{.{.{.{.{.{.{.{.{.{.{.{.{.{.{.6.w.e.e.e.r.8.' / Q / ( {.{.{.{.{.{.{.{.{.{.{.{.{.{.{.{.{.",
"{.{.{.{.{.{.{.{.{.{.{.{.{.{.{.{.{.{.{.{.{.s.T I I I I P / / / / / {.{.{.{.{.{.{.{.{.{.{.{.{.{.{.{.{.",
"{.{.{.{.{.{.{.{.{.{.{.{.{.{.{.{.{.{.{.{.d.M.] U ~ Q U Q / / Q / / (.{.{.{.{.{.{.{.{.{.{.{.{.{.{.{.{.",
"{.{.{.{.{.{.{.{.{.{.{.{.{.{.{.{.{.{.{.{.d.w.Q Q Q Q ^ / / Q / / ( m {.{.{.{.{.{.{.{.{.{.{.{.{.{.{.{.",
"{.{.{.{.{.{.{.{.{.{.{.{.{.{.{.{.{.{.{.{.E.9.W Q Q W / ..' / Q / o., {.{.{.{.{.{.{.{.{.{.{.{.{.{.{.{.",
"{.{.{.{.{.{.{.{.{.{.{.{.{.{.{.{.{.{.{.{.} m.~ Q Q Q / ^ N / Q l C , {.{.{.{.{.{.{.{.{.{.{.{.{.{.{.{.",
"{.{.{.{.{.{.{.{.{.{.{.{.{.{.{.{.{.{.{.{.& B.U ~ Q Q ^ N 7 / Q e > , {.{.{.{.{.{.{.{.{.{.{.{.{.{.{.{.",
"{.{.{.{.{.{.{.{.{.{.{.{.{.{.{.{.{.{.{.{.- m.[ ] Q Q ^ M w ) E e , 1 {.{.{.{.{.{.{.{.{.{.{.{.{.{.{.{.",
"{.{.{.{.{.{.{.{.{.{.{.{.{.{.{.{.{.{.{.{.> - v.m./ / O.@ @ X./ r , 5 {.{.{.{.{.{.{.{.{.{.{.{.{.{.{.{.",
"{.{.{.{.{.{.{.{.{.{.{.{.{.{.{.{.{.{.{.{., + V.M.) Q ^ - @ X.X.y 2 5 {.{.{.{.{.{.{.{.{.{.{.{.{.{.{.{.",
"{.{.{.{.{.{.{.{.{.{.{.{.{.{.{.{.{.{.{.{.> , B &.R W ) h , X./ e , 5 {.{.{.{.{.{.{.{.{.{.{.{.{.{.{.{.",
"{.{.{.{.{.{.{.{.{.{.{.{.{.{.{.{.{.{.{.{.> w + O.V l / B , ) ) r 1 1 {.{.{.{.{.{.{.{.{.{.{.{.{.{.{.{.",
"{.{.{.{.{.{.{.{.{.{.{.{.{.{.{.{.{.{.{.{.> 3 3 B n D W V > / / w 2 2 {.{.{.{.{.{.{.{.{.{.{.{.{.{.{.{.",
"{.{.{.{.{.{.{.{.{.{.{.{.{.{.{.{.{.{.{.{.> 1 , , , D Q V , / ^ w 2 > {.{.{.{.{.{.{.{.{.{.{.{.{.{.{.{.",
"{.{.{.{.{.{.{.{.{.{.{.{.{.{.{.{.{.{.{.{.> 4 2 3 n Z W V , ) / w 2 < {.{.{.{.{.{.{.{.{.{.{.{.{.{.{.{.",
"{.{.{.{.{.{.{.{.{.{.{.{.{.{.{.{.{.{.{.{.= < 5 5 3 D ^ N w X.^ y > < b {.{.{.{.{.{.{.{.{.{.{.{.{.{.{.",
"{.{.{.{.{.{.{.{.{.{.{.{.{.{.{.{.{.{.{.{.= = 1 1 3 Z / V 7 / ^ y < > : {.{.{.{.{.{.{.{.{.{.{.{.{.{.{.",
"{.{.{.{.{.{.{.{.{.{.{.{.{.{.{.{.{.{.{.{.C D - 3 , u / / V Q V 3 4 , < {.{.{.{.{.{.{.{.{.{.{.{.{.{.{.",
"{.{.{.{.{.{.{.{.{.{.{.{.{.{.{.{.{.{.{.{.( ) 9 * @ O ' ' / Q h 3 4 , 4 {.{.{.{.{.{.{.{.{.{.{.{.{.{.{.",
"{.{.{.{.{.{.{.{.{.{.{.{.{.{.{.{.{.{.{.{./ ( W l l g &.E / W M , 4 2 , {.{.{.{.{.{.{.{.{.{.{.{.{.{.{.",
"{.{.{.{.{.{.{.{.{.{.{.{.{.{.{.{.{.{.{.{.W | K.P.Z.B.P.Q Q Q C 3 3 3 4 {.{.{.{.{.{.{.{.{.{.{.{.{.{.{.",
"{.{.{.{.{.{.{.{.{.{.{.{.{.{.{.{.{.{.) _ ~ { H.i.i.f.Z.Q Q / n , 2 3 4 {.{.{.{.{.{.{.{.{.{.{.{.{.{.{.",
"{.{.{.{.{.{.{.{.{.{.{.{.{.{.{.{.{.h.} a.a.s.H.p.f.J.` | _ ..w 3 3 2 4 {.{.{.{.{.{.{.{.{.{.{.{.{.{.{.",
"{.{.{.{.{.{.{.{.{.{.{.{.{.{.{.{.{.C *.J.p.f.f.L.L.L.Q <._ ^ 3 , 1 2 4 {.{.{.{.{.{.{.{.{.{.{.{.{.{.{.",
"{.{.{.{.{.{.{.{.{.{.{.{.{.{.{.{.{.n ! i.F.a. .1.7.,.Q Q Q ^ , 1 1 3 1 {.{.{.{.{.{.{.{.{.{.{.{.{.{.{.",
"{.{.{.{.{.{.{.{.{.{.{.{.{.{.{.{.{.> f p.G.q.K K P L Q Q ) o., 3 , > 1 {.{.{.{.{.{.{.{.{.{.{.{.{.{.{.",
"{.{.{.{.{.{.{.{.{.{.{.{.{.{.{.{.{., d a.G.8.) / ) / P / ^ D 1 3 3 w r m {.{.{.{.{.{.{.{.{.{.{.{.{.{.",
"{.{.{.{.{.{.{.{.{.{.{.{.{.{.{.{.{., w 2.s.~ / Q / W W / - 3 3 2 3 n O.o.{.{.{.{.{.{.{.{.{.{.{.{.{.{.",
"{.{.{.{.{.{.{.{.{.{.{.{.{.{.{.{.G , 1 0.P.W Q Q Q Q / ^ w , , , O h Q $.{.{.{.{.{.{.{.{.{.{.{.{.{.{.",
"{.{.{.{.{.{.{.{.{.{.{.{.{.{.{.{.6 1 , d l / ' / Q ^ W V > > 2 > R W v.x.{.{.{.{.{.{.{.{.{.{.{.{.{.{.",
"{.{.{.{.{.{.{.{.{.{.{.{.{.{.{.{.> 1 , - O ) / P / / / k 1 > 2 , / P B.B.$.{.{.{.{.{.{.{.{.{.{.{.{.{.",
"{.{.{.{.{.{.{.{.{.{.{.{.{.{.{.!.1 < 2 1 M N &.*./ Q / a , , 2 r ~ ,.s.6.} '.{.{.{.{.{.{.{.{.{.{.{.{.",
"{.{.{.{.{.{.{.{.{.{.{.{.{.{.{.% 2 1 , 2 o.2 n.Z./ W ( = 1 1 2 ^ U s.P.I ) z {.{.{.{.{.{.{.{.{.{.{.{.",
"{.{.{.{.{.{.{.{.{.{.{.{.{.{.{.< 2 2 1 1 D 3 l.m./ Q Z 3 1 , 5 Q T u.s.Q / Q A.{.{.{.{.{.{.{.{.{.{.{.",
"{.{.{.{.{.{.{.{.{.{.{.{.{.{.{.5 , 2 r ^ w 2 r / / ) r , , , n V.f.5.P Q / ) ! {.{.{.{.{.{.{.{.{.{.{.",
"{.{.{.{.{.{.{.{.{.{.{.{.{.{.{.1 , 2 u / - , $ ../ ) 1 3 2 3 a s.B.7.Q Q / W W S {.{.{.{.{.{.{.{.{.{.",
"{.{.{.{.{.{.{.{.{.{.{.{.{.{.{.C 2 4 d ^ 2 , , u j i 1 , 3 r 8.i. .) / Q / ' / s {.{.{.{.{.{.{.{.{.{.",
"{.{.{.{.{.{.{.{.{.{.a.e.u.a.P ^ , 3 e / , , , , i 9 2 > w r L.L.Q W / / / ' ..> {.{.{.{.{.{.{.{.{.{.",
"{.{.{.{.{.{.{.{.{.[.L.L.J.U.] ^ w 3 M R , , , 1 j h , , , P H.w.Q / ] / ) V C 3 {.{.{.{.{.{.{.{.{.{.",
"{.{.{.{.{.{.{.{.{.y.s.J.f.f.' ^ w , / e , , , 3 R ) , 1 9 I.F.T / / Q / ) r 3 < {.{.{.{.{.{.{.{.{.{.",
"{.{.{.{.{.{.{.{.{.f.s.M.M.s.Q / 9 w ( u , 3 , w ' ( , > 9 K.H.T I _ Q / ) e 3 5 {.{.{.{.{.{.{.{.{.{.",
"{.{.{.{.{.{.{.{.{.p.,.T _ T ' Q E E / e 3 3 , ( ~ a < x m.L.J.M.Q *.~ Q h , 2 , {.{.{.{.{.{.{.{.{.{.",
"{.{.{.{.{.{.{.{.N.H.| Q / I / / / / / n 2 3 , ) ~ 1 = P L.J.J.J.K 1.Q Q h 2 2 5 {.{.{.{.{.{.{.{.{.{.",
"{.{.{.{.{.{.{.{.B.s.] Q Q ! Q Q / / R w 2 2 , / / r - 3.s.J.w.i.0.` Q ^ r , 2 4 {.{.{.{.{.{.{.{.{.{.",
"{.{.{.{.{.{.{.{.p.s.Q / / / Q / / / V , , > 1 W Q 9 - E.L.s.;.F.P.Y Q D > 2 , < {.{.{.{.{.{.{.{.{.{.",
"{.{.{.{.{.{.{.`.F.r./ / / / / / / / S 1 < 5 d ) ) K 1  .,.M.8.H.t.Q / C , , > > {.{.{.{.{.{.{.{.{.{.",
"{.{.{.{.{.{.{.d.G.K.E Q Q Q Q / / / V > , d / / <.P.- &   B.L.s.L ~ ( - , , > > {.{.{.{.{.{.{.{.{.{.",
"{.{.{.{.{.{.{.E.J.v./ / / Q Q / / / S > > s ) Q >.J.7 1 1 Z.Z.B.Q ) / 3 > > , 2 {.{.{.{.{.{.{.{.{.{.",
"{.{.{.{.{.{.R.[ _ ~ / / / / Q / / / u > 1 - 0.e.K.L.x.1 < q q / ) ( r - 1 - 3 3 _.{.{.{.{.{.{.{.{.{.",
"{.{.{.{.{.{.n./ Q W / / / ) ) O.) o.1 > - > C.f.G.F.D.4 , * - S o.O.1 , - , 2 - C.#.{.{.{.{.{.{.{.{.",
"{.{.{.{.{.{.*.~ W / / / ( V d h M n , 1 > 3 ( E.p.F.z.1 4 3 > n d h 1 1 , > 2 S 2.@.{.{.{.{.{.{.{.{.",
"{.{.{.{.{.p W ) / ) / ) ) u - = + , 3 1 > , - P.f.L.W , 3 3 , , * > , , , > , =.! W B {.{.{.{.{.{.{.",
"{.{.{.{.{.( ) W E E / W ..u , 1 , , , 1 1 3 > x.s.v./ y , 3 3 , > 1 1 3 2 , @ *./ / ( {.{.{.{.{.{.{.",
"{.{.{.{.{.) ( h 9 r j / E , 2 5 5 4 3 1 , , , 7 5.Q 7 C , J 3 3 > w r 1 1 1 0  ./ / / S {.{.{.{.{.{.",
"{.{.{.{.{.%.o.B 1 w l / ..@ 3 2 , 3 , 1 3 3 , w 8./ 7 Z w ^ 3 + O * - * & *   T / / / U Y.{.{.{.{.{.",
"{.{.{.{.{.u u 3 3 r / X.r 3 , , 3 3 1 3 3 y 3 r _ f V M E D n V l 0.0.0.4.3.5.g./ ' Q e.f.{.{.{.{.{.",
"{.{.{.{.k.w , 3 , - ^ O.@ , 1 = = @ O O O $ $ w / r O.u X.( M W U L.B.P.W.B.f.L.Y K Q P.B.@.{.{.{.{.",
"{.{.{.{.h., 2 > 2 j E N 1 - * ( ( ! ( W ! M h n g w B N ( h B *.{ G.H.s.8.i.p.p.>.,.` 7.8.) {.{.{.{.",
"{.{.{.{.= 3 , > - ) / , > 1 - Z.P.P.P.P.Z.O.( ( , 3 * W ..w ^ V.K.G.H.s.K s.G.G.L.L.| I Q ! A {.{.{.",
"{.{.{.{.1 , , , w Q / w 5 0 8 L.f.J.J.s.Z.^ W D 1 $ 9 Z D r S 0.p.G.i.e._ K.G.i.r.r.` ~ / / F {.{.{.",
"{.{.{.4 > > 2 2 ^ / i + y 0.r.G.f.f.G.;.Q W e o.2 2 1 , r - r 9 i.p.U ~ t.i.L.;.Y Y Q W ^ h 1 {.{.{.",
"{.{.{.< > 2 4 $ ^ ^ f , 7 8.L.J.f.M.L.| / / w o., 2 - - @ & * @ Y.L.I / 6.H.P.>.Q Y / / O.u > {.{.{.",
"{.{.{.< > 2 4 y ^ / R V 7.a.{ | | | | Q / ^ Z u , , > S 7.7.) - k g P ~ s.J.| ] Q Q / ) u w 1 {.{.{.",
"{.{.{.1 > , < n / / / Q U.f.I R R K R Q O.Z ^ - 3 > 1 x P.L.l.r & @ ( } B.L.L ' Q / / X., > 5 {.{.{.",
"{.{.{.< , 2 > n ^ / E >.p.e.~ / ' Q Q / M M Z a u - - ` F.H.*.d 1 , n S 9.9.W / Q ^ B C 4 3 4 {.{.{.",
"{.{.{.< 2 2 3 , E / ) P.p.{ ~ / Q E Q ' < - D o.C > & Z.H.s.Q o.5 , 3 9 } U ) / / Z - 3 4 c $ {.{.{.",
"{.{.v = , 2 > y / / / M.i. .P / Q Q / / 1 r / / B - 8 m.s.v./ o., , , > %.( E ( ^ C 3 3 3 3 3 {.{.{.",
"{.{.c 2 2 , y J / / I I s.] Q ( / / ^ u , u V / > = l.[ _ ] N y , 2 3 , 1 w e d r w 1 > , 2 1 {.{.{.",
"{.{.m , , , 9 ../ / / I a.Q W / ^ / / u 2 u Q ^ 1 @ T.~ Q Q n w 3 , + w 1 > 1 d - > - > > 2 * {.{.{.",
"{.{.6 2 2 + V / / Q Q Q M.] / / / Q W w , h W / , , W ) Q / u w 3 , %.j u 1 1 5 > > 2 @ 3 w -.U.{.{.",
"{.{.2 2 2 - X.Q Q Q ' ' Z.2./ ) ) ( B > 2 u ^ / 3 3 @ / E / 3 3 4 = ^./ h 3 , 2 , 1 , 3 w @ E.g.{.{.",
"{.Q.2 2 2 u / ' Q Q R K 2.' N E Z R M , 2 d / / 3 3 , N ..Z 3 3 , u c.Q h 3 5 3 , , , @ w e x.U.[.{.",
"{.5 3 , M ../ / / E h @ w w $ w 1 - , 2 3 X./ / , 3 3 - ..* 2 , w ..^ W n 3 3 3 2 2 2 , w ..L J.m.{.",
"{.5 3 5 B ^ / / / ..d 3 , $ $ c 3 3 3 2 , W / / - > 2 3 ( 1 > , 1 ^ / W n 4 2 3 2 2 , 2 r / _ p.B.{.",
"H 2 , J / / / ^ e e w , $ n 2 3 , 3 2 2 , d ^ / - 3 3 3 w 4 2 2 3 1 / ^ , 4 3 3 2 4 , 2 ^ Q m.F.,.j.",
"% , > ../ / / ..r w 2 , $ $ 2 3 2 2 2 3 2 u / ( 1 , 2 2 , 5 5 2 3 , o.^ w $ 3 3 , , 2 - ( W B.i._ A ",
"2 u l / / W N C 3 y 5 5 3 n 3 3 y 3 3 3 1 S W N u 3 3 3 3 3 3 3 2 3 n n $ n 3 3 3 3 w z ) Q L.i.{ S ",
"X s S S R W o . # # ; ; ; # # ; . ; ; ; > B S = n > # > $ $ > # $ # . . > $ . . + $ $ S S x d.d.U B ",
"{.{.{.{.{.{.{.{.{.{.{.{.{.{.{.{.{.{.{.{.{.{.{.{.{.{.{.{.{.{.{.{.{.{.{.{.{.{.{.{.{.{.{.{.{.{.{.{.{.{."
};
