/* XPM */
static char *_14d162e2fe04a6ed6471946b828dcf5BM7J1UqQfnLfwebY[] = {
/* columns rows colors chars-per-pixel */
"50 50 137 2 ",
"   c #2C2E2E",
".  c #2E302F",
"X  c #2D2F30",
"o  c #2F3131",
"O  c #323535",
"+  c #363837",
"@  c #353738",
"#  c #363939",
"$  c #393B3B",
"%  c #3C3E40",
"&  c #3E4041",
"*  c #414344",
"=  c #555757",
"-  c #565859",
";  c #5B5E5D",
":  c #5E605F",
">  c #5D5F60",
",  c #5F6161",
"<  c #636564",
"1  c #656867",
"2  c #656768",
"3  c #676969",
"4  c #6A6C6B",
"5  c #6E706F",
"6  c #6D6F70",
"7  c #6F7170",
"8  c #707271",
"9  c #707272",
"0  c #707372",
"q  c #717372",
"w  c #717373",
"e  c #717473",
"r  c #727473",
"t  c #727474",
"y  c #737474",
"u  c #727574",
"i  c #737574",
"p  c #737575",
"a  c #747776",
"s  c #757777",
"d  c #717473",
"f  c #757877",
"g  c #767877",
"h  c #767878",
"j  c #767978",
"k  c #777978",
"l  c #777A79",
"z  c #767878",
"x  c #787A7A",
"c  c #787B7A",
"v  c #797B7C",
"b  c #7B7D7D",
"n  c #7C7D7D",
"m  c #7C7F7E",
"M  c #7A7D7C",
"N  c #7D807F",
"B  c #7E807F",
"V  c #7E8080",
"C  c #7E8180",
"Z  c #7F8181",
"A  c #7F8281",
"S  c #7F8182",
"D  c #7F8181",
"F  c #808281",
"G  c #808282",
"H  c #818383",
"J  c #818483",
"K  c #828582",
"L  c #828483",
"P  c #828484",
"I  c #828584",
"U  c #838584",
"Y  c #838585",
"T  c #838685",
"R  c gray52",
"E  c #848685",
"W  c #848686",
"Q  c #858686",
"!  c #848786",
"~  c #858786",
"^  c #858787",
"/  c #868787",
"(  c #838584",
")  c #858887",
"_  c #868887",
"`  c #868788",
"'  c #888788",
"]  c #868888",
"[  c #878888",
"{  c #868988",
"}  c #868988",
"|  c #888A89",
" . c #898A8A",
".. c #898B8A",
"X. c #898C8B",
"o. c #8B8E8D",
"O. c #8D8D8D",
"+. c #8C8E8D",
"@. c #8C8E8E",
"#. c #8C8F8E",
"$. c #8B8D8C",
"%. c #8D908F",
"&. c #8E908F",
"*. c #8D8F90",
"=. c #8D8F91",
"-. c #8E9190",
";. c #8F9190",
":. c #8F9191",
">. c #8F9190",
",. c #909291",
"<. c #909392",
"1. c #919392",
"2. c #919393",
"3. c #929292",
"4. c #949393",
"5. c #919493",
"6. c #929493",
"7. c #939494",
"8. c #929594",
"9. c #939594",
"0. c #939595",
"q. c #939695",
"w. c gray58",
"e. c #959595",
"r. c #949695",
"t. c #949696",
"y. c #959696",
"u. c #959796",
"i. c #959797",
"p. c gray59",
"a. c #969797",
"s. c #929494",
"d. c #989797",
"f. c #969897",
"g. c #969897",
"h. c #979999",
"j. c #969998",
/* pixels */
"V 4 5 7 3 1 3 4 : $ < m 9 8 4 4 ; O ; 4 B 7 7 7 4 < O : : + o o o @ , V u < O , 7 <.d.r.r.r.4 # : 3 ",
"9 7 3 4 4 4 < ; + - 4 8 3 1 4 , $ O $ < 4 5 e 7 3 , + O # < 3 < < > # 4 e < O < =.l w u u u 3 , + < ",
"7 5 3 4 4 < O O   $ ; 4 4 3 ; * X.<.f $ < < , < < + : 1 3 :.j.:.7 < @ 3 4 < O , 6 4 7 7 7 5 3 1 # ; ",
"5 4 5 4 < ; $ , 3 < $ > < ; $ G B 3 , O - $ o # : $ 3 :.q.! W ) :.3 @ < < : $ < 5 4 9 7 7 3 7 3 , @ ",
"3 3 4 < # $ x W 8.8.1 O O # O O O + o o + < 3 < + , :.{ ! W V 7 u < O - $ # ; 3 4 4 7 3 3 3 6 3 < O ",
"< < ; $ l N H W H W ` $  .r.l + : ; O , 4 :.h.:.O $ :._ A u u 7 4 + o & X.%.$ : < < 3 3 7 3 3 4 , O ",
"O O @ : G 4 < 1 < O O O M G < O ; + O < %.W F 3 O - 4 7 u 7 7 7 , + _ 6.{ R < O O # ; < < < < , O   ",
", < : $ < , O X o X X o @ @ o . $ < < O + , 3 : o O < 7 7 7 3 1 O o < W u 7 , O - < $ O o O O O . o ",
"4 4 4 : # O o X O < 1 1 < ; O < +.r.8.< O o o O o o : < < 3 4 : O o @ > < < O O 4 e.+.O   ; 1 1 1 3 ",
"g.<.7 4 ; O > 3 4 3.i.3.7 < + %. .W R <.< X O < < # O o + , , $ , 4 < @ + ; O , =.' m O O 1 <.r.r.r.",
"_ F 7 4 , # 4 6.8.R R ` %.< O l u e e G < o < 6.h.%., O - # O 3 6.g.6.4 < + O < G 9 O   < &. .R _ R ",
"V 4 4 ; O < 6._ W W V w e < O # , < 7 3 O O 4 8.{ W < $ , O , :._ F _ g.6.4 ; $ 1 4 O O +. .G G G G ",
"< < < o   4 6.W V u 7 7 4 # , , O # , , O < %.f e l $ : < O 2 F e 7 e F R 6.1 O ; 1 O ; m 7 9 9 u u ",
"O + O o O < 4 9 e 7 7 7 , + < 4 3 : + O o 1 F e 7 1 + < 1 O < A e 5 e 7 a G <   O ; @ O O # > 1 < < ",
"< < < < ; + < 9 7 7 4 < # : 4 :.6.5 1 : O < e 7 7 , O : , O 1 V 9 5 9 9 B 5 O O O O ; < < ; $ O # O ",
"4 8 5 9 < + , 1 < 4 4 , O 3 8._ R 8.6.1 + : < 5 1 + o O O O , 1 4 9 5 5 e 1 O ; < 1 4 4 4 4 < < > o ",
"< < < 1 < ; # O # , , O O 3 g.R W W F 4 : + + : : + ; < 3 , # + : < 3 3 < : # < 5 <.6.<.6.<.5 4 < # ",
"O O   O O $ ; 1 : O O o , 4 6.R B 9 7 7 < O ; # + : 5 6.8.5 3 , # O , < + O , 4 :.{ R R _ ! 6.8.4 < ",
"1 - O , 1 < 7 :.5 1 ; # , 4 F e 4 5 3 4 : $ 1 , o 1 :._ ! :.q.6.4 < $ + - O < <.{ V H G V a F ! e.4 ",
": $ > 6 3.e.<.{ 4.<.7 ; # , < < < 4 9 < + : 5 < + 1 g.! A W W ! r.6.1 : + O 1 r.R e u e 4 7 e 4 M 3 ",
"O X 4 %.R W W V R { <.3 O O O o O , 1 > $ 4 1 + : 4 q.F a e e e ! W A 3 + - 4 :.W 4 < < < 3 < < $ O ",
"> $ 1 G e 7 7 u V W <.4 : O ; O . O O O - 4 < O , 4 q.! 7 7 7 5 e 7 7 < o O , 3 < , # o o o O + w 4 ",
"1 ; $ 4 7 5 7 7 w w u 4 : O < 3 1 1 ; O # < ; O < 5 q.! 7 7 7 e 7 7 7 4 O . O + # $ , @   o ; < w G ",
"4 < O < 4 7 7 7 7 3 1 < O O 3 8.r.8.6 1 : $ O O , < A a 7 5 4 5 7 4 7 1 o   < X.X.:.:.< O : 5 %.a 9 ",
"9 < # > 1 1 4 1 4 1 4 < o < <.R R R 8.6.4 < : o o + , 3 3 3 7 3 < < < , o O X.M a f u 1 O < %.7 7 7 ",
"6 1 ; O X O , < < < < : # 3 g.u 7 9 W { :.4 < O   o o # , 2 < < + O + O o ; 3 < < 5 7 < + < 4 7 4 4 ",
"4 < @ X X X O O O o O O , 4 :.u 7 7 7 e F 1 O O : 3 < ; $ o O o o : < < < $ O O # , < , O ; 3 7 4 4 ",
"< @ > < 1 1 1 1 ; O   o , 4 A u 7 7 3 3 7 1 O ; 4 8.8.7 : O o o : 5 8.h.:.3 < < : + O + o + , < < < ",
"> $ < 7 3.e.r.3.4 1 , o O 1 A u 7 7 3 5 4 : O < <.{ { :.5 1 , @ < :.{ ! _ r.q.q.3 + - , < , # o O O ",
"@ > 4 %.` ` ` ` 6.6.3 O . 1 V 7 3 3 3 3 < O O 1 W G G { 6.8.4 O < W F F F _ _ ! , $ , 5 4 1 o   ; < ",
"o 4 6.{ H R H G ! _ B ; O < e 3 5 3 5 3 < O , V u 9 e V W _ f # < A a 7 u V A N # . 3 :.:.3 o # X._ ",
"O < G 9 4 4 6 w 5 5 < + o , 1 3 4 3 3 1 < O < V e 5 7 e u M $ o 1 F e 7 7 e a 7 o o %.X.W 5 # R R 4 ",
"; @ O O X O @ > O O o X X O @ , < 1 ; O o O , 4 7 3 3 7 7 4 O   < G e 5 7 7 7 7 o o %.l 7 < + M 4 3 ",
"@ > ; O O O O O O - O > 1 , O @ O O O O O X @ < 7 4 4 3 4 1 O O < 9 5 4 7 7 4 4 O @ %.a 7 < O : 1 < ",
"X > % < +.<.X.3 > @ # =.i.3.M 4 ; # _ V a ; O > 1 < 4 3 1 , O ; 4 5 4 1 7 3 3 1 O , F e 7 < + o O O ",
"X O < <. .{ { h.=.% 4 & 6 w 6 1 , @ M 7 $ O o O O + , 1 < $ . O < 4 5 5 4 3 3 , + < A u < # ; 1 1 < ",
"> O 1 H w 6 e F { { $   O O O O O o @ O X ; 1 < < ; O O O < < O O : 3 < < < , $ ; 7 9 7 < O 1 :.d.4.",
", O 1 G 9 9 7 9 a R ; O ; < < < < 1 ; o X @ < 8.8.1 O ; 3 :.g._ O O O o # # @ o < 7 7 4 < @ u { k y ",
"O o 3 G 9 7 7 9 V 4 + O 1 6 :.r.i.3.4 1 > X O F { < O < %._ _ 4 + = O O ` :.h # , e 7 < @ X $ , < < ",
"> @ , 1 4 7 7 7 u 1 O ; 4 =.{ R `  .3.3.4 o o n G < O O $ < 1 : o + : f u 4 < @ < 9 1 @ o , < $ O O ",
"4 , # $ , < 3 3 1 , O 1 6._ F F G G _  .M O O < 4 < O ; ; # O o o - % # O O X O : 4 < O W i.8.m y O ",
"V m 4 ; # # < , + O O < B 5 u u e e 4 7 < O : 3 3 , + < 4 < ; O X # ; < < > O   # ; # O V { R a 4 O ",
"u e 4 4 < , # # - @ - $ O $ , 1 < < $ O O O : 1 , $ ; 4 3.8.5 : O ; 4 8.3.4 ; O - $ O 7 9 4 4 1 , @ ",
"7 4 <.r.:.5 < < < + < < < , $ O O # ; < < : # O $ - % X.{ W V 1 O < <.{ R G 1 O < < ; $ O # O O + ; ",
"7 9 _ _ _ 6.q.q.< + , 7 <.r.X.: O ; 4 :.8.:.< , < , + X.7 3 3 , o O < 3 4 1 O o < 4 4 1 < < < ; + , ",
"7 e G G A ! _ F < O 1 6._ W ! 1 @ 1 :.u W { A 4 < + o 1 1 : + + ; O o @ O O X o 1 <.<.r.e.4 9 1 + , ",
"4 3 4 4 4 e 7 e < O 3 q.F e 7 5 ; $ l 1 < 1 3 3 < . . O O + : 1 < @ ; < < < ; $  . ._ _ R G 9 < + , ",
"5 5 4 1 3 5 5 5 < O < F a 7 7 4 < O O O O O + < : O ; < < 1 <.4.1 O 1 :.g.4.3 O x 4 4 7 4 4 < $ ; 1 ",
"7 e 9 3 3 5 5 4 < O < 9 8 8 3 3 < O ; < < < : # O O < 6.4.4.R 5 , # k R W G 1 O O O + O # + O . < 4 ",
"G G 9 5 5 4 1 4 4 O < 3 3 3 1 8 < O 3 4.p.4.4 : ; O < R _ R 4 1 < O 1 4 3 4 1 O - < : < , , ; + < B "
};
