/* XPM */
static char *result[] = {
/* columns rows colors chars-per-pixel */
"50 50 38 1 ",
"  c #16212A",
". c #19252E",
"X c #1B2631",
"o c #1E2934",
"O c #1F2B38",
"+ c #202B36",
"@ c #222D3A",
"# c #25313E",
"$ c #28333F",
"% c #273340",
"& c #2A3543",
"* c #2D3946",
"= c #2E3B49",
"- c #323D4C",
"; c #34414E",
": c #364251",
"> c #394554",
", c #3B4956",
"< c #3C4758",
"1 c #3E4A5A",
"2 c #414D5D",
"3 c #43505F",
"4 c #434F60",
"5 c #455262",
"6 c #495666",
"7 c #4A5867",
"8 c #4B5768",
"9 c #4D5A6B",
"0 c #505E6E",
"q c #525F71",
"w c #51606F",
"e c #556273",
"r c #586577",
"t c #5A6779",
"y c #5C6B7C",
"u c #616E7F",
"i c #637284",
"p c #687789",
/* pixels */
";2276;22555=7;15,<3275:5225;,9;32,,5577-3335;23593",
"-2556,552>#$e1216>36045852;o;t,236<5570:652-$16397",
".;222,*>*@@%2--1>o>124:-:*+X:5-:2-#<22q#:;&+.&2219",
"o#:*31;>-*;-2;#&=#@>-7:;>$;*25-$&=$$:-r&:>#;@#&-:e",
".#o#-*4651w@=;<:2o#+&-;66<7<%:;>;>@o#*:;96:0-#X#=:",
"@7,27>>27:w.XX115*w,40:<244,..#25<>0=7e&28;6;20*69",
"=2:*<-#:;%6#*X<15:2:-<*&:%;:*#+255<5&:5X-<@2:,5%>1",
";23-1*ooO%1o&O*>,,52:<$ooo-;@*+*<2<9*>1X@++-22w#,>",
"-2,27<#=#:5*9-X%#>5369:&=@1>>e*X#&<9-9eO*&%<226-w9",
"&22:51X.X;7@1>er7-51<5;XXX1>*51re5>9*1eX.+@4:<0#1e",
"@22*2:5e6=7=5:<15&2,;2<9e>1,<9:122-6%<8-eq-5-:9o<5",
"&:::2:::,;,%<=:-,=:><4->::>=:1=:*<:<&18#<>;:;:2%<6",
"#*=-:&-=&&=O==-==&&=::@-****%===-****:-%;&*&***&::",
"<q995-0p:9w,wwee960w98*ei59e199i70e997,<i376709096",
"=21:#.,9%16*>4145:3<=@O16-19$11525>2<*o*6;<43:3<*@",
"X&#Xo@27X;=O@>>48o*oXO*19#>:.%<>52@&ooX>4;%:&+*o.o",
"<ry,u1=3**;&%#@><6te4u%-4:#2+%$#<30tw9w;;-;&26te5y",
"-26;6=#&-<5%=*=:;>15>9X@*<20+-$->;<25>5o#$2<3:23:9",
"+29*7;o.-18*56>65&19-qXo.<2q&7><7,;25;5+.o226-26-q",
" +*.,&%$@<5:26o*&.@%o5X*+-28:2>@*#X##$1+*X:2>.@%+4",
"+*+#>;>2X#-=272t9@$o=3#<,X&;:5<0e2$#o-2-2&O=&#$+-2",
".@%@4::6:ee=25>25X$#-6O<5790-2:<22@#@:2$5;7e<+@#-6",
"&<2%6:1q-68&<7%25=1;=9&2026e#2,-52;,-;3;5>555-<;=0",
"$56-4-14%<<=;8*22*55;5&15-<5&2>:4<>45:2:2->><:53-4",
"+-*&%@*-&&&#%*&;;$*-@=X*-*#;#$$=:-*&-@*@=*=$*$*-@=",
"-79-66095<5979-96<62<56q7:75796>q2282,78e0-7666229",
"*29-26262:62>@+59>25-2565<552:o*04>26-2252;522=X>9",
"+<<@*1113#:*@##25%<:o:2<2>=:&@@=22=2-@>226*=-$++*2",
"@%*@&=&<6-51;2;<3$%&@@:%2,23,>1:22#**@@>*7-44=2-@*",
"-><@+X%**:65<e&&>,:1o@.#=&3562e#-><->oo+%**55>85<4",
"-49%9r>05-<9,eoX.,25*q52q:<2q>w..+225-q-8e*28<2929",
"%24=49%>;X-:$8@*o;13:2<*<*+-;&6%&+>22:2=->@@>#-2-8",
"X-4-2t*5;ooo$5#$&@-<:26;3*oo+*6+-@%>>>6;<3+@oo=,#<",
"+*-&29>6<o=%=7=55@=&;2515:%=#>9=0:$-&>4;56&%*#<1%=",
">ee*2t=26oo+*0#<85ww-26:1>oo+:7&26006-6=16&o+o259r",
"%24&>e%2<:e9:7;35-11@22*2:6e0:7:22:21&4&,2-7e:31>8",
"%-**;2=<<*>>-<#<>*==*->:1;>-1-2&>>-&--:*<3&<:;->-1",
"*---;&=;;--&;&&-*==;;=&---:%--**-=-----$;;-:$-=;--",
"<7qte1q999<:y588669wy95e977-5p3798600ry<e075;9ewyq",
"@<222:>1>*@#5->11&1215>,<:#X;6-<2>-2220*2<;#X:2126",
"X%<-5<&*++@:4;%-&o&1:9=*=o#+28=*-&+-<>t+-&X#.+;><q",
"X%#%<-8q78r*:-:&>###*1>ee<e2=,;-=-&+%-8:qe>y-*o$-2",
"+>&:<=,26:7.@#211#,&>1=12:3;o#*22>=>%>2-26:6*-:*<2",
"%6>>6:-12-0+@X145;6>17=:3-2:$.#24229&4qo<6*5-48*48",
":4>+*@.@#@5.%X:21,5:#&o.@o--@&o:4229O%= o%X>>28o%&",
";427y1#&o-3=5*X&&,53ee;&$+>;:7#o&=20-ruo*@%<,2q:uq",
"-2:>2:oO@:5#<:ry9>5,15;o#o2:%61tu426&2e.+#@4-29*28",
"$4>-2>>4>-7-6>251=5::5:11*5:>9,542-8@<0*25%6-<9+28",
"&<>:2:>12>4=2=::>*4><5-,2:1;>5=<-2-8&29#44-4--8%26",
"+%%&-%&%*+&o&&*@&%@#=-@=@%#@#&&%#&%%+--+*&%%#%&+--"
};
